<?xml version="1.0" encoding="UTF-8"?>
<!DOCTYPE svg PUBLIC "-//W3C//DTD SVG 1.1//EN" "http://www.w3.org/Graphics/SVG/1.1/DTD/svg11.dtd">
<svg width="140mm" height="105mm" viewBox="0 0 14000 10500" version="1.1" xmlns="http://www.w3.org/2000/svg" xmlns:xlink="http://www.w3.org/1999/xlink" stroke-width="28.222" stroke-linejoin="round" xml:space="preserve">
 <path fill="rgb(255,255,255)" stroke="none" d="M 7000,10500 L 0,10500 0,0 14000,0 14000,10500 7000,10500 Z"/>
 <path fill="none" stroke="rgb(0,0,0)" stroke-linejoin="round" d="M 7470,8526 L 1860,8526 1860,387 13081,387 13081,8526 7470,8526 Z"/>
 <path fill="none" stroke="rgb(0,0,0)" stroke-linejoin="round" d="M 1860,8675 L 1860,8525"/>
 <path fill="none" stroke="rgb(0,0,0)" stroke-linejoin="round" d="M 1860,8675 L 1860,8525"/>
 <path fill="none" stroke="rgb(0,0,0)" stroke-linejoin="round" d="M 5600,8675 L 5600,8525"/>
 <path fill="none" stroke="rgb(0,0,0)" stroke-linejoin="round" d="M 5600,8675 L 5600,8525"/>
 <path fill="none" stroke="rgb(0,0,0)" stroke-linejoin="round" d="M 9340,8675 L 9340,8525"/>
 <path fill="none" stroke="rgb(0,0,0)" stroke-linejoin="round" d="M 9340,8675 L 9340,8525"/>
 <path fill="none" stroke="rgb(0,0,0)" stroke-linejoin="round" d="M 13081,8675 L 13081,8525"/>
 <path fill="none" stroke="rgb(0,0,0)" stroke-linejoin="round" d="M 13081,8675 L 13081,8525"/>
 <path fill="none" stroke="rgb(0,0,0)" stroke-linejoin="round" d="M 1860,8525 L 13081,8525"/>
 <path fill="none" stroke="rgb(0,0,0)" stroke-linejoin="round" d="M 1710,8525 L 1860,8525"/>
 <path fill="none" stroke="rgb(0,0,0)" stroke-linejoin="round" d="M 1710,8525 L 1860,8525"/>
 <path fill="none" stroke="rgb(0,0,0)" stroke-linejoin="round" d="M 1710,7362 L 1860,7362"/>
 <path fill="none" stroke="rgb(0,0,0)" stroke-linejoin="round" d="M 1710,7362 L 1860,7362"/>
 <path fill="none" stroke="rgb(0,0,0)" stroke-linejoin="round" d="M 1710,6199 L 1860,6199"/>
 <path fill="none" stroke="rgb(0,0,0)" stroke-linejoin="round" d="M 1710,6199 L 1860,6199"/>
 <path fill="none" stroke="rgb(0,0,0)" stroke-linejoin="round" d="M 1710,5037 L 1860,5037"/>
 <path fill="none" stroke="rgb(0,0,0)" stroke-linejoin="round" d="M 1710,5037 L 1860,5037"/>
 <path fill="none" stroke="rgb(0,0,0)" stroke-linejoin="round" d="M 1710,3874 L 1860,3874"/>
 <path fill="none" stroke="rgb(0,0,0)" stroke-linejoin="round" d="M 1710,3874 L 1860,3874"/>
 <path fill="none" stroke="rgb(0,0,0)" stroke-linejoin="round" d="M 1710,2711 L 1860,2711"/>
 <path fill="none" stroke="rgb(0,0,0)" stroke-linejoin="round" d="M 1710,2711 L 1860,2711"/>
 <path fill="none" stroke="rgb(0,0,0)" stroke-linejoin="round" d="M 1710,1548 L 1860,1548"/>
 <path fill="none" stroke="rgb(0,0,0)" stroke-linejoin="round" d="M 1710,1548 L 1860,1548"/>
 <path fill="none" stroke="rgb(0,0,0)" stroke-linejoin="round" d="M 1710,386 L 1860,386"/>
 <path fill="none" stroke="rgb(0,0,0)" stroke-linejoin="round" d="M 1710,386 L 1860,386"/>
 <path fill="none" stroke="rgb(0,0,0)" stroke-linejoin="round" d="M 1860,8525 L 1860,386"/>
 <path fill="none" stroke="rgb(213,94,0)" stroke-width="80" stroke-linejoin="round" d="M 1860,8525 L 1879,8348 1884,8305 1886,8284 1901,8148 1905,8102 1910,8057 1918,7989 1930,7803 1942,7617 1956,7458 1959,7432 1971,7299 1976,7246 1985,7170 2005,7017 2010,6978 2012,6959 2024,6865 2048,6676 2068,6566 2085,6470 2097,6401 2104,6360 2123,6271 2135,6216 2157,6117 2172,6050 2184,6012 2215,5914 2227,5876 2230,5868 2254,5792 2264,5762 2312,5659 2327,5628 2331,5617 2385,5504 2409,5452 2414,5444 2482,5321 2486,5312 2515,5260 2549,5199 2564,5179 2574,5165 2622,5096 2661,5041 2663,5038 2680,5017 2728,4958 2733,4952 2765,4912 2770,4906 2842,4813 2845,4810 2874,4773 2961,4684 2987,4657 3029,4615 3077,4572 3104,4549 3125,4529 3184,4478 3193,4471 3222,4448 3324,4371 3343,4357 3355,4347 3397,4319 3413,4308 3459,4276 3505,4244 3549,4214 3588,4188 3614,4170 3656,4141 3680,4128 3694,4120 3757,4085 3803,4059 3823,4047 3864,4022 3931,3981 3973,3956 3987,3949 3994,3945 4006,3939 4060,3913 4166,3860 4176,3855 4261,3813 4295,3796 4304,3791 4343,3771 4372,3757 4425,3736 4471,3718 4488,3711 4561,3682 4568,3679 4580,3675 4619,3657 4648,3644 4718,3612 4769,3589 4822,3565 4851,3554 4873,3546 4907,3534 5028,3489 5033,3487 5050,3479 5086,3463 5163,3428 5193,3415 5222,3402 5241,3393 5265,3384 5437,3319 5439,3318 5459,3311 5471,3306 5519,3289 5655,3241 5674,3234 5679,3232 5689,3228 5747,3206 5892,3149 5907,3143 5953,3126 5965,3121 6071,3086 6132,3065 6146,3060 6233,3031 6238,3030 6400,2978 6427,2969 6439,2965 6538,2933 6570,2923 6664,2893 6730,2873 6797,2851 6824,2841 6870,2825 6943,2798 7041,2762 7080,2748 7109,2739 7152,2725 7290,2681 7372,2655 7382,2652 7481,2619 7564,2592 7673,2556 7694,2549 7772,2524 7791,2518 7852,2499 7951,2467 8069,2432 8113,2420 8183,2399 8256,2378 8341,2357 8440,2333 8529,2310 8534,2309 8554,2303 8612,2285 8633,2278 8791,2228 8842,2212 8856,2208 8861,2206 8897,2199 8984,2183 9120,2157 9149,2152 9156,2150 9202,2137 9243,2126 9352,2097 9362,2094 9447,2071 9454,2069 9471,2065 9502,2057 9623,2027 9643,2022 9686,2011 9754,1994 9810,1980 9890,1961 9955,1945 10122,1905 10139,1901 10282,1870 10369,1851 10485,1826 10531,1816 10553,1810 10676,1779 10754,1760 10814,1744 10885,1727 10931,1717 10948,1713 11020,1697 11081,1684 11105,1679 11141,1671 11296,1637 11376,1638 11441,1686"/>
 <path fill="none" stroke="rgb(240,228,66)" stroke-width="80" stroke-linejoin="round" d="M 1860,8497 L 1889,8263 1932,7879 1944,7758 1961,7590 1978,7393 1988,7281 1993,7243 2014,7071 2029,6957 2031,6944 2043,6878 2065,6760 2073,6720 2075,6707 2089,6628 2094,6607 2104,6564 2118,6501 2123,6480 2126,6470 2145,6385 2150,6364 2152,6354 2167,6291 2172,6277 2177,6263 2184,6243 2196,6208 2208,6174 2223,6133 2225,6126 2237,6091 2242,6078 2252,6050 2271,6007 2276,5997 2278,5991 2290,5964 2315,5911 2334,5868 2351,5830 2363,5807 2370,5793 2390,5756 2402,5733 2423,5691 2438,5663 2450,5639 2482,5579 2494,5555 2496,5552 2520,5517 2530,5503 2578,5433 2593,5412 2651,5329 2675,5299 2680,5293 2748,5211 2753,5205 2782,5169 2816,5128 2830,5110 2840,5100 2888,5048 2927,5007 2929,5005 2946,4987 2995,4935 3000,4930 3031,4897 3108,4832 3111,4830 3140,4805 3145,4801 3227,4732 3254,4711 3295,4679 3343,4641 3370,4620 3392,4602 3450,4557 3459,4549 3488,4526 3590,4460 3610,4448 3622,4440 3663,4413 3680,4402 3726,4374 3772,4346 3815,4319 3854,4295 3881,4279 3922,4257 3946,4244 3960,4237 4023,4203 4069,4179 4089,4169 4130,4148 4198,4114 4239,4094 4253,4087 4273,4078 4326,4052 4432,3999 4442,3994 4527,3960 4561,3946 4570,3942 4609,3923 4638,3908 4691,3881 4737,3861 4754,3853 4827,3822 4846,3814 4885,3800 4914,3790 4984,3764 5035,3743 5088,3721 5117,3709 5139,3701 5173,3688 5294,3642 5316,3634 5352,3621 5430,3593 5459,3582 5488,3572 5507,3565 5531,3557 5703,3496 5725,3487 5737,3482 5786,3461 5921,3404 5940,3396 5945,3393 5955,3390 6013,3371 6158,3323 6173,3318 6219,3303 6231,3299 6337,3263 6398,3243 6412,3238 6500,3209 6667,3153 6693,3146 6705,3142 6805,3113 6836,3104 6930,3076 6996,3057 7063,3036 7089,3028 7135,3014 7208,2992 7307,2961 7346,2947 7375,2937 7418,2921 7556,2872 7639,2849 7648,2847 7748,2819 7830,2797 7939,2766 7961,2759 8038,2737 8057,2732 8118,2714 8217,2689 8336,2658 8379,2647 8384,2646 8450,2628 8522,2608 8607,2584 8609,2583 8706,2552 8796,2523 8820,2516 8878,2502 8900,2497 9057,2461 9108,2452 9122,2449 9127,2448 9164,2442 9251,2426 9386,2378 9415,2367 9469,2359 9510,2353 9619,2339 9713,2337 9720,2349 9723,2353 9737,2376 9769,2427 9890,2621 9909,2652"/>
 <path fill="none" stroke="rgb(0,158,115)" stroke-width="80" stroke-linejoin="round" d="M 1860,8518 L 1867,8452 1869,8430 1884,8298 1889,8252 1898,8160 1913,8023 1918,7968 1920,7941 1939,7721 1944,7663 1947,7634 1961,7462 1966,7404 1971,7360 1978,7294 1990,7184 2002,7078 2017,6951 2019,6930 2031,6852 2036,6821 2046,6759 2065,6635 2070,6610 2073,6598 2085,6537 2109,6416 2128,6318 2145,6255 2157,6209 2164,6182 2184,6110 2196,6064 2218,5997 2232,5952 2244,5914 2276,5817 2288,5792 2290,5787 2315,5737 2324,5717 2373,5617 2387,5591 2445,5488 2469,5445 2474,5436 2542,5315 2547,5308 2576,5268 2610,5222 2624,5202 2634,5189 2682,5122 2721,5068 2724,5065 2741,5041 2789,4986 2794,4980 2825,4944 2830,4939 2903,4856 2934,4826 2939,4821 3021,4744 3048,4718 3089,4679 3138,4634 3164,4608 3186,4588 3244,4542 3254,4534 3283,4512 3384,4431 3404,4416 3416,4409 3457,4384 3474,4374 3520,4346 3566,4319 3610,4293 3648,4268 3675,4252 3716,4226 3740,4211 3755,4202 3818,4162 3864,4138 3883,4128 3924,4106 3992,4071 4033,4049 4048,4042 4067,4032 4120,4006 4227,3954 4236,3949 4321,3908 4355,3894 4365,3890 4403,3873 4432,3861 4486,3838 4532,3819 4549,3810 4621,3774 4641,3764 4679,3744 4708,3730 4779,3700 4829,3678 4883,3655 4912,3643 4934,3633 4967,3621 5088,3579 5110,3571 5147,3558 5224,3528 5253,3517 5282,3506 5301,3499 5326,3489 5498,3421 5519,3412 5531,3407 5580,3389 5715,3338 5735,3332 5740,3330 5749,3327 5807,3307 5953,3256 5967,3251 6013,3235 6025,3231 6132,3193 6192,3172 6207,3167 6294,3137 6461,3080 6488,3071 6500,3067 6599,3032 6630,3021 6725,2989 6790,2969 6858,2949 6884,2941 6930,2927 7002,2906 7101,2878 7140,2867 7169,2858 7213,2844 7351,2797 7433,2769 7443,2766 7542,2737 7624,2712 7733,2680 7755,2673 7832,2649 7852,2643 7912,2624 8011,2593 8130,2556 8174,2543 8244,2528 8316,2513 8401,2495 8404,2494 8500,2474 8590,2449 8614,2442 8672,2425 8694,2419 8851,2383 8902,2371 8917,2367 8922,2366 8958,2358 9045,2331 9181,2289 9210,2282 9217,2280 9263,2270 9304,2260 9413,2234 9423,2232 9507,2210 9515,2208 9531,2204 9563,2196 9684,2166 9703,2161 9747,2151 9815,2135 9870,2122 9950,2104 10016,2090 10183,2053 10200,2049 10342,2015 10429,1994 10546,1964 10592,1952 10613,1946 10737,1925 10814,1912 10875,1898 10945,1882 10991,1871 11008,1870 11081,1867 11141,1864 11165,2007 11202,2222"/>
 <path fill="none" stroke="rgb(86,180,233)" stroke-width="80" stroke-linejoin="round" d="M 1860,8525 L 1876,8353 1881,8298 1891,8213 1905,8086 1910,8044 1913,8023 1932,7813 1937,7761 1939,7734 1954,7541 1959,7476 1964,7412 1971,7315 1983,7213 1995,7112 2010,6990 2012,6970 2024,6868 2029,6834 2039,6765 2058,6628 2063,6593 2065,6576 2077,6490 2102,6325 2121,6232 2138,6150 2150,6092 2157,6063 2177,5986 2189,5938 2210,5851 2225,5808 2237,5773 2269,5681 2281,5645 2283,5638 2307,5588 2317,5568 2365,5469 2380,5439 2385,5429 2438,5320 2462,5270 2467,5260 2535,5151 2540,5143 2569,5096 2603,5050 2617,5031 2627,5017 2675,4952 2714,4897 2716,4893 2733,4869 2782,4801 2787,4795 2818,4758 2823,4752 2895,4666 2927,4638 2932,4633 3014,4560 3041,4535 3082,4496 3130,4450 3157,4428 3179,4410 3237,4362 3246,4354 3275,4330 3377,4244 3397,4231 3409,4222 3450,4193 3467,4181 3513,4148 3559,4116 3602,4086 3641,4059 3668,4042 3709,4015 3733,4000 3747,3990 3810,3960 3856,3937 3876,3928 3917,3908 3985,3870 4026,3847 4040,3839 4048,3835 4060,3829 4113,3802 4219,3748 4229,3743 4314,3701 4348,3685 4357,3680 4396,3661 4425,3648 4478,3626 4524,3606 4541,3599 4614,3561 4621,3557 4633,3551 4672,3530 4701,3518 4771,3489 4822,3468 4875,3450 4904,3440 4926,3432 4960,3420 5081,3368 5103,3359 5139,3341 5217,3304 5246,3290 5275,3280 5294,3274 5318,3266 5490,3208 5512,3200 5524,3195 5573,3175 5708,3120 5727,3112 5732,3110 5742,3106 5800,3086 5945,3034 5960,3029 6006,3013 6018,3009 6124,2971 6185,2949 6199,2944 6287,2913 6454,2858 6480,2849 6492,2846 6592,2813 6623,2803 6717,2773 6783,2753 6851,2732 6877,2723 6923,2709 6996,2686 7094,2656 7133,2644 7162,2635 7205,2621 7343,2578 7426,2553 7435,2550 7535,2520 7617,2495 7726,2462 7748,2455 7825,2432 7844,2426 7905,2408 8004,2378 8123,2343 8166,2330 8171,2328 8237,2309 8309,2289 8394,2265 8493,2238 8583,2213 8607,2206 8665,2188 8687,2181 8844,2133 8895,2117 8909,2113 8951,2102 9038,2079 9173,2043 9202,2035 9256,2021 9297,2013 9406,1993 9415,1991 9500,1975 9507,1973 9524,1969 9556,1961 9677,1928 9696,1923 9740,1911 9807,1894 9863,1880 9943,1859 10008,1843 10175,1804 10192,1800 10335,1767 10422,1750 10538,1726 10584,1720 10606,1717 10730,1699 10807,1695 10868,1692 10938,1685 10984,1680 11001,1678 11073,1761 11134,1830 11158,1857 11194,1899 11349,2075 11429,2165 11495,2240"/>
 <path fill="none" stroke="rgb(230,159,0)" stroke-width="80" stroke-linejoin="round" d="M 1860,8525 L 1872,8401 1889,8243 1905,8085 1915,7961 1920,7899 1942,7617 1956,7435 1959,7404 1971,7212 1993,7006 2000,6937 2002,6914 2017,6778 2022,6732 2031,6641 2046,6531 2051,6494 2053,6475 2073,6328 2077,6291 2080,6275 2094,6181 2099,6150 2104,6119 2111,6077 2123,6006 2135,5936 2150,5851 2152,5841 2164,5794 2169,5774 2179,5736 2198,5660 2203,5640 2206,5631 2218,5594 2242,5519 2261,5459 2278,5407 2290,5369 2298,5347 2317,5287 2329,5261 2351,5215 2365,5184 2377,5158 2409,5093 2421,5068 2423,5063 2448,5013 2457,4995 2506,4905 2520,4878 2525,4869 2578,4784 2603,4745 2675,4636 2680,4629 2709,4594 2743,4554 2758,4537 2767,4526 2816,4474 2854,4432 2874,4410 2922,4354 2927,4348 2958,4311 3036,4242 3038,4240 3067,4214 3072,4210 3154,4132 3181,4107 3222,4075 3271,4038 3297,4017 3319,4002 3377,3962 3387,3955 3416,3935 3518,3867 3537,3854 3549,3846 3590,3818 3607,3809 3653,3785 3699,3760 3743,3737 3781,3716 3808,3702 3849,3680 3873,3667 3888,3659 3951,3627 3997,3602 4016,3592 4057,3571 4125,3535 4166,3514 4181,3506 4188,3502 4200,3497 4253,3475 4360,3432 4362,3431 4370,3428 4454,3393 4488,3379 4498,3375 4537,3358 4566,3345 4619,3322 4665,3301 4682,3294 4754,3262 4762,3259 4774,3254 4813,3239 4842,3227 4912,3199 4963,3178 5016,3157 5045,3145 5067,3136 5101,3122 5222,3072 5226,3070 5243,3063 5280,3047 5357,3015 5386,3004 5415,2994 5435,2987 5459,2978 5631,2915 5633,2914 5652,2907 5665,2902 5713,2885 5848,2844 5868,2838 5882,2834 5940,2816 6086,2764 6100,2759 6146,2742 6158,2738 6265,2699 6325,2679 6340,2674 6427,2645 6432,2643 6594,2589 6621,2580 6633,2576 6732,2546 6763,2536 6858,2508 6923,2488 6991,2467 7017,2459 7063,2445 7135,2422 7234,2391 7273,2379 7302,2370 7346,2356 7484,2316 7566,2292 7576,2289 7578,2289 7675,2260 7757,2235 7866,2202 7888,2195 7965,2171 7985,2166 8045,2149 8145,2122 8263,2089 8307,2078 8312,2077 8377,2060 8450,2042 8534,2021 8537,2020 8633,1996 8723,1973 8728,1972 8747,1967 8805,1952 8827,1947 8984,1912 9035,1900 9050,1897 9055,1896 9091,1886 9178,1863 9314,1827 9343,1819 9350,1817 9396,1805 9437,1794 9546,1771 9556,1769 9640,1751 9650,1749 9665,1746 9696,1740 9817,1716 9836,1712 9880,1708 9948,1703 10003,1698 10083,1692 10149,1686 10316,1673 10333,1671 10475,1660 10563,1653 10679,1643 10725,1639 10747,1638 10870,1628 10947,1621 11008,1616 11078,1611 11124,1607 11141,1605 11214,1599 11274,1595 11298,1593 11335,1590 11490,1577 11570,1570 11635,1565"/>
 <path fill="none" stroke="rgb(0,0,0)" stroke-width="80" stroke-linejoin="round" d="M 1860,8525 L 1990,7187 2047,6722 2140,6199 2234,5850 2421,5455 2795,4921 3169,4525 3730,4107 4665,3642 5600,3269 7470,2665 9340,2130 11210,1688"/>
 <text class="TextShape"><tspan class="TextParagraph" font-family="Latin Modern Roman" font-size="423px" font-weight="400"><tspan class="TextPosition" x="1225" y="9251"><tspan fill="rgb(0,0,0)" stroke="none">0,00 %</tspan></tspan></tspan></text>
 <text class="TextShape"><tspan class="TextParagraph" font-family="Latin Modern Roman" font-size="423px" font-weight="400"><tspan class="TextPosition" x="4753" y="9251"><tspan fill="rgb(0,0,0)" stroke="none">100,00 %</tspan></tspan></tspan></text>
 <text class="TextShape"><tspan class="TextParagraph" font-family="Latin Modern Roman" font-size="423px" font-weight="400"><tspan class="TextPosition" x="8494" y="9251"><tspan fill="rgb(0,0,0)" stroke="none">200,00 %</tspan></tspan></tspan></text>
 <text class="TextShape"><tspan class="TextParagraph" font-family="Latin Modern Roman" font-size="423px" font-weight="400"><tspan class="TextPosition" x="12235" y="9251"><tspan fill="rgb(0,0,0)" stroke="none">300,00 %</tspan></tspan></tspan></text>
 <text class="TextShape"><tspan class="TextParagraph" font-family="Latin Modern Roman" font-size="423px" font-weight="400"><tspan class="TextPosition" x="1398" y="8698"><tspan fill="rgb(0,0,0)" stroke="none">0</tspan></tspan></tspan></text>
 <text class="TextShape"><tspan class="TextParagraph" font-family="Latin Modern Roman" font-size="423px" font-weight="400"><tspan class="TextPosition" x="1398" y="7535"><tspan fill="rgb(0,0,0)" stroke="none">5</tspan></tspan></tspan></text>
 <text class="TextShape"><tspan class="TextParagraph" font-family="Latin Modern Roman" font-size="423px" font-weight="400"><tspan class="TextPosition" x="1187" y="6372"><tspan fill="rgb(0,0,0)" stroke="none">10</tspan></tspan></tspan></text>
 <text class="TextShape"><tspan class="TextParagraph" font-family="Latin Modern Roman" font-size="423px" font-weight="400"><tspan class="TextPosition" x="1187" y="5209"><tspan fill="rgb(0,0,0)" stroke="none">15</tspan></tspan></tspan></text>
 <text class="TextShape"><tspan class="TextParagraph" font-family="Latin Modern Roman" font-size="423px" font-weight="400"><tspan class="TextPosition" x="1187" y="4046"><tspan fill="rgb(0,0,0)" stroke="none">20</tspan></tspan></tspan></text>
 <text class="TextShape"><tspan class="TextParagraph" font-family="Latin Modern Roman" font-size="423px" font-weight="400"><tspan class="TextPosition" x="1187" y="2883"><tspan fill="rgb(0,0,0)" stroke="none">25</tspan></tspan></tspan></text>
 <text class="TextShape"><tspan class="TextParagraph" font-family="Latin Modern Roman" font-size="423px" font-weight="400"><tspan class="TextPosition" x="1187" y="1720"><tspan fill="rgb(0,0,0)" stroke="none">30</tspan></tspan></tspan></text>
 <text class="TextShape"><tspan class="TextParagraph" font-family="Latin Modern Roman" font-size="423px" font-weight="400"><tspan class="TextPosition" x="1187" y="558"><tspan fill="rgb(0,0,0)" stroke="none">35</tspan></tspan></tspan></text>
 <path fill="none" stroke="rgb(0,0,0)" stroke-width="80" stroke-linejoin="round" d="M 5880,6596 L 6680,6596"/>
 <path fill="none" stroke="rgb(230,159,0)" stroke-width="80" stroke-linejoin="round" d="M 9423,6596 L 10223,6596"/>
 <path fill="none" stroke="rgb(86,180,233)" stroke-width="80" stroke-linejoin="round" d="M 5880,7235 L 6680,7235"/>
 <path fill="none" stroke="rgb(0,158,115)" stroke-width="80" stroke-linejoin="round" d="M 9423,7235 L 10223,7235"/>
 <path fill="none" stroke="rgb(240,228,66)" stroke-width="80" stroke-linejoin="round" d="M 5880,7874 L 6680,7874"/>
 <path fill="none" stroke="rgb(213,94,0)" stroke-width="80" stroke-linejoin="round" d="M 9423,7874 L 10223,7874"/>
 <text class="TextShape"><tspan class="TextParagraph" font-family="Latin Modern Roman" font-size="353px" font-weight="400"><tspan class="TextPosition" x="6780" y="6742"><tspan fill="rgb(0,0,0)" stroke="none">Moyenne</tspan></tspan></tspan></text>
 <text class="TextShape"><tspan class="TextParagraph" font-family="Latin Modern Roman" font-size="353px" font-weight="400"><tspan class="TextPosition" x="10323" y="6742"><tspan fill="rgb(0,0,0)" stroke="none">Échantillon 1</tspan></tspan></tspan></text>
 <text class="TextShape"><tspan class="TextParagraph" font-family="Latin Modern Roman" font-size="353px" font-weight="400"><tspan class="TextPosition" x="6780" y="7381"><tspan fill="rgb(0,0,0)" stroke="none">Échantillon 2</tspan></tspan></tspan></text>
 <text class="TextShape"><tspan class="TextParagraph" font-family="Latin Modern Roman" font-size="353px" font-weight="400"><tspan class="TextPosition" x="10323" y="7381"><tspan fill="rgb(0,0,0)" stroke="none">Échantillon 3</tspan></tspan></tspan></text>
 <text class="TextShape"><tspan class="TextParagraph" font-family="Latin Modern Roman" font-size="353px" font-weight="400"><tspan class="TextPosition" x="6780" y="8020"><tspan fill="rgb(0,0,0)" stroke="none">Échantillon 4</tspan></tspan></tspan></text>
 <text class="TextShape"><tspan class="TextParagraph" font-family="Latin Modern Roman" font-size="353px" font-weight="400"><tspan class="TextPosition" x="10323" y="8020"><tspan fill="rgb(0,0,0)" stroke="none">Échantillon 5</tspan></tspan></tspan></text>
 <text class="TextShape"><tspan class="TextParagraph" font-family="Latin Modern Roman" font-size="423px" font-weight="400"><tspan class="TextPosition" x="5997" y="10200"><tspan fill="rgb(0,0,0)" stroke="none">Déformation [%]</tspan></tspan></tspan></text>
 <text class="TextShape" transform="rotate(-90 646 6387)"><tspan class="TextParagraph" font-family="Latin Modern Roman" font-size="423px" font-weight="400"><tspan class="TextPosition" x="646" y="6387"><tspan fill="rgb(0,0,0)" stroke="none">Contrainte [MPa]</tspan></tspan></tspan></text>
</svg>