<?xml version="1.0" encoding="UTF-8"?>
<!DOCTYPE svg PUBLIC "-//W3C//DTD SVG 1.1//EN" "http://www.w3.org/Graphics/SVG/1.1/DTD/svg11.dtd">
<svg width="154mm" height="134mm" viewBox="0 0 15400 13400" version="1.1" xmlns="http://www.w3.org/2000/svg" xmlns:xlink="http://www.w3.org/1999/xlink" stroke-width="28.222" stroke-linejoin="round" xml:space="preserve">
 <path fill="rgb(255,255,255)" stroke="none" d="M 7719,13413 L 0,13413 0,0 15437,0 15437,13413 7719,13413 Z"/>
 <path fill="none" stroke="rgb(0,0,0)" stroke-linejoin="round" d="M 8737,9732 L 2354,9732 2354,700 15121,700 15121,9732 8737,9732 Z"/>
 <path fill="none" stroke="rgb(0,0,0)" stroke-linejoin="round" d="M 2354,9881 L 2354,9731"/>
 <path fill="none" stroke="rgb(0,0,0)" stroke-linejoin="round" d="M 2354,9881 L 2354,9731"/>
 <path fill="none" stroke="rgb(0,0,0)" stroke-linejoin="round" d="M 4178,9881 L 4178,9731"/>
 <path fill="none" stroke="rgb(0,0,0)" stroke-linejoin="round" d="M 4178,9881 L 4178,9731"/>
 <path fill="none" stroke="rgb(0,0,0)" stroke-linejoin="round" d="M 6002,9881 L 6002,9731"/>
 <path fill="none" stroke="rgb(0,0,0)" stroke-linejoin="round" d="M 6002,9881 L 6002,9731"/>
 <path fill="none" stroke="rgb(0,0,0)" stroke-linejoin="round" d="M 7825,9881 L 7825,9731"/>
 <path fill="none" stroke="rgb(0,0,0)" stroke-linejoin="round" d="M 7825,9881 L 7825,9731"/>
 <path fill="none" stroke="rgb(0,0,0)" stroke-linejoin="round" d="M 9649,9881 L 9649,9731"/>
 <path fill="none" stroke="rgb(0,0,0)" stroke-linejoin="round" d="M 9649,9881 L 9649,9731"/>
 <path fill="none" stroke="rgb(0,0,0)" stroke-linejoin="round" d="M 11472,9881 L 11472,9731"/>
 <path fill="none" stroke="rgb(0,0,0)" stroke-linejoin="round" d="M 11472,9881 L 11472,9731"/>
 <path fill="none" stroke="rgb(0,0,0)" stroke-linejoin="round" d="M 13297,9881 L 13297,9731"/>
 <path fill="none" stroke="rgb(0,0,0)" stroke-linejoin="round" d="M 13297,9881 L 13297,9731"/>
 <path fill="none" stroke="rgb(0,0,0)" stroke-linejoin="round" d="M 15121,9881 L 15121,9731"/>
 <path fill="none" stroke="rgb(0,0,0)" stroke-linejoin="round" d="M 15121,9881 L 15121,9731"/>
 <path fill="none" stroke="rgb(0,0,0)" stroke-linejoin="round" d="M 2354,9731 L 15121,9731"/>
 <path fill="none" stroke="rgb(0,0,0)" stroke-linejoin="round" d="M 2204,9731 L 2354,9731"/>
 <path fill="none" stroke="rgb(0,0,0)" stroke-linejoin="round" d="M 2204,9731 L 2354,9731"/>
 <path fill="none" stroke="rgb(0,0,0)" stroke-linejoin="round" d="M 2204,8341 L 2354,8341"/>
 <path fill="none" stroke="rgb(0,0,0)" stroke-linejoin="round" d="M 2204,8341 L 2354,8341"/>
 <path fill="none" stroke="rgb(0,0,0)" stroke-linejoin="round" d="M 2204,6951 L 2354,6951"/>
 <path fill="none" stroke="rgb(0,0,0)" stroke-linejoin="round" d="M 2204,6951 L 2354,6951"/>
 <path fill="none" stroke="rgb(0,0,0)" stroke-linejoin="round" d="M 2204,5562 L 2354,5562"/>
 <path fill="none" stroke="rgb(0,0,0)" stroke-linejoin="round" d="M 2204,5562 L 2354,5562"/>
 <path fill="none" stroke="rgb(0,0,0)" stroke-linejoin="round" d="M 2204,4173 L 2354,4173"/>
 <path fill="none" stroke="rgb(0,0,0)" stroke-linejoin="round" d="M 2204,4173 L 2354,4173"/>
 <path fill="none" stroke="rgb(0,0,0)" stroke-linejoin="round" d="M 2204,2783 L 2354,2783"/>
 <path fill="none" stroke="rgb(0,0,0)" stroke-linejoin="round" d="M 2204,2783 L 2354,2783"/>
 <path fill="none" stroke="rgb(0,0,0)" stroke-linejoin="round" d="M 2204,1393 L 2354,1393"/>
 <path fill="none" stroke="rgb(0,0,0)" stroke-linejoin="round" d="M 2204,1393 L 2354,1393"/>
 <path fill="none" stroke="rgb(0,0,0)" stroke-linejoin="round" d="M 2354,9731 L 2354,699"/>
 <path fill="rgb(204,204,204)" stroke="none" d="M 13753,9731 L 14665,9731 14665,9730 13753,9730 13753,9731 Z"/>
 <path fill="none" stroke="rgb(0,0,0)" stroke-linejoin="round" d="M 13753,9731 L 14665,9731 14665,9730 13753,9730 13753,9731 Z"/>
 <path fill="rgb(204,204,204)" stroke="none" d="M 11929,9731 L 12841,9731 12841,9702 11929,9702 11929,9731 Z"/>
 <path fill="none" stroke="rgb(0,0,0)" stroke-linejoin="round" d="M 11929,9731 L 12841,9731 12841,9702 11929,9702 11929,9731 Z"/>
 <path fill="rgb(204,204,204)" stroke="none" d="M 10105,9731 L 11017,9731 11017,8126 10105,8126 10105,9731 Z"/>
 <path fill="none" stroke="rgb(0,0,0)" stroke-linejoin="round" d="M 10105,9731 L 11017,9731 11017,8126 10105,8126 10105,9731 Z"/>
 <path fill="rgb(204,204,204)" stroke="none" d="M 8281,9731 L 9193,9731 9193,6334 8281,6334 8281,9731 Z"/>
 <path fill="none" stroke="rgb(0,0,0)" stroke-linejoin="round" d="M 8281,9731 L 9193,9731 9193,6334 8281,6334 8281,9731 Z"/>
 <path fill="rgb(204,204,204)" stroke="none" d="M 6458,9731 L 7370,9731 7370,7884 6458,7884 6458,9731 Z"/>
 <path fill="none" stroke="rgb(0,0,0)" stroke-linejoin="round" d="M 6458,9731 L 7370,9731 7370,7884 6458,7884 6458,9731 Z"/>
 <path fill="rgb(204,204,204)" stroke="none" d="M 4634,9731 L 5546,9731 5546,4231 4634,4231 4634,9731 Z"/>
 <path fill="none" stroke="rgb(0,0,0)" stroke-linejoin="round" d="M 4634,9731 L 5546,9731 5546,4231 4634,4231 4634,9731 Z"/>
 <path fill="rgb(204,204,204)" stroke="none" d="M 2810,9731 L 3722,9731 3722,3331 2810,3331 2810,9731 Z"/>
 <path fill="none" stroke="rgb(0,0,0)" stroke-linejoin="round" d="M 2810,9731 L 3722,9731 3722,3331 2810,3331 2810,9731 Z"/>
 <path fill="none" stroke="rgb(0,0,0)" stroke-linejoin="round" d="M 3266,5411 L 3266,3331 3266,1252"/>
 <path fill="none" stroke="rgb(0,0,0)" stroke-linejoin="round" d="M 3366,5411 L 3166,5411"/>
 <path fill="none" stroke="rgb(0,0,0)" stroke-linejoin="round" d="M 3166,1252 L 3366,1252"/>
 <path fill="none" stroke="rgb(0,0,0)" stroke-linejoin="round" d="M 5090,4667 L 5090,4231 5090,3795"/>
 <path fill="none" stroke="rgb(0,0,0)" stroke-linejoin="round" d="M 5190,4667 L 4990,4667"/>
 <path fill="none" stroke="rgb(0,0,0)" stroke-linejoin="round" d="M 4990,3795 L 5190,3795"/>
 <path fill="none" stroke="rgb(0,0,0)" stroke-linejoin="round" d="M 6914,8438 L 6914,7884 6914,7331"/>
 <path fill="none" stroke="rgb(0,0,0)" stroke-linejoin="round" d="M 7014,8438 L 6814,8438"/>
 <path fill="none" stroke="rgb(0,0,0)" stroke-linejoin="round" d="M 6814,7331 L 7014,7331"/>
 <path fill="none" stroke="rgb(0,0,0)" stroke-linejoin="round" d="M 8737,7153 L 8737,6334 8737,5514"/>
 <path fill="none" stroke="rgb(0,0,0)" stroke-linejoin="round" d="M 8837,7153 L 8637,7153"/>
 <path fill="none" stroke="rgb(0,0,0)" stroke-linejoin="round" d="M 8637,5514 L 8837,5514"/>
 <path fill="none" stroke="rgb(0,0,0)" stroke-linejoin="round" d="M 10561,9731 L 10561,8126 10561,6276"/>
 <path fill="none" stroke="rgb(0,0,0)" stroke-linejoin="round" d="M 10461,6276 L 10661,6276"/>
 <path fill="none" stroke="rgb(0,0,0)" stroke-linejoin="round" d="M 12385,9728 L 12385,9702 12385,9676"/>
 <path fill="none" stroke="rgb(0,0,0)" stroke-linejoin="round" d="M 12485,9728 L 12285,9728"/>
 <path fill="none" stroke="rgb(0,0,0)" stroke-linejoin="round" d="M 12285,9676 L 12485,9676"/>
 <path fill="none" stroke="rgb(0,0,0)" stroke-linejoin="round" d="M 14209,9730 L 14209,9730 Z"/>
 <path fill="none" stroke="rgb(0,0,0)" stroke-linejoin="round" d="M 14309,9730 L 14109,9730"/>
 <path fill="none" stroke="rgb(0,0,0)" stroke-linejoin="round" d="M 14109,9730 L 14309,9730"/>
 <text class="TextShape" transform="rotate(-44.9 468 13161)"><tspan class="TextParagraph" font-family="Latin Modern Roman" font-size="353px" font-weight="400"><tspan class="TextPosition" x="468" y="13161"><tspan fill="rgb(0,0,0)" stroke="none">PEI + 15% MWCNT 99%</tspan></tspan></tspan></text>
 <text class="TextShape" transform="rotate(-44.9 2292 13161)"><tspan class="TextParagraph" font-family="Latin Modern Roman" font-size="353px" font-weight="400"><tspan class="TextPosition" x="2292" y="13161"><tspan fill="rgb(0,0,0)" stroke="none">PEI + 10% MWCNT 99%</tspan></tspan></tspan></text>
 <text class="TextShape" transform="rotate(-44.9 4245 13031)"><tspan class="TextParagraph" font-family="Latin Modern Roman" font-size="353px" font-weight="400"><tspan class="TextPosition" x="4245" y="13031"><tspan fill="rgb(0,0,0)" stroke="none">PEI + 5% MWCNT 99%</tspan></tspan></tspan></text>
 <text class="TextShape" transform="rotate(-44.9 5940 13161)"><tspan class="TextParagraph" font-family="Latin Modern Roman" font-size="353px" font-weight="400"><tspan class="TextPosition" x="5940" y="13161"><tspan fill="rgb(0,0,0)" stroke="none">PEI + 15% MWCNT 95%</tspan></tspan></tspan></text>
 <text class="TextShape" transform="rotate(-44.9 7764 13161)"><tspan class="TextParagraph" font-family="Latin Modern Roman" font-size="353px" font-weight="400"><tspan class="TextPosition" x="7764" y="13161"><tspan fill="rgb(0,0,0)" stroke="none">PEI + 10% MWCNT 95%</tspan></tspan></tspan></text>
 <text class="TextShape" transform="rotate(-44.9 10635 12113)"><tspan class="TextParagraph" font-family="Latin Modern Roman" font-size="353px" font-weight="400"><tspan class="TextPosition" x="10635" y="12113"><tspan fill="rgb(0,0,0)" stroke="none">PEI + 15% CNF</tspan></tspan></tspan></text>
 <text class="TextShape" transform="rotate(-44.9 12326 12245)"><tspan class="TextParagraph" font-family="Latin Modern Roman" font-size="353px" font-weight="400"><tspan class="TextPosition" x="12326" y="12245"><tspan fill="rgb(0,0,0)" stroke="none">PEI + 15% XGnP</tspan></tspan></tspan></text>
 <text class="TextShape"><tspan class="TextParagraph" font-family="Latin Modern Roman" font-size="353px" font-weight="400"><tspan class="TextPosition" x="1919" y="9878"><tspan fill="rgb(0,0,0)" stroke="none">0</tspan></tspan></tspan></text>
 <text class="TextShape"><tspan class="TextParagraph" font-family="Latin Modern Roman" font-size="353px" font-weight="400"><tspan class="TextPosition" x="1628" y="8488"><tspan fill="rgb(0,0,0)" stroke="none">0,2</tspan></tspan></tspan></text>
 <text class="TextShape"><tspan class="TextParagraph" font-family="Latin Modern Roman" font-size="353px" font-weight="400"><tspan class="TextPosition" x="1628" y="7098"><tspan fill="rgb(0,0,0)" stroke="none">0,4</tspan></tspan></tspan></text>
 <text class="TextShape"><tspan class="TextParagraph" font-family="Latin Modern Roman" font-size="353px" font-weight="400"><tspan class="TextPosition" x="1628" y="5708"><tspan fill="rgb(0,0,0)" stroke="none">0,6</tspan></tspan></tspan></text>
 <text class="TextShape"><tspan class="TextParagraph" font-family="Latin Modern Roman" font-size="353px" font-weight="400"><tspan class="TextPosition" x="1628" y="4319"><tspan fill="rgb(0,0,0)" stroke="none">0,8</tspan></tspan></tspan></text>
 <text class="TextShape"><tspan class="TextParagraph" font-family="Latin Modern Roman" font-size="353px" font-weight="400"><tspan class="TextPosition" x="1919" y="2929"><tspan fill="rgb(0,0,0)" stroke="none">1</tspan></tspan></tspan></text>
 <text class="TextShape"><tspan class="TextParagraph" font-family="Latin Modern Roman" font-size="353px" font-weight="400"><tspan class="TextPosition" x="1628" y="1539"><tspan fill="rgb(0,0,0)" stroke="none">1,2</tspan></tspan></tspan></text>
 <text class="TextShape" transform="rotate(-90 954 6808)"><tspan class="TextParagraph" font-family="Latin Modern Roman" font-size="423px" font-weight="400"><tspan class="TextPosition" x="954" y="6808"><tspan fill="rgb(0,0,0)" stroke="none">σ [S/cm]</tspan></tspan></tspan></text>
</svg>