<?xml version="1.0" encoding="UTF-8" standalone="no"?>
<svg
   xmlns:dc="http://purl.org/dc/elements/1.1/"
   xmlns:cc="http://creativecommons.org/ns#"
   xmlns:rdf="http://www.w3.org/1999/02/22-rdf-syntax-ns#"
   xmlns:svg="http://www.w3.org/2000/svg"
   xmlns="http://www.w3.org/2000/svg"
   xmlns:sodipodi="http://sodipodi.sourceforge.net/DTD/sodipodi-0.dtd"
   xmlns:inkscape="http://www.inkscape.org/namespaces/inkscape"
   width="154mm"
   height="134mm"
   viewBox="0 0 15400 13400"
   version="1.1"
   stroke-width="28.222"
   stroke-linejoin="round"
   xml:space="preserve"
   id="svg258"
   sodipodi:docname="conductivity_lin.svg"
   inkscape:version="0.92.3 (2405546, 2018-03-11)"><metadata
   id="metadata264"><rdf:RDF><cc:Work
       rdf:about=""><dc:format>image/svg+xml</dc:format><dc:type
         rdf:resource="http://purl.org/dc/dcmitype/StillImage" /></cc:Work></rdf:RDF></metadata><defs
   id="defs262" /><sodipodi:namedview
   pagecolor="#ffffff"
   bordercolor="#666666"
   borderopacity="1"
   objecttolerance="10"
   gridtolerance="10"
   guidetolerance="10"
   inkscape:pageopacity="0"
   inkscape:pageshadow="2"
   inkscape:window-width="1920"
   inkscape:window-height="1027"
   id="namedview260"
   showgrid="false"
   inkscape:zoom="1.8639303"
   inkscape:cx="204.01346"
   inkscape:cy="176.12312"
   inkscape:window-x="0"
   inkscape:window-y="0"
   inkscape:window-maximized="1"
   inkscape:current-layer="svg258" />
 <path
   fill="rgb(255,255,255)"
   stroke="none"
   d="M 7719,13413 L 0,13413 0,0 15437,0 15437,13413 7719,13413 Z"
   id="path2" />
 <path
   fill="none"
   stroke="rgb(0,0,0)"
   stroke-linejoin="round"
   d="M 8737,9732 L 2354,9732 2354,700 15121,700 15121,9732 8737,9732 Z"
   id="path4" />
 <path
   fill="none"
   stroke="rgb(0,0,0)"
   stroke-linejoin="round"
   d="M 2354,9881 L 2354,9731"
   id="path6" />
 <path
   fill="none"
   stroke="rgb(0,0,0)"
   stroke-linejoin="round"
   d="M 2354,9881 L 2354,9731"
   id="path8" />
 <path
   fill="none"
   stroke="rgb(0,0,0)"
   stroke-linejoin="round"
   d="M 4178,9881 L 4178,9731"
   id="path10" />
 <path
   fill="none"
   stroke="rgb(0,0,0)"
   stroke-linejoin="round"
   d="M 4178,9881 L 4178,9731"
   id="path12" />
 <path
   fill="none"
   stroke="rgb(0,0,0)"
   stroke-linejoin="round"
   d="M 6002,9881 L 6002,9731"
   id="path14" />
 <path
   fill="none"
   stroke="rgb(0,0,0)"
   stroke-linejoin="round"
   d="M 6002,9881 L 6002,9731"
   id="path16" />
 <path
   fill="none"
   stroke="rgb(0,0,0)"
   stroke-linejoin="round"
   d="M 7825,9881 L 7825,9731"
   id="path18" />
 <path
   fill="none"
   stroke="rgb(0,0,0)"
   stroke-linejoin="round"
   d="M 7825,9881 L 7825,9731"
   id="path20" />
 <path
   fill="none"
   stroke="rgb(0,0,0)"
   stroke-linejoin="round"
   d="M 9649,9881 L 9649,9731"
   id="path22" />
 <path
   fill="none"
   stroke="rgb(0,0,0)"
   stroke-linejoin="round"
   d="M 9649,9881 L 9649,9731"
   id="path24" />
 <path
   fill="none"
   stroke="rgb(0,0,0)"
   stroke-linejoin="round"
   d="M 11472,9881 L 11472,9731"
   id="path26" />
 <path
   fill="none"
   stroke="rgb(0,0,0)"
   stroke-linejoin="round"
   d="M 11472,9881 L 11472,9731"
   id="path28" />
 <path
   fill="none"
   stroke="rgb(0,0,0)"
   stroke-linejoin="round"
   d="M 13297,9881 L 13297,9731"
   id="path30" />
 <path
   fill="none"
   stroke="rgb(0,0,0)"
   stroke-linejoin="round"
   d="M 13297,9881 L 13297,9731"
   id="path32" />
 <path
   fill="none"
   stroke="rgb(0,0,0)"
   stroke-linejoin="round"
   d="M 15121,9881 L 15121,9731"
   id="path34" />
 <path
   fill="none"
   stroke="rgb(0,0,0)"
   stroke-linejoin="round"
   d="M 15121,9881 L 15121,9731"
   id="path36" />
 <path
   fill="none"
   stroke="rgb(0,0,0)"
   stroke-linejoin="round"
   d="M 2354,9731 L 15121,9731"
   id="path38" />
 <path
   fill="none"
   stroke="rgb(0,0,0)"
   stroke-linejoin="round"
   d="M 2204,9731 L 2354,9731"
   id="path40" />
 <path
   fill="none"
   stroke="rgb(0,0,0)"
   stroke-linejoin="round"
   d="M 2204,9731 L 2354,9731"
   id="path42" />
 <path
   fill="none"
   stroke="rgb(0,0,0)"
   stroke-linejoin="round"
   d="M 2204,8341 L 2354,8341"
   id="path44" />
 <path
   fill="none"
   stroke="rgb(0,0,0)"
   stroke-linejoin="round"
   d="M 2204,8341 L 2354,8341"
   id="path46" />
 <path
   fill="none"
   stroke="rgb(0,0,0)"
   stroke-linejoin="round"
   d="M 2204,6951 L 2354,6951"
   id="path48" />
 <path
   fill="none"
   stroke="rgb(0,0,0)"
   stroke-linejoin="round"
   d="M 2204,6951 L 2354,6951"
   id="path50" />
 <path
   fill="none"
   stroke="rgb(0,0,0)"
   stroke-linejoin="round"
   d="M 2204,5562 L 2354,5562"
   id="path52" />
 <path
   fill="none"
   stroke="rgb(0,0,0)"
   stroke-linejoin="round"
   d="M 2204,5562 L 2354,5562"
   id="path54" />
 <path
   fill="none"
   stroke="rgb(0,0,0)"
   stroke-linejoin="round"
   d="M 2204,4173 L 2354,4173"
   id="path56" />
 <path
   fill="none"
   stroke="rgb(0,0,0)"
   stroke-linejoin="round"
   d="M 2204,4173 L 2354,4173"
   id="path58" />
 <path
   fill="none"
   stroke="rgb(0,0,0)"
   stroke-linejoin="round"
   d="M 2204,2783 L 2354,2783"
   id="path60" />
 <path
   fill="none"
   stroke="rgb(0,0,0)"
   stroke-linejoin="round"
   d="M 2204,2783 L 2354,2783"
   id="path62" />
 <path
   fill="none"
   stroke="rgb(0,0,0)"
   stroke-linejoin="round"
   d="M 2204,1393 L 2354,1393"
   id="path64" />
 <path
   fill="none"
   stroke="rgb(0,0,0)"
   stroke-linejoin="round"
   d="M 2204,1393 L 2354,1393"
   id="path66" />
 <path
   fill="none"
   stroke="rgb(0,0,0)"
   stroke-linejoin="round"
   d="M 2354,9731 L 2354,699"
   id="path68" />
 <path
   fill="rgb(204,204,204)"
   stroke="none"
   d="M 13753,9731 L 14665,9731 14665,9730 13753,9730 13753,9731 Z"
   id="path70" />
 <path
   fill="none"
   stroke="rgb(0,0,0)"
   stroke-linejoin="round"
   d="M 13753,9731 L 14665,9731 14665,9730 13753,9730 13753,9731 Z"
   id="path72" />
 <path
   fill="rgb(204,204,204)"
   stroke="none"
   d="M 11929,9731 L 12841,9731 12841,9702 11929,9702 11929,9731 Z"
   id="path74" />
 <path
   fill="none"
   stroke="rgb(0,0,0)"
   stroke-linejoin="round"
   d="M 11929,9731 L 12841,9731 12841,9702 11929,9702 11929,9731 Z"
   id="path76" />
 <path
   fill="rgb(204,204,204)"
   stroke="none"
   d="M 10105,9731 L 11017,9731 11017,8126 10105,8126 10105,9731 Z"
   id="path78" />
 <path
   fill="none"
   stroke="rgb(0,0,0)"
   stroke-linejoin="round"
   d="M 10105,9731 L 11017,9731 11017,8126 10105,8126 10105,9731 Z"
   id="path80" />
 <path
   fill="rgb(204,204,204)"
   stroke="none"
   d="M 8281,9731 L 9193,9731 9193,6334 8281,6334 8281,9731 Z"
   id="path82" />
 <path
   fill="none"
   stroke="rgb(0,0,0)"
   stroke-linejoin="round"
   d="M 8281,9731 L 9193,9731 9193,6334 8281,6334 8281,9731 Z"
   id="path84" />
 <path
   fill="rgb(204,204,204)"
   stroke="none"
   d="M 6458,9731 L 7370,9731 7370,7884 6458,7884 6458,9731 Z"
   id="path86" />
 <path
   fill="none"
   stroke="rgb(0,0,0)"
   stroke-linejoin="round"
   d="M 6458,9731 L 7370,9731 7370,7884 6458,7884 6458,9731 Z"
   id="path88" />
 <path
   fill="rgb(204,204,204)"
   stroke="none"
   d="M 4634,9731 L 5546,9731 5546,4231 4634,4231 4634,9731 Z"
   id="path90" />
 <path
   fill="none"
   stroke="rgb(0,0,0)"
   stroke-linejoin="round"
   d="M 4634,9731 L 5546,9731 5546,4231 4634,4231 4634,9731 Z"
   id="path92" />
 <path
   fill="rgb(204,204,204)"
   stroke="none"
   d="M 2810,9731 L 3722,9731 3722,3331 2810,3331 2810,9731 Z"
   id="path94" />
 <path
   fill="none"
   stroke="rgb(0,0,0)"
   stroke-linejoin="round"
   d="M 2810,9731 L 3722,9731 3722,3331 2810,3331 2810,9731 Z"
   id="path96" />
 <path
   fill="none"
   stroke="rgb(0,0,0)"
   stroke-linejoin="round"
   d="M 3266,5411 L 3266,3331 3266,1252"
   id="path98" />
 <path
   fill="none"
   stroke="rgb(0,0,0)"
   stroke-linejoin="round"
   d="M 3366,5411 L 3166,5411"
   id="path100" />
 <path
   fill="none"
   stroke="rgb(0,0,0)"
   stroke-linejoin="round"
   d="M 3166,1252 L 3366,1252"
   id="path102" />
 <path
   fill="none"
   stroke="rgb(0,0,0)"
   stroke-linejoin="round"
   d="M 5090,4667 L 5090,4231 5090,3795"
   id="path104" />
 <path
   fill="none"
   stroke="rgb(0,0,0)"
   stroke-linejoin="round"
   d="M 5190,4667 L 4990,4667"
   id="path106" />
 <path
   fill="none"
   stroke="rgb(0,0,0)"
   stroke-linejoin="round"
   d="M 4990,3795 L 5190,3795"
   id="path108" />
 <path
   fill="none"
   stroke="rgb(0,0,0)"
   stroke-linejoin="round"
   d="M 6914,8438 L 6914,7884 6914,7331"
   id="path110" />
 <path
   fill="none"
   stroke="rgb(0,0,0)"
   stroke-linejoin="round"
   d="M 7014,8438 L 6814,8438"
   id="path112" />
 <path
   fill="none"
   stroke="rgb(0,0,0)"
   stroke-linejoin="round"
   d="M 6814,7331 L 7014,7331"
   id="path114" />
 <path
   fill="none"
   stroke="rgb(0,0,0)"
   stroke-linejoin="round"
   d="M 8737,7153 L 8737,6334 8737,5514"
   id="path116" />
 <path
   fill="none"
   stroke="rgb(0,0,0)"
   stroke-linejoin="round"
   d="M 8837,7153 L 8637,7153"
   id="path118" />
 <path
   fill="none"
   stroke="rgb(0,0,0)"
   stroke-linejoin="round"
   d="M 8637,5514 L 8837,5514"
   id="path120" />
 <path
   fill="none"
   stroke="rgb(0,0,0)"
   stroke-linejoin="round"
   d="M 10561,9731 L 10561,8126 10561,6276"
   id="path122" />
 <path
   fill="none"
   stroke="rgb(0,0,0)"
   stroke-linejoin="round"
   d="M 10461,6276 L 10661,6276"
   id="path124" />
 <path
   fill="none"
   stroke="rgb(0,0,0)"
   stroke-linejoin="round"
   d="M 12385,9728 L 12385,9702 12385,9676"
   id="path126" />
 <path
   fill="none"
   stroke="rgb(0,0,0)"
   stroke-linejoin="round"
   d="M 12485,9728 L 12285,9728"
   id="path128" />
 <path
   fill="none"
   stroke="rgb(0,0,0)"
   stroke-linejoin="round"
   d="M 12285,9676 L 12485,9676"
   id="path130" />
 <path
   fill="none"
   stroke="rgb(0,0,0)"
   stroke-linejoin="round"
   d="M 14209,9730 L 14209,9730 Z"
   id="path132" />
 <path
   fill="none"
   stroke="rgb(0,0,0)"
   stroke-linejoin="round"
   d="M 14309,9730 L 14109,9730"
   id="path134" />
 <path
   fill="none"
   stroke="rgb(0,0,0)"
   stroke-linejoin="round"
   d="M 14109,9730 L 14309,9730"
   id="path136" />
 <text
   class="TextShape"
   transform="rotate(-44.9 468 13161)"
   id="text144"><tspan
     class="TextParagraph"
     font-family="Latin Modern Roman"
     font-size="353px"
     font-weight="400"
     id="tspan142"><tspan
       class="TextPosition"
       x="468"
       y="13161"
       id="tspan140"><tspan
         fill="rgb(0,0,0)"
         stroke="none"
         id="tspan138">PEI + 15% MWCNT 99%</tspan></tspan></tspan></text>

 <text
   class="TextShape"
   transform="rotate(-44.9 2292 13161)"
   id="text152"><tspan
     class="TextParagraph"
     font-family="Latin Modern Roman"
     font-size="353px"
     font-weight="400"
     id="tspan150"><tspan
       class="TextPosition"
       x="2292"
       y="13161"
       id="tspan148"><tspan
         fill="rgb(0,0,0)"
         stroke="none"
         id="tspan146">PEI + 10% MWCNT 99%</tspan></tspan></tspan></text>

 <text
   class="TextShape"
   transform="rotate(-44.9 4245 13031)"
   id="text160"><tspan
     class="TextParagraph"
     font-family="Latin Modern Roman"
     font-size="353px"
     font-weight="400"
     id="tspan158"><tspan
       class="TextPosition"
       x="4245"
       y="13031"
       id="tspan156"><tspan
         fill="rgb(0,0,0)"
         stroke="none"
         id="tspan154">PEI + 5% MWCNT 99%</tspan></tspan></tspan></text>

 <text
   class="TextShape"
   transform="rotate(-44.9 5940 13161)"
   id="text168"><tspan
     class="TextParagraph"
     font-family="Latin Modern Roman"
     font-size="353px"
     font-weight="400"
     id="tspan166"><tspan
       class="TextPosition"
       x="5940"
       y="13161"
       id="tspan164"><tspan
         fill="rgb(0,0,0)"
         stroke="none"
         id="tspan162">PEI + 15% MWCNT 95%</tspan></tspan></tspan></text>

 <text
   class="TextShape"
   transform="rotate(-44.9 7764 13161)"
   id="text176"><tspan
     class="TextParagraph"
     font-family="Latin Modern Roman"
     font-size="353px"
     font-weight="400"
     id="tspan174"><tspan
       class="TextPosition"
       x="7764"
       y="13161"
       id="tspan172"><tspan
         fill="rgb(0,0,0)"
         stroke="none"
         id="tspan170">PEI + 10% MWCNT 95%</tspan></tspan></tspan></text>

 <text
   class="TextShape"
   transform="rotate(-44.9 10635 12113)"
   id="text184"><tspan
     class="TextParagraph"
     font-family="Latin Modern Roman"
     font-size="353px"
     font-weight="400"
     id="tspan182"><tspan
       class="TextPosition"
       x="10635"
       y="12113"
       id="tspan180"><tspan
         fill="rgb(0,0,0)"
         stroke="none"
         id="tspan178">PEI + 15% CNF</tspan></tspan></tspan></text>

 <text
   class="TextShape"
   transform="rotate(-44.9 12326 12245)"
   id="text192"><tspan
     class="TextParagraph"
     font-family="Latin Modern Roman"
     font-size="353px"
     font-weight="400"
     id="tspan190"><tspan
       class="TextPosition"
       x="12326"
       y="12245"
       id="tspan188"><tspan
         fill="rgb(0,0,0)"
         stroke="none"
         id="tspan186">PEI + 15% XGnP</tspan></tspan></tspan></text>

 <text
   class="TextShape"
   id="text200"><tspan
     class="TextParagraph"
     font-family="Latin Modern Roman"
     font-size="353px"
     font-weight="400"
     id="tspan198"><tspan
       class="TextPosition"
       x="1919"
       y="9878"
       id="tspan196"><tspan
         fill="rgb(0,0,0)"
         stroke="none"
         id="tspan194">0</tspan></tspan></tspan></text>

 <text
   class="TextShape"
   id="text208"><tspan
     class="TextParagraph"
     font-family="Latin Modern Roman"
     font-size="353px"
     font-weight="400"
     id="tspan206"><tspan
       class="TextPosition"
       x="1628"
       y="8488"
       id="tspan204"><tspan
         fill="rgb(0,0,0)"
         stroke="none"
         id="tspan202">0,2</tspan></tspan></tspan></text>

 <text
   class="TextShape"
   id="text216"><tspan
     class="TextParagraph"
     font-family="Latin Modern Roman"
     font-size="353px"
     font-weight="400"
     id="tspan214"><tspan
       class="TextPosition"
       x="1628"
       y="7098"
       id="tspan212"><tspan
         fill="rgb(0,0,0)"
         stroke="none"
         id="tspan210">0,4</tspan></tspan></tspan></text>

 <text
   class="TextShape"
   id="text224"><tspan
     class="TextParagraph"
     font-family="Latin Modern Roman"
     font-size="353px"
     font-weight="400"
     id="tspan222"><tspan
       class="TextPosition"
       x="1628"
       y="5708"
       id="tspan220"><tspan
         fill="rgb(0,0,0)"
         stroke="none"
         id="tspan218">0,6</tspan></tspan></tspan></text>

 <text
   class="TextShape"
   id="text232"><tspan
     class="TextParagraph"
     font-family="Latin Modern Roman"
     font-size="353px"
     font-weight="400"
     id="tspan230"><tspan
       class="TextPosition"
       x="1628"
       y="4319"
       id="tspan228"><tspan
         fill="rgb(0,0,0)"
         stroke="none"
         id="tspan226">0,8</tspan></tspan></tspan></text>

 <text
   class="TextShape"
   id="text240"><tspan
     class="TextParagraph"
     font-family="Latin Modern Roman"
     font-size="353px"
     font-weight="400"
     id="tspan238"><tspan
       class="TextPosition"
       x="1919"
       y="2929"
       id="tspan236"><tspan
         fill="rgb(0,0,0)"
         stroke="none"
         id="tspan234">1</tspan></tspan></tspan></text>

 <text
   class="TextShape"
   id="text248"><tspan
     class="TextParagraph"
     font-family="Latin Modern Roman"
     font-size="353px"
     font-weight="400"
     id="tspan246"><tspan
       class="TextPosition"
       x="1628"
       y="1539"
       id="tspan244"><tspan
         fill="rgb(0,0,0)"
         stroke="none"
         id="tspan242">1,2</tspan></tspan></tspan></text>

 <text
   class="TextShape"
   transform="rotate(-90,954,6808)"
   id="text256"><tspan
     class="TextParagraph"
     font-size="423px"
     font-weight="400"
     id="tspan254"
     style="font-weight:400;font-size:423px;font-family:'Latin Modern Roman'"><tspan
       class="TextPosition"
       x="954"
       y="6808"
       id="tspan252"><tspan
         id="tspan250"
         style="fill:#000000;stroke:none">σ<tspan
   style="-inkscape-font-specification:'Latin Modern Roman, Normal';font-family:'Latin Modern Roman';font-weight:normal;font-style:normal;font-stretch:normal;font-variant:normal;font-size:282.22222227px;text-anchor:start;text-align:start;writing-mode:lr;font-variant-ligatures:normal;font-variant-caps:normal;font-variant-numeric:normal;font-feature-settings:normal"
   id="tspan1071">ele</tspan> [S/cm]</tspan></tspan></tspan></text>

</svg>