<?xml version="1.0" encoding="UTF-8"?>
<!DOCTYPE svg PUBLIC "-//W3C//DTD SVG 1.1//EN" "http://www.w3.org/Graphics/SVG/1.1/DTD/svg11.dtd">
<svg width="173mm" height="109mm" viewBox="0 0 17300 10900" version="1.1" xmlns="http://www.w3.org/2000/svg" xmlns:xlink="http://www.w3.org/1999/xlink" stroke-width="28.222" stroke-linejoin="round" xml:space="preserve">
 <path fill="rgb(255,255,255)" stroke="none" d="M 8667,10851 L 0,10851 0,0 17334,0 17334,10851 8667,10851 Z"/>
 <path fill="none" stroke="rgb(0,0,0)" stroke-linejoin="round" d="M 9754,8237 L 2853,8237 2853,576 16656,576 16656,8237 9754,8237 Z"/>
 <path fill="none" stroke="rgb(0,0,0)" stroke-linejoin="round" d="M 2853,8386 L 2853,8236"/>
 <path fill="none" stroke="rgb(0,0,0)" stroke-linejoin="round" d="M 2853,8386 L 2853,8236"/>
 <path fill="none" stroke="rgb(0,0,0)" stroke-linejoin="round" d="M 5153,8386 L 5153,8236"/>
 <path fill="none" stroke="rgb(0,0,0)" stroke-linejoin="round" d="M 5153,8386 L 5153,8236"/>
 <path fill="none" stroke="rgb(0,0,0)" stroke-linejoin="round" d="M 7454,8386 L 7454,8236"/>
 <path fill="none" stroke="rgb(0,0,0)" stroke-linejoin="round" d="M 7454,8386 L 7454,8236"/>
 <path fill="none" stroke="rgb(0,0,0)" stroke-linejoin="round" d="M 9754,8386 L 9754,8236"/>
 <path fill="none" stroke="rgb(0,0,0)" stroke-linejoin="round" d="M 9754,8386 L 9754,8236"/>
 <path fill="none" stroke="rgb(0,0,0)" stroke-linejoin="round" d="M 12054,8386 L 12054,8236"/>
 <path fill="none" stroke="rgb(0,0,0)" stroke-linejoin="round" d="M 12054,8386 L 12054,8236"/>
 <path fill="none" stroke="rgb(0,0,0)" stroke-linejoin="round" d="M 14355,8386 L 14355,8236"/>
 <path fill="none" stroke="rgb(0,0,0)" stroke-linejoin="round" d="M 14355,8386 L 14355,8236"/>
 <path fill="none" stroke="rgb(0,0,0)" stroke-linejoin="round" d="M 16656,8386 L 16656,8236"/>
 <path fill="none" stroke="rgb(0,0,0)" stroke-linejoin="round" d="M 16656,8386 L 16656,8236"/>
 <path fill="none" stroke="rgb(0,0,0)" stroke-linejoin="round" d="M 2853,8236 L 16656,8236"/>
 <path fill="none" stroke="rgb(0,0,0)" stroke-linejoin="round" d="M 2703,8236 L 2853,8236"/>
 <path fill="none" stroke="rgb(0,0,0)" stroke-linejoin="round" d="M 2703,8236 L 2853,8236"/>
 <path fill="none" stroke="rgb(0,0,0)" stroke-linejoin="round" d="M 2703,7141 L 2853,7141"/>
 <path fill="none" stroke="rgb(0,0,0)" stroke-linejoin="round" d="M 2703,7141 L 2853,7141"/>
 <path fill="none" stroke="rgb(0,0,0)" stroke-linejoin="round" d="M 2703,6046 L 2853,6046"/>
 <path fill="none" stroke="rgb(0,0,0)" stroke-linejoin="round" d="M 2703,6046 L 2853,6046"/>
 <path fill="none" stroke="rgb(0,0,0)" stroke-linejoin="round" d="M 2703,4953 L 2853,4953"/>
 <path fill="none" stroke="rgb(0,0,0)" stroke-linejoin="round" d="M 2703,4953 L 2853,4953"/>
 <path fill="none" stroke="rgb(0,0,0)" stroke-linejoin="round" d="M 2703,3858 L 2853,3858"/>
 <path fill="none" stroke="rgb(0,0,0)" stroke-linejoin="round" d="M 2703,3858 L 2853,3858"/>
 <path fill="none" stroke="rgb(0,0,0)" stroke-linejoin="round" d="M 2703,2764 L 2853,2764"/>
 <path fill="none" stroke="rgb(0,0,0)" stroke-linejoin="round" d="M 2703,2764 L 2853,2764"/>
 <path fill="none" stroke="rgb(0,0,0)" stroke-linejoin="round" d="M 2703,1669 L 2853,1669"/>
 <path fill="none" stroke="rgb(0,0,0)" stroke-linejoin="round" d="M 2703,1669 L 2853,1669"/>
 <path fill="none" stroke="rgb(0,0,0)" stroke-linejoin="round" d="M 2703,574 L 2853,574"/>
 <path fill="none" stroke="rgb(0,0,0)" stroke-linejoin="round" d="M 2703,574 L 2853,574"/>
 <path fill="none" stroke="rgb(0,0,0)" stroke-linejoin="round" d="M 2853,8236 L 2853,574"/>
 <path fill="none" stroke="rgb(0,0,0)" stroke-width="50" stroke-linejoin="round" d="M 4857,1056 L 6662,4664 8866,5769 10871,6330 12876,6900 13879,7107"/>
 <path fill="rgb(0,0,0)" stroke="none" d="M 4782,1056 L 4857,1131 4932,1056 4857,981 4782,1056 Z"/>
 <path fill="none" stroke="rgb(0,0,0)" stroke-linejoin="round" d="M 4782,1056 L 4857,1131 4932,1056 4857,981 4782,1056 Z"/>
 <path fill="rgb(0,0,0)" stroke="none" d="M 6587,4664 L 6662,4739 6737,4664 6662,4589 6587,4664 Z"/>
 <path fill="none" stroke="rgb(0,0,0)" stroke-linejoin="round" d="M 6587,4664 L 6662,4739 6737,4664 6662,4589 6587,4664 Z"/>
 <path fill="rgb(0,0,0)" stroke="none" d="M 8791,5769 L 8866,5844 8941,5769 8866,5694 8791,5769 Z"/>
 <path fill="none" stroke="rgb(0,0,0)" stroke-linejoin="round" d="M 8791,5769 L 8866,5844 8941,5769 8866,5694 8791,5769 Z"/>
 <path fill="rgb(0,0,0)" stroke="none" d="M 10796,6330 L 10871,6405 10946,6330 10871,6255 10796,6330 Z"/>
 <path fill="none" stroke="rgb(0,0,0)" stroke-linejoin="round" d="M 10796,6330 L 10871,6405 10946,6330 10871,6255 10796,6330 Z"/>
 <path fill="rgb(0,0,0)" stroke="none" d="M 12801,6900 L 12876,6975 12951,6900 12876,6825 12801,6900 Z"/>
 <path fill="none" stroke="rgb(0,0,0)" stroke-linejoin="round" d="M 12801,6900 L 12876,6975 12951,6900 12876,6825 12801,6900 Z"/>
 <path fill="rgb(0,0,0)" stroke="none" d="M 13804,7107 L 13879,7182 13954,7107 13879,7032 13804,7107 Z"/>
 <path fill="none" stroke="rgb(0,0,0)" stroke-linejoin="round" d="M 13804,7107 L 13879,7182 13954,7107 13879,7032 13804,7107 Z"/>
 <path fill="none" stroke="rgb(0,0,0)" stroke-linejoin="round" d="M 4857,1118 L 4857,1056 4857,994"/>
 <path fill="none" stroke="rgb(0,0,0)" stroke-linejoin="round" d="M 4957,1118 L 4757,1118"/>
 <path fill="none" stroke="rgb(0,0,0)" stroke-linejoin="round" d="M 4757,994 L 4957,994"/>
 <path fill="none" stroke="rgb(0,0,0)" stroke-linejoin="round" d="M 6662,5378 L 6662,4664 6662,3950"/>
 <path fill="none" stroke="rgb(0,0,0)" stroke-linejoin="round" d="M 6762,5378 L 6562,5378"/>
 <path fill="none" stroke="rgb(0,0,0)" stroke-linejoin="round" d="M 6562,3950 L 6762,3950"/>
 <path fill="none" stroke="rgb(0,0,0)" stroke-linejoin="round" d="M 8866,5884 L 8866,5769 8866,5654"/>
 <path fill="none" stroke="rgb(0,0,0)" stroke-linejoin="round" d="M 8966,5884 L 8766,5884"/>
 <path fill="none" stroke="rgb(0,0,0)" stroke-linejoin="round" d="M 8766,5654 L 8966,5654"/>
 <path fill="none" stroke="rgb(0,0,0)" stroke-linejoin="round" d="M 10871,6648 L 10871,6330 10871,6011"/>
 <path fill="none" stroke="rgb(0,0,0)" stroke-linejoin="round" d="M 10971,6648 L 10771,6648"/>
 <path fill="none" stroke="rgb(0,0,0)" stroke-linejoin="round" d="M 10771,6011 L 10971,6011"/>
 <path fill="none" stroke="rgb(0,0,0)" stroke-linejoin="round" d="M 12876,6996 L 12876,6900 12876,6804"/>
 <path fill="none" stroke="rgb(0,0,0)" stroke-linejoin="round" d="M 12976,6996 L 12776,6996"/>
 <path fill="none" stroke="rgb(0,0,0)" stroke-linejoin="round" d="M 12776,6804 L 12976,6804"/>
 <path fill="none" stroke="rgb(0,0,0)" stroke-linejoin="round" d="M 13879,7132 L 13879,7107 13879,7083"/>
 <path fill="none" stroke="rgb(0,0,0)" stroke-linejoin="round" d="M 13979,7132 L 13779,7132"/>
 <path fill="none" stroke="rgb(0,0,0)" stroke-linejoin="round" d="M 13779,7083 L 13979,7083"/>
 <text class="TextShape"><tspan class="TextParagraph" font-family="Latin Modern Roman" font-size="494px" font-weight="400"><tspan class="TextPosition" x="2522" y="9042"><tspan fill="rgb(0,0,0)" stroke="none">0,0</tspan></tspan></tspan></text>
 <text class="TextShape"><tspan class="TextParagraph" font-family="Latin Modern Roman" font-size="494px" font-weight="400"><tspan class="TextPosition" x="4822" y="9042"><tspan fill="rgb(0,0,0)" stroke="none">0,5</tspan></tspan></tspan></text>
 <text class="TextShape"><tspan class="TextParagraph" font-family="Latin Modern Roman" font-size="494px" font-weight="400"><tspan class="TextPosition" x="7123" y="9042"><tspan fill="rgb(0,0,0)" stroke="none">1,0</tspan></tspan></tspan></text>
 <text class="TextShape"><tspan class="TextParagraph" font-family="Latin Modern Roman" font-size="494px" font-weight="400"><tspan class="TextPosition" x="9424" y="9042"><tspan fill="rgb(0,0,0)" stroke="none">1,5</tspan></tspan></tspan></text>
 <text class="TextShape"><tspan class="TextParagraph" font-family="Latin Modern Roman" font-size="494px" font-weight="400"><tspan class="TextPosition" x="11724" y="9042"><tspan fill="rgb(0,0,0)" stroke="none">2,0</tspan></tspan></tspan></text>
 <text class="TextShape"><tspan class="TextParagraph" font-family="Latin Modern Roman" font-size="494px" font-weight="400"><tspan class="TextPosition" x="14025" y="9042"><tspan fill="rgb(0,0,0)" stroke="none">2,5</tspan></tspan></tspan></text>
 <text class="TextShape"><tspan class="TextParagraph" font-family="Latin Modern Roman" font-size="494px" font-weight="400"><tspan class="TextPosition" x="16326" y="9042"><tspan fill="rgb(0,0,0)" stroke="none">3,0</tspan></tspan></tspan></text>
 <text class="TextShape"><tspan class="TextParagraph" font-family="Latin Modern Roman" font-size="494px" font-weight="400"><tspan class="TextPosition" x="2338" y="8436"><tspan fill="rgb(0,0,0)" stroke="none">0</tspan></tspan></tspan></text>
 <text class="TextShape"><tspan class="TextParagraph" font-family="Latin Modern Roman" font-size="494px" font-weight="400"><tspan class="TextPosition" x="2074" y="7341"><tspan fill="rgb(0,0,0)" stroke="none">50</tspan></tspan></tspan></text>
 <text class="TextShape"><tspan class="TextParagraph" font-family="Latin Modern Roman" font-size="494px" font-weight="400"><tspan class="TextPosition" x="1809" y="6246"><tspan fill="rgb(0,0,0)" stroke="none">100</tspan></tspan></tspan></text>
 <text class="TextShape"><tspan class="TextParagraph" font-family="Latin Modern Roman" font-size="494px" font-weight="400"><tspan class="TextPosition" x="1809" y="5152"><tspan fill="rgb(0,0,0)" stroke="none">150</tspan></tspan></tspan></text>
 <text class="TextShape"><tspan class="TextParagraph" font-family="Latin Modern Roman" font-size="494px" font-weight="400"><tspan class="TextPosition" x="1809" y="4057"><tspan fill="rgb(0,0,0)" stroke="none">200</tspan></tspan></tspan></text>
 <text class="TextShape"><tspan class="TextParagraph" font-family="Latin Modern Roman" font-size="494px" font-weight="400"><tspan class="TextPosition" x="1809" y="2963"><tspan fill="rgb(0,0,0)" stroke="none">250</tspan></tspan></tspan></text>
 <text class="TextShape"><tspan class="TextParagraph" font-family="Latin Modern Roman" font-size="494px" font-weight="400"><tspan class="TextPosition" x="1809" y="1868"><tspan fill="rgb(0,0,0)" stroke="none">300</tspan></tspan></tspan></text>
 <text class="TextShape"><tspan class="TextParagraph" font-family="Latin Modern Roman" font-size="494px" font-weight="400"><tspan class="TextPosition" x="1809" y="773"><tspan fill="rgb(0,0,0)" stroke="none">350</tspan></tspan></tspan></text>
 <text class="TextShape"><tspan class="TextParagraph" font-family="Latin Modern Roman" font-size="494px" font-weight="400"><tspan class="TextPosition" x="6368" y="10125"><tspan fill="rgb(0,0,0)" stroke="none">Pression de contact [MPa]</tspan></tspan></tspan></text>
 <text class="TextShape" transform="rotate(-90 1155 6694)"><tspan class="TextParagraph" font-family="Latin Modern Roman" font-size="494px" font-weight="400"><tspan class="TextPosition" x="1155" y="6694"><tspan fill="rgb(0,0,0)" stroke="none">Résistance [Ohm]</tspan></tspan></tspan></text>
</svg>