<?xml version="1.0" encoding="UTF-8"?>
<!DOCTYPE svg PUBLIC "-//W3C//DTD SVG 1.1//EN" "http://www.w3.org/Graphics/SVG/1.1/DTD/svg11.dtd">
<svg width="173mm" height="109mm" viewBox="0 0 17300 10900" version="1.1" xmlns="http://www.w3.org/2000/svg" stroke-width="28.222" stroke-linejoin="round" xml:space="preserve">
 <path fill="rgb(255,255,255)" stroke="none" d="M 8669,10851 L 2,10851 2,0 17336,0 17336,10851 8669,10851 Z"/>
 <path fill="none" stroke="rgb(0,0,0)" stroke-linejoin="round" d="M 9885,8175 L 3224,8175 3224,591 16547,591 16547,8175 9885,8175 Z"/>
 <path fill="none" stroke="rgb(0,0,0)" stroke-linejoin="round" d="M 3224,8324 L 3224,8174"/>
 <path fill="none" stroke="rgb(0,0,0)" stroke-linejoin="round" d="M 3224,8324 L 3224,8174"/>
 <path fill="none" stroke="rgb(0,0,0)" stroke-linejoin="round" d="M 5444,8324 L 5444,8174"/>
 <path fill="none" stroke="rgb(0,0,0)" stroke-linejoin="round" d="M 5444,8324 L 5444,8174"/>
 <path fill="none" stroke="rgb(0,0,0)" stroke-linejoin="round" d="M 7665,8324 L 7665,8174"/>
 <path fill="none" stroke="rgb(0,0,0)" stroke-linejoin="round" d="M 7665,8324 L 7665,8174"/>
 <path fill="none" stroke="rgb(0,0,0)" stroke-linejoin="round" d="M 9885,8324 L 9885,8174"/>
 <path fill="none" stroke="rgb(0,0,0)" stroke-linejoin="round" d="M 9885,8324 L 9885,8174"/>
 <path fill="none" stroke="rgb(0,0,0)" stroke-linejoin="round" d="M 12105,8324 L 12105,8174"/>
 <path fill="none" stroke="rgb(0,0,0)" stroke-linejoin="round" d="M 12105,8324 L 12105,8174"/>
 <path fill="none" stroke="rgb(0,0,0)" stroke-linejoin="round" d="M 14326,8324 L 14326,8174"/>
 <path fill="none" stroke="rgb(0,0,0)" stroke-linejoin="round" d="M 14326,8324 L 14326,8174"/>
 <path fill="none" stroke="rgb(0,0,0)" stroke-linejoin="round" d="M 16547,8324 L 16547,8174"/>
 <path fill="none" stroke="rgb(0,0,0)" stroke-linejoin="round" d="M 16547,8324 L 16547,8174"/>
 <path fill="none" stroke="rgb(0,0,0)" stroke-linejoin="round" d="M 3224,8174 L 16547,8174"/>
 <path fill="none" stroke="rgb(0,0,0)" stroke-linejoin="round" d="M 3074,8174 L 3224,8174"/>
 <path fill="none" stroke="rgb(0,0,0)" stroke-linejoin="round" d="M 3074,8174 L 3224,8174"/>
 <path fill="none" stroke="rgb(0,0,0)" stroke-linejoin="round" d="M 3074,7090 L 3224,7090"/>
 <path fill="none" stroke="rgb(0,0,0)" stroke-linejoin="round" d="M 3074,7090 L 3224,7090"/>
 <path fill="none" stroke="rgb(0,0,0)" stroke-linejoin="round" d="M 3074,6006 L 3224,6006"/>
 <path fill="none" stroke="rgb(0,0,0)" stroke-linejoin="round" d="M 3074,6006 L 3224,6006"/>
 <path fill="none" stroke="rgb(0,0,0)" stroke-linejoin="round" d="M 3074,4924 L 3224,4924"/>
 <path fill="none" stroke="rgb(0,0,0)" stroke-linejoin="round" d="M 3074,4924 L 3224,4924"/>
 <path fill="none" stroke="rgb(0,0,0)" stroke-linejoin="round" d="M 3074,3840 L 3224,3840"/>
 <path fill="none" stroke="rgb(0,0,0)" stroke-linejoin="round" d="M 3074,3840 L 3224,3840"/>
 <path fill="none" stroke="rgb(0,0,0)" stroke-linejoin="round" d="M 3074,2757 L 3224,2757"/>
 <path fill="none" stroke="rgb(0,0,0)" stroke-linejoin="round" d="M 3074,2757 L 3224,2757"/>
 <path fill="none" stroke="rgb(0,0,0)" stroke-linejoin="round" d="M 3074,1673 L 3224,1673"/>
 <path fill="none" stroke="rgb(0,0,0)" stroke-linejoin="round" d="M 3074,1673 L 3224,1673"/>
 <path fill="none" stroke="rgb(0,0,0)" stroke-linejoin="round" d="M 3074,590 L 3224,590"/>
 <path fill="none" stroke="rgb(0,0,0)" stroke-linejoin="round" d="M 3074,590 L 3224,590"/>
 <path fill="none" stroke="rgb(0,0,0)" stroke-linejoin="round" d="M 3224,8174 L 3224,590"/>
 <path fill="none" stroke="rgb(0,0,0)" stroke-width="50" stroke-linejoin="round" d="M 5159,1066 L 6900,4638 9028,5732 10964,6287 12899,6852 13866,7057"/>
 <path fill="rgb(0,0,0)" stroke="none" d="M 5084,1066 L 5159,1141 5234,1066 5159,991 5084,1066 Z"/>
 <path fill="none" stroke="rgb(0,0,0)" stroke-linejoin="round" d="M 5084,1066 L 5159,1141 5234,1066 5159,991 5084,1066 Z"/>
 <path fill="rgb(0,0,0)" stroke="none" d="M 6825,4638 L 6900,4713 6975,4638 6900,4563 6825,4638 Z"/>
 <path fill="none" stroke="rgb(0,0,0)" stroke-linejoin="round" d="M 6825,4638 L 6900,4713 6975,4638 6900,4563 6825,4638 Z"/>
 <path fill="rgb(0,0,0)" stroke="none" d="M 8953,5732 L 9028,5807 9103,5732 9028,5657 8953,5732 Z"/>
 <path fill="none" stroke="rgb(0,0,0)" stroke-linejoin="round" d="M 8953,5732 L 9028,5807 9103,5732 9028,5657 8953,5732 Z"/>
 <path fill="rgb(0,0,0)" stroke="none" d="M 10889,6287 L 10964,6362 11039,6287 10964,6212 10889,6287 Z"/>
 <path fill="none" stroke="rgb(0,0,0)" stroke-linejoin="round" d="M 10889,6287 L 10964,6362 11039,6287 10964,6212 10889,6287 Z"/>
 <path fill="rgb(0,0,0)" stroke="none" d="M 12824,6852 L 12899,6927 12974,6852 12899,6777 12824,6852 Z"/>
 <path fill="none" stroke="rgb(0,0,0)" stroke-linejoin="round" d="M 12824,6852 L 12899,6927 12974,6852 12899,6777 12824,6852 Z"/>
 <path fill="rgb(0,0,0)" stroke="none" d="M 13791,7057 L 13866,7132 13941,7057 13866,6982 13791,7057 Z"/>
 <path fill="none" stroke="rgb(0,0,0)" stroke-linejoin="round" d="M 13791,7057 L 13866,7132 13941,7057 13866,6982 13791,7057 Z"/>
 <path fill="none" stroke="rgb(0,0,0)" stroke-linejoin="round" d="M 5159,1128 L 5159,1066 5159,1005"/>
 <path fill="none" stroke="rgb(0,0,0)" stroke-linejoin="round" d="M 5259,1128 L 5059,1128"/>
 <path fill="none" stroke="rgb(0,0,0)" stroke-linejoin="round" d="M 5059,1005 L 5259,1005"/>
 <path fill="none" stroke="rgb(0,0,0)" stroke-linejoin="round" d="M 6900,5345 L 6900,4638 6900,3931"/>
 <path fill="none" stroke="rgb(0,0,0)" stroke-linejoin="round" d="M 7000,5345 L 6800,5345"/>
 <path fill="none" stroke="rgb(0,0,0)" stroke-linejoin="round" d="M 6800,3931 L 7000,3931"/>
 <path fill="none" stroke="rgb(0,0,0)" stroke-linejoin="round" d="M 9028,5845 L 9028,5732 9028,5618"/>
 <path fill="none" stroke="rgb(0,0,0)" stroke-linejoin="round" d="M 9128,5845 L 8928,5845"/>
 <path fill="none" stroke="rgb(0,0,0)" stroke-linejoin="round" d="M 8928,5618 L 9128,5618"/>
 <path fill="none" stroke="rgb(0,0,0)" stroke-linejoin="round" d="M 10964,6602 L 10964,6287 10964,5972"/>
 <path fill="none" stroke="rgb(0,0,0)" stroke-linejoin="round" d="M 11064,6602 L 10864,6602"/>
 <path fill="none" stroke="rgb(0,0,0)" stroke-linejoin="round" d="M 10864,5972 L 11064,5972"/>
 <path fill="none" stroke="rgb(0,0,0)" stroke-linejoin="round" d="M 12899,6947 L 12899,6852 12899,6756"/>
 <path fill="none" stroke="rgb(0,0,0)" stroke-linejoin="round" d="M 12999,6947 L 12799,6947"/>
 <path fill="none" stroke="rgb(0,0,0)" stroke-linejoin="round" d="M 12799,6756 L 12999,6756"/>
 <path fill="none" stroke="rgb(0,0,0)" stroke-linejoin="round" d="M 13866,7081 L 13866,7057 13866,7032"/>
 <path fill="none" stroke="rgb(0,0,0)" stroke-linejoin="round" d="M 13966,7081 L 13766,7081"/>
 <path fill="none" stroke="rgb(0,0,0)" stroke-linejoin="round" d="M 13766,7032 L 13966,7032"/>
 <text class="TextShape"><tspan class="TextParagraph" font-family="Latin Modern Roman" font-size="494px" font-weight="400"><tspan class="TextPosition" x="2782" y="9004"><tspan fill="rgb(0,0,0)" stroke="none">0,00</tspan></tspan></tspan></text>
 <text class="TextShape"><tspan class="TextParagraph" font-family="Latin Modern Roman" font-size="494px" font-weight="400"><tspan class="TextPosition" x="5002" y="9004"><tspan fill="rgb(0,0,0)" stroke="none">0,50</tspan></tspan></tspan></text>
 <text class="TextShape"><tspan class="TextParagraph" font-family="Latin Modern Roman" font-size="494px" font-weight="400"><tspan class="TextPosition" x="7223" y="9004"><tspan fill="rgb(0,0,0)" stroke="none">1,00</tspan></tspan></tspan></text>
 <text class="TextShape"><tspan class="TextParagraph" font-family="Latin Modern Roman" font-size="494px" font-weight="400"><tspan class="TextPosition" x="9444" y="9004"><tspan fill="rgb(0,0,0)" stroke="none">1,50</tspan></tspan></tspan></text>
 <text class="TextShape"><tspan class="TextParagraph" font-family="Latin Modern Roman" font-size="494px" font-weight="400"><tspan class="TextPosition" x="11664" y="9004"><tspan fill="rgb(0,0,0)" stroke="none">2,00</tspan></tspan></tspan></text>
 <text class="TextShape"><tspan class="TextParagraph" font-family="Latin Modern Roman" font-size="494px" font-weight="400"><tspan class="TextPosition" x="13885" y="9004"><tspan fill="rgb(0,0,0)" stroke="none">2,50</tspan></tspan></tspan></text>
 <text class="TextShape"><tspan class="TextParagraph" font-family="Latin Modern Roman" font-size="494px" font-weight="400"><tspan class="TextPosition" x="16106" y="9004"><tspan fill="rgb(0,0,0)" stroke="none">3,00</tspan></tspan></tspan></text>
 <text class="TextShape"><tspan class="TextParagraph" font-family="Latin Modern Roman" font-size="494px" font-weight="400"><tspan class="TextPosition" x="2339" y="8382"><tspan fill="rgb(0,0,0)" stroke="none">0,0</tspan></tspan></tspan></text>
 <text class="TextShape"><tspan class="TextParagraph" font-family="Latin Modern Roman" font-size="494px" font-weight="400"><tspan class="TextPosition" x="2091" y="7298"><tspan fill="rgb(0,0,0)" stroke="none">50,0</tspan></tspan></tspan></text>
 <text class="TextShape"><tspan class="TextParagraph" font-family="Latin Modern Roman" font-size="494px" font-weight="400"><tspan class="TextPosition" x="1842" y="6214"><tspan fill="rgb(0,0,0)" stroke="none">100,0</tspan></tspan></tspan></text>
 <text class="TextShape"><tspan class="TextParagraph" font-family="Latin Modern Roman" font-size="494px" font-weight="400"><tspan class="TextPosition" x="1842" y="5131"><tspan fill="rgb(0,0,0)" stroke="none">150,0</tspan></tspan></tspan></text>
 <text class="TextShape"><tspan class="TextParagraph" font-family="Latin Modern Roman" font-size="494px" font-weight="400"><tspan class="TextPosition" x="1842" y="4047"><tspan fill="rgb(0,0,0)" stroke="none">200,0</tspan></tspan></tspan></text>
 <text class="TextShape"><tspan class="TextParagraph" font-family="Latin Modern Roman" font-size="494px" font-weight="400"><tspan class="TextPosition" x="1842" y="2964"><tspan fill="rgb(0,0,0)" stroke="none">250,0</tspan></tspan></tspan></text>
 <text class="TextShape"><tspan class="TextParagraph" font-family="Latin Modern Roman" font-size="494px" font-weight="400"><tspan class="TextPosition" x="1842" y="1880"><tspan fill="rgb(0,0,0)" stroke="none">300,0</tspan></tspan></tspan></text>
 <text class="TextShape"><tspan class="TextParagraph" font-family="Latin Modern Roman" font-size="494px" font-weight="400"><tspan class="TextPosition" x="1842" y="797"><tspan fill="rgb(0,0,0)" stroke="none">350,0</tspan></tspan></tspan></text>
 <text class="TextShape"><tspan class="TextParagraph" font-family="Latin Modern Roman" font-size="494px" font-weight="400"><tspan class="TextPosition" x="6848" y="10117"><tspan fill="rgb(0,0,0)" stroke="none">Contact pressure [MPa]</tspan></tspan></tspan></text>
 <text class="TextShape" transform="translate(1181,6529) rotate(-90) translate(-1181,-6529)"><tspan class="TextParagraph" font-family="Latin Modern Roman" font-size="494px" font-weight="400"><tspan class="TextPosition" x="1181" y="6529"><tspan fill="rgb(0,0,0)" stroke="none">Resistance [ohm]</tspan></tspan></tspan></text>
</svg>