<?xml version="1.0" encoding="UTF-8" standalone="no"?>
<svg xmlns:dc="http://purl.org/dc/elements/1.1/" xmlns:cc="http://creativecommons.org/ns#" xmlns:rdf="http://www.w3.org/1999/02/22-rdf-syntax-ns#" xmlns:svg="http://www.w3.org/2000/svg" xmlns="http://www.w3.org/2000/svg" xmlns:sodipodi="http://sodipodi.sourceforge.net/DTD/sodipodi-0.dtd" xmlns:inkscape="http://www.inkscape.org/namespaces/inkscape" width="702.59973" height="776.53668" viewBox="0 0 562.07979 621.22935" version="1.1" id="svg2" inkscape:version="0.48.2 r9819" sodipodi:docname="CrystTPE.svg">
  <metadata id="metadata34">
    <rdf:RDF>
      <cc:Work rdf:about="">
        <dc:format>image/svg+xml</dc:format>
        <dc:type rdf:resource="http://purl.org/dc/dcmitype/StillImage"/>
      </cc:Work>
    </rdf:RDF>
  </metadata>
  <defs id="defs32"/>
  <sodipodi:namedview pagecolor="#ffffff" bordercolor="#666666" borderopacity="1" objecttolerance="10" gridtolerance="10" guidetolerance="10" inkscape:pageopacity="0" inkscape:pageshadow="2" inkscape:window-width="1440" inkscape:window-height="837" id="namedview30" showgrid="false" units="cm" fit-margin-right="0.5" fit-margin-top="0.5" fit-margin-bottom="0.5" fit-margin-left="0.5" inkscape:zoom="0.71391316" inkscape:cx="422.59897" inkscape:cy="406.69928" inkscape:window-x="-8" inkscape:window-y="87" inkscape:window-maximized="1" inkscape:current-layer="svg2"/>
  <g id="#ffffffff" transform="translate(-54.993459,-51.643887)"/>
  <g id="#040404ff" transform="translate(-54.993459,-51.643887)">
    <path d="m 350.34,66.09 c 8.04,-0.37 17.24,1.49 23.53,6.87 -1.47,3.57 -5.4,0.64 -7.9,0.03 -13.2,-4.93 -28.66,1.96 -34.48,14.6 -4.21,10.29 -9.69,21.67 -20.13,26.78 -10.11,1.55 -20.22,3.4 -30.36,2.14 -11.56,-1.48 -18.68,9.53 -25.46,17.03 -8.21,10.42 -15.4,21.74 -21.1,33.73 -1.1,5.75 -3.16,13.33 2.67,17.29 7.64,-7.23 15.32,-16.46 26.9,-16.27 6.19,-1.45 10.35,5.07 15.8,5.72 9.03,-5.52 13.48,-15.97 21.16,-23.03 5.06,-5.49 12.34,-10.52 20.13,-9.28 0.71,3.54 -3.52,4.12 -5.73,5.57 -9.97,5.22 -15.43,15.38 -22.38,23.7 -3.79,3.88 -8,8.95 -14,8.34 -6.47,1.16 -10.49,-5.84 -16.68,-5.9 -8.37,2.08 -15.78,8.7 -19.16,16.14 15.09,7.67 14.51,25.96 16.14,40.46 -0.13,8.47 -6.48,15.53 -14.1,18.54 1.71,4.67 -1.14,8.86 -6.2,8.74 -19.09,11.97 -31.04,32.12 -48.62,45.93 -3.99,3.28 -9.08,-0.46 -10.9,-4.2 18.67,-18.78 35.72,-41.52 59.53,-54.48 1.06,-6.1 10.44,-5.42 11.85,-11.77 1.18,-13.61 2.29,-31.48 -10.94,-39.77 -6.07,7.22 -1.35,16.1 1.99,23.31 0.48,7.57 -17.51511,17.70307 -18.63511,24.67307 -3.92,0.57 -4.74971,0.35248 -5.42971,-2.61752 3.71,-1.97 13.80482,-17.22555 16.49482,-20.20555 -0.49,-6.52 -5.45,-12.28 -4.08,-19.17 -1.01,-4.37 3.69,-7.34 4.05,-11.04 -8.07,-5.4 -9.96,-16.21 -5.89,-24.7 6.67,-13.92 15.76,-26.59 25.34,-38.63 6.12,-6.67 13.17,-15.11 23.25,-14.08 9.45,2.37 19.02,0.01 28.43,-1.2 12.53,-3.62 15.92,-18.05 21.83,-28.11 4.67,-8.44 13.94,-13.18 23.08,-15.14 z" id="path6" inkscape:connector-curvature="0" style="fill:#040404" sodipodi:nodetypes="cccccccccccccccccccccccccccccccccccccc"/>
    <path d="m 456.3,66.27 c 2.66,-1.58 4.22,1.34 1.96,3.15 -9.19,4.07 -18.03,9.48 -24.8,17.02 -6.11,5.43 -11.55,13.07 -10.76,21.63 0.63,5.52 4.43,10.5 9.37,13 12.03,6.2 20.62,18.13 23.45,31.3 -0.43,7.39 -6.23,13.16 -12.58,16.41 -0.11,8.75 -9.2,11.5 -14.61,16.68 -5.24,5.96 -10.59,12.26 -17.61,16.25 -2.06,1.59 -3.91,-0.97 -5.86,-1.55 -8.38,4.04 -17.14,9.28 -26.83,7.9 -4.72,-1.43 -9.31,-3.51 -13.05,-6.76 -7.28,-4.31 -8.11,-14.54 -15.73,-18.46 -5.39,-3.35 -11.91,-0.95 -17.22,1.36 -6.32,3.06 -13.67,6.55 -15.86,13.84 1.83,7.96 6.31,14.96 9.94,22.18 -0.47,1.18 -2.5,2 -1.86,3.39 5.07,11.96 -4.27,23.49 -11.06,32.64 -5.11,4.94 -11.37,8.83 -18.3,10.66 -10.68,4.01 -21.73,-3.42 -32.27,0.72 -6.96,1.87 -11.15,8.11 -16.97,11.77 -5.81,6.01 -13.91,9.6 -18.42,16.87 -7.1,7.86 -15.65,14.55 -21.74,23.23 -3.23,0.31 3.04,4.19 -0.19,3.1 -3.15,-1.92 -6.03,1.58 -7.99,3.76 -2.67,4.54 -7.54,7.31 -9.6,12.27 -10.8,12.68 -6.78,33.03 5.34,43.35 14.08,9.7 31.32,-3.92 46.09,3.61 5.69,-4.36 12.68,-12 8.69,-19.52 -1.78,-5.92 -8.62,-7.16 -13.78,-8.45 -10.31,0.12 -19.74,-8.43 -20.79,-18.62 -0.71,-3.76 4.51475,-14.79898 8.44475,-12.51898 -6.84,7.3 -0.17475,24.28898 8.33525,25.02898 5.87,0.25 11.28,2.71 16.66,4.82 7.97,4.04 10.76,14.84 7.22,22.67 -3.07,3.28 -5.54,7.06 -8.83,10.15 13.51,19.73 7.16,47.08 -6.84,64.97 6.27,1.99 13.3,1.79 19.84,3.07 11.09,-3.95 23.87,-6.9 31.69,-16.4 5.99,-16.56 -1.72,-35.09 5.79,-51.35 4.58,-10.24 15.77,-14.52 24.52,-20.45 7.33,-3.15 15.87,-8.07 23.8,-3.93 4.77,2.65 11.52,2.92 14.21,8.31 2.62,0.36 5.33,-0.19 7.93,0.38 5.16,10.32 9.52,21.02 14.69,31.33 1.23,2.89 -1.43,4.77 -4.05,4.65 8.21,15.27 1.17,33.18 -10.86,44.08 -13.29,11.59 -28.04,21.59 -42.21,31.97 -9.53,5.91 -16.99,14.99 -21.51,25.21 2.83,7.33 12.91,10.83 19.61,6.62 7.97,-7.06 14.22,-15.6 21.89,-22.94 2.07,-9.25 10.58,-14.74 16.62,-21.39 9.19,-6.82 23.13,-10.19 33.38,-3.74 4.44,3.02 5.32,8.55 6.49,13.39 7.52,-1.32 12.68,6.8 10.16,13.22 -6.13,1.92 -11.3,7.74 -18.14,4.99 -5.51,0.26 -10.24,-4.32 -15.79,-2.9 -6.26,3.54 -12.34,7.71 -16.45,13.71 -2.73,5.44 0.31,11.43 -0.01,17.09 -2.35,3.85 -5.2,7.35 -7.75,11.05 -6.09,12.01 -19.78,19.68 -33.19,18.7 -4.43,1.86 -9.33,0.35 -13.91,1.23 -4,1.72 -8.6,0.34 -12.07,-1.9 -5.65,-7.26 -6.99,-17.16 -13.07,-24.06 -2.78,1.1 -9.43,1.81 -6.79,-3.05 -3.44,-3.28 -9.91,-4.01 -14.13,-6.96 -7.89,-7.68 -21.76,-5.06 -28.65,-13.08 -2.16,-7.29 6.6,-3.87 9.2,-4.93 -8.99,-11.78 -17.14,-27.75 -10.93,-42.57 0.36,-2.09 3.16,-4.86 0.27,-6.18 -8.75,-0.99 -17.78,-1.88 -26.36,-2.75 -2.32,4.92 4.42,10.87 3.87,16.4 -2.7,1.98 -6.58,0.87 -9.32,2.94 -2.46,2.84 -1.68,6.77 -0.67,10 -0.67,10.41 7.89,17.6 13.62,25.14 3.42,3.94 7.47,7.6 12.8,8.54 2.63,-3.04 6.13,-0.39 9.17,0.39 7.23,1.98 13.29,6.52 19.56,10.42 5.09,1.83 10.03,4.61 13.5,8.85 0.32,3.25 1.23,7.58 -2.25,9.5 -6.13,0.44 -9.86,-6.21 -15.83,-6.93 -10.82,-2.04 -20.19,-10.54 -25.86,-18.75 -11.06,-2.49 -17.79,-12.97 -24.72,-21.12 -5.79,-5.81 -5.63,-14.41 -6.98,-21.89 -1.11,-5.71 3.82,-10.12 8.54,-12.2 -2.5,-5.38 -4.65,-12.84 0.53,-17.39 4.78,-2.27 6.83,4.33 11.57,2.78 7.81,-0.99 15.31,1.73 22.98,1.89 7.71,-12.36 12.85,-26.62 13.24,-41.15 -1.41,-6.33 -1.27,-13.72 -6.35,-18.52 -17.21,9.66 -35.34,18.9 -49.09,33.32 -7.32,7.9 -16.04,15.11 -20.87,25.06 -6.94,11.55 -2.89,25.69 -6.52,38.01 0.99,2.31 3.89,3.81 4.14,6.52 -4.06,13.56 -15.41,22.65 -24.07,33.15 -8.78,9.97 -5.8,28.01 7.59,31.89 10.8,-1.41 10.92,-13.91 13.2,-22.03 4.05,-13.71 20.13,-20.61 33.25,-16.8 5.64,3.54 5.91,13.04 13.46,14.33 4.78,-0.7 1.8,-9.02 8.08,-7.09 12.31,4.48 20.41,16.06 31.8,22.35 3.05,1.19 2.41,4.47 2.46,7.09 7.38,4.49 13.06,13.09 12.88,21.86 -3.44,7.84 -9.34,14.93 -16.96,19.04 -15.88,9.92 -34.98,12.68 -51.3,21.69 -3.18,2.45 -7.27,5.63 -6.53,10.18 0.5,6.09 4.94,10.77 7.49,16.09 2.52,2.71 6.44,8.56 1.19,10.6 -5.21,-6.57 -10.61,-13.32 -13.37,-21.37 -3.37,-6.51 -0.88,-15.46 5.93,-18.67 20.6,-12.56 49.23,-12.63 64.05,-33.94 4.9,-4.49 1.32,-11.26 -1.86,-15.63 -3.8,-6.01 -11.41,-6.95 -16,-11.92 -5.54,-3.49 -10.69,-7.72 -16.85,-10.07 -4.33,-1.66 -6.88,-6.44 -11.85,-6.51 -7.67,-1.71 -9.82,-10.01 -15.25,-14.4 -9.18,-1.84 -18.69,3.4 -23.66,11.08 -2.95,5.11 -3,11.08 -4.67,16.63 -2.13,11.73 -20.9,17.22 -26.51,5.12 -9.95,-11.14 -7.36,-28.12 2.95,-38.06 7.46,-6.62 13.59,-14.67 17.51,-23.87 1.05,-4.44 -3.54,-0.13 -5.28,-1.63 5.74,-8.35 4,-18.92 4.28,-28.46 -0.61,-11.74 6.2,-22.33 14.08,-30.44 16.21,-20.36 38.19,-34.82 61.01,-46.8 -2.22,-2.6 -7.23,-1.13 -10.54,-1.27 -13.27,3.17 -30.35,4.19 -39.86,-7.65 -12.98,-12.72 -10.52,-34.07 0.14,-47.42 3.53,-5.93 9.83,-9.53 13.23,-15.54 -1,-1.98 -4.43,-4.34 -2.05,-6.47 15.97,-16.26 30.86,-33.75 48.4,-48.38 5.43,-0.08 9.89,-3.94 15.21,-0.28 11.8,-5.18 24.32,3.88 36.2,-1.4 15.55,-6.8 27.11,-24.22 25.64,-41.41 -4.57,-5.84 -8.01,-12.87 -10,-20 2.93,-3.9 1.46,-9.98 5.91,-13.07 5.94,-4.52 12.6,-8.77 20.18,-9.7 8.37,-2.73 18.04,1.98 22.52,9.26 5.35,7.85 12.1,17.31 22.5,17.74 19.9,-3.87 29.94,-22.43 44.31,-34.71 4.44,-4.34 11.1,-3.17 16.28,-5.8 3.55,-3.34 8.46,-6.85 7.97,-12.33 -3.67,-7.92 -6.95,-16.45 -13.26,-22.69 -8.48,-5.45 -18.8,-11.42 -19.54,-22.57 0.75,-12.89 11.32,-21.89 20.25,-30 5.88,-3.6 11.26,-8.48 18.23,-9.8 M 330.13,368.93 c -9.06,4.11 -18.06,9.03 -25.17,16.08 -16.31,18.41 3.66,49.12 -16.56,65.4 -6.88,3.12 -13.86,6.36 -20.93,9.16 -10.34,3.9 -21.12,-0.09 -31.59,-0.39 -4.75,4.16 -7.38,11.38 -4.38,17.35 3.85,8.82 5.59,18.7 11.44,26.56 3.36,3.99 9.67,2.98 12.97,7 3.41,5.91 11.45,6.16 15.52,11.49 2.67,1.28 4.63,5.07 1.61,7.11 3.11,-0.7 2.91,3.5 5.97,1.14 14.71,1.48 8.68,23.41 21.12,26.82 12.29,-2.26 25.96,-0.17 36.99,-7.49 6.1,-3.28 8.52,-10.11 12.73,-15.19 1.88,-3.21 5.3,-6.6 3.71,-10.61 -2.71,-8.17 0.78,-17.48 8.09,-21.88 5,-4.52 10.48,-9.34 17.35,-10.51 4.31,0.81 7.95,3.38 11.96,4.98 3.72,0.88 6.91,-1.65 10.29,-2.72 2.89,-4.89 -3.79,-5.92 -6.68,-7.86 -3.61,-3.27 -2.9,-9.75 -7.56,-12.22 -6.68,-3.85 -14.49,-0.9 -20.93,1.98 -14.46,12.04 -23.37,29.19 -34.88,44.13 -10.5,13.2 -37.8,4.4 -35.03,-13.28 10.24,-22.74 34.86,-31.76 52.6,-47.25 8.52,-6.67 17.93,-13.44 21.89,-24.01 4.5,-6.94 2.94,-15.36 0.17,-22.61 -3.48,-3.55 -6.25,-7.91 -7.24,-12.84 -2.67,-7.95 -7.02,-15.36 -9.57,-23.21 -6.66,-4.96 -15.36,-9.25 -23.89,-7.13 z" id="path8" inkscape:connector-curvature="0" style="fill:#040404" sodipodi:nodetypes="cccccccccccccccccccccccccccccccccccccccccccccccccccccccccccccccccccccccccccccccccccccccccccccccccccccccccccccccccccccccccccccccccccccccccccccccccccccccccccccccccccccccccccccccc"/>
    <path d="m 127.3,152.16 c 1.12,-1.86 2.5,0.71 2.71,1.8 1.52,4.93 4.8,9.04 7.92,13.06 9.73,11.56 18,24.66 22.58,39.03 1.63,8.3 -3.5,15.95 -10.44,20.01 -12.07,8.94 -27.62,9.98 -41.03,16.03 -10.64,5.38 -20.37,13.15 -26.39,23.6 -4.78,6.17 -9.68,13.9 -7.44,22.03 4.38,14.27 19.76,20.22 32.71,24.35 12.14,2.92 24.91,-2.06 34.05,-10.09 6.26,-8.71 26.55614,-21.71321 35.56614,-27.42321 1.32,-1.14 0.29868,2.02102 1.43868,2.81102 -0.99,4.41 -14.77482,11.15219 -18.51482,13.11219 -3.22,3.11 -6.15,6.51 -9.5,9.48 -8.66,13.05 -25.09,20.25 -40.56,18.58 -11.46,-2.92 -22.53,-7.76 -32.13,-14.73 -6.23,-5.66 -9.41,-14.45 -9.08,-22.58 2,-12.64 9.08,-24.04 18.41,-32.63 11.42,-12.6 28.66,-16.31 44.33,-20.8 9.3,-3.79 22.7,-9.8 20.64,-22.04 -3.99,-15.69 -15.41,-28.06 -23.96,-41.4 -1.66,-3.8 -4.8,-8.47 -1.31,-12.2 z" id="path10" inkscape:connector-curvature="0" style="fill:#040404" sodipodi:nodetypes="cccccccccccccccccccccc"/>
    <path d="m 523.33,170.8 c 2.32,-2.09 0.84,3.29 -0.37,4.17 -5.46,6.67 -10.24,15.16 -18.8,18.2 -12.24,2.18 -19.43,-11.37 -31.01,-12.31 -8.2,-2.04 -20.91,0.74 -21.79,10.83 -2.65,3.34 -6.05,6.02 -8.87,9.21 3.46,3.73 -3.11,5.41 -5.5,7.13 -8.12,5.7 -19.37,10 -21.36,20.95 0.77,12.41 15.9,13.67 20.98,23.47 8.46,11.48 0.07,24.84 -5.59,35.55 -6.89,9.46 -16.47,17.95 -28.15,20.59 -10.26,-0.7 -17.11,10.26 -17.01,19.48 1.67,5.08 4.28,12.4 9.8,13.13 4.98,11.28 8.87,23.02 13.76,34.36 6.4,10.8 9.68,23.05 15.08,34.43 -2.55,6.17 -11.29,3.05 -15.01,-0.42 -9.64,-19.94 -18.3,-40.4 -25.78,-61.27 -2.55,-2.66 0.6,-5.21 3.14,-6.11 -3.52,-5.02 -6.88,-10.76 -6.69,-16.97 1.09,-5.79 4.03,-11 7.36,-15.75 4.06,-4.69 10.83,-4.88 16.4,-6.49 15.82,-5.63 26.93,-20.63 29.77,-36.97 0.72,-10.3 -8.31,-17.47 -16.15,-22.41 -8.95,-4.53 -10.73,-17.82 -4.14,-25.03 1.29,-2.65 6.41,-4.69 2.29,-7.37 5.06,-13.19 16.93,-22.34 27.6,-30.88 6.22,2.83 11.4,-3.23 17.37,-4.68 13.83,-2.44 26.95,3.9 37.48,12.35 10.73,0.38 17.67,-10.75 25.19,-17.19 z" id="path12" inkscape:connector-curvature="0" style="fill:#040404"/>
    <path d="m 218.43,235.53 c 3.01,0.64 7.81,2.61 6.9,6.53 -1.61,5.23 -7.86,6.29 -10.44,10.86 -10.2,9 -18.78,19.7 -28.98,28.84 -5.47,1.15 -8.69,-4.94 -11.5,-8.71 1.99,-2.68 2.31,-9.29 6.95,-7.53 5.29,-5.56 11.47,-10.21 18.18,-13.95 6.39,-4.94 10.54,-14.17 18.89,-16.04 z" id="path14" inkscape:connector-curvature="0" style="fill:#040404"/>
    <path d="m 392.38,241.03 c 2.51,-0.49 0.92,3.13 1.51,4.55 4.49,-1.38 10.05,-0.66 12.55,3.78 2.52,7.05 5.19,14.46 4.1,22.04 -2.43,8.14 -6.92,18.13 -16.42,19.36 -6.5,1.48 -13.18,2.31 -19.23,5.27 -19.37,4.69 -28.98,30.73 -17.99,47.06 4.85,6.51 16.85949,19.26559 22.73949,24.36559 1.5,3.33 0.0648,2.62814 -1.46525,5.45814 -1.34,-2.97 -7.35661,-9.28712 -10.81661,-10.59712 C 354.98763,359.30661 345.6,341.78 346.7,328.73 c -0.02,-11.87 4.06,-24.76 13.89,-32.15 10.4,-7.52 23.42,-9.55 35.63,-12.39 10.93,-7.82 9.56,-23.32 3.64,-33.98 -4.21,-0.23 -8.96,-0.98 -12.27,2.27 -4.71,4.43 -12.07,4.63 -17.6,1.72 -7.25,-3.08 -15.64,-0.32 -21.78,3.98 -3.79,3.26 -1.73,8.23 -0.58,12.22 2.17,8.48 -3.75,16.26 -9.65,21.59 -9.58,12.58 -30.4,16.59 -42.56,5.5 -3.78,-4.95 -7.35,-10.16 -12.45,-13.88 -3.96,1.67 -10.88,2.15 -12.6,-1.3 -14.09,7.3 -22.58,21.52 -35.11,31.03 -3.35,5.53 -9.8,8.8 -11.56,15.34 -3.03,5.09 -9.48,-0.68 -10.31,-4.23 9.53,-16.06 26.82,-25.53 36.47,-41.63 4.69,-2.12 8.22,-6.51 13.32,-7.77 2.73,1 5.38,2.36 7.3,4.6 3.64,-2.58 7.56,-0.49 11.57,-1.81 8.45,2.24 13.28,10.35 18.3,16.81 9.11,6.67 23.04,3.3 29.75,-5.48 5.25,-2.27 6.78,-7.83 9.74,-12.16 1.16,-7.06 -3.61,-14.94 0.86,-21.36 9.49,-8.39 23.94,-11.26 35.25,-4.71 6.25,-0.7 11.84,-5.44 16.43,-9.91 z" id="path16" inkscape:connector-curvature="0" style="fill:#040404" sodipodi:nodetypes="ccccccccccccccccccccccccccccccccccc"/>
    <path d="m 186.02716,294.99357 c 2.63,-1.53 2.61708,2.37175 1.54708,6.49175 -12.76,8.88 -38.86424,16.25468 -50.14424,27.93468 -7.37,8.81 -15.96,16.95 -20.87,27.51 0.63,6.69 7.42,10 12.7,12.86 12.13,5.24 20.27,21.1 12.56,33.16 -8.72,11.69 -22.06,18.8 -34.89,25.07 -12.64,2.69 -22.44,14.23 -23.19,27.05 1.65,8.4 8.98,14.24 16.93,16.53 2.89,1.37 -0.57,4.41 -2.66,3.58 -10.56,-2.43 -19.35,-13.2 -18.22,-24.22 2.21,-9.03 7.1,-18.17 15.81,-22.33 13.72,-6.51 27.66,-13.71 38.11,-24.97 4.84,-5.16 8.67,-13.56 3.48,-19.82 -4,-9.12 -15.67,-9.17 -21.4,-16.66 -7.34,-5.55 -4.13,-16.3 1.56,-21.85 9.79,-11.41 23.1619,-29.85205 39.1819,-32.32205 7.29,-1.27 23.25526,-14.43438 29.49526,-18.01438 z" id="path18" inkscape:connector-curvature="0" style="fill:#040404" sodipodi:nodetypes="cccccccccccccccccc"/>
    <path d="m 409.27,350.16 c 5.42,-2.63 6.21,4.77 8.99,7.62 3.68,9.74 9.94,18.56 11.51,29.02 -1.34,2.87 -5.12,1.45 -7.58,1.5 -10.5,-7.63 -9.48,-22.05 -16.53,-32.01 -2.63,-2.77 0.84,-5.61 3.61,-6.13 z" id="path20" inkscape:connector-curvature="0" style="fill:#040404"/>
    <path d="m 488.24,361.65 c 6.34,1.6 12.85,3.84 17.41,8.76 8.85,10.41 10.43,25.67 21.69,34.27 3.68,3.64 9.79,3.49 14.18,1.97 2.73,-1.88 -2.26,-0.76 -2.25,-2.79 2.89,-4.05 8.94,-4.63 13.01,-2.15 4.83,2.25 5.78,8.11 9.32,11.67 4.84,6.32 1.25,14.06 -1.99,20.25 -1.73,8.17 -10.33,11.35 -17.35,13.59 -7.56,5.53 -19.69,10.84 -17.78,22.24 4.15,4.9 10.29,8.79 11.68,15.55 2.04,12.91 -4.99,24.88 -12.19,35.02 -5.63,2.28 -15.92661,11.66186 -22.58661,10.81186 -3.31,0.17 -3.81949,0.76187 -2.73949,-0.35813 12.42,-5.71 27.2861,-26.92373 30.7361,-39.41373 0.14,-8.58 -7.03,-13.78 -11.47,-20.13 -4.42,-8.18 2.86,-16.35 9.08,-20.96 5.39,-5.31 11.55,-9.87 18.91,-12.01 6.37,-5.25 10.96,-13.73 9.42,-22.12 -1.73,-3.4 -4.01,-6.55 -6.33,-9.58 -5.73,8.59 -17.72,7.46 -25.3,2.02 -12.87,-8.16 -13.75,-25.68 -24.28,-35.8 -10.7,-9.59 -29.31,-6.52 -36.66,5.62 -0.4,3.65 -0.46,7.44 0.82,10.93 1.09,15.97 -11.96,27.43 -19.43,40.11 -6.18,6 -17.04,6.79 -22.67,-0.61 -2.97,-2.82 -11.50237,-18.93847 -4.96237,-21.58847 4.24,2.45 5.72237,17.98847 10.31237,20.15847 4.24,3.05 10.04,0.5 12.94,-3.3 6.57,-8.49 11.85,-17.92 16.51,-27.57 1.87,-7.82 -2.9,-15.96 1.63,-23.28 7,-9.04 19.34,-12.47 30.34,-11.31 z" id="path22" inkscape:connector-curvature="0" style="fill:#040404" sodipodi:nodetypes="cccccccccccccccccccccccccccccccc"/>
    <path d="m 378.26,365.31 c 1.88,-0.35 3.79,0.22 5.66,0.5 5.74,10.27 7.77,22.19 13.74,32.36 1.75,3.56 -2.07,4.14 -3,6.75 3.08,11.69 6.97,23.93 15.84,32.58 10.02,10.82 14.83,25.3 17.57,39.54 2.15,9.97 -0.51,20.05 -3.67,29.49 -3.61,14.09 3.56,33.18 19.61,35.2 5.96,-0.28 13.76,-0.67 16.38,-7.16 9.64,-4.11 19.82,-7.41 30.34,-7.99 5.66,-1.77 11.92,-0.44 16.43,3.39 2.02,4.91 -3.38,9.48 -8.06,9.34 -5.41,-0.46 -9.76,4.05 -15.16,3.6 -8.28,0.55 -16.66,6.98 -24.75,2.34 -14.05,6.82 -31.28,-1.09 -38.21,-14.19 -5.6,-11.09 -4,-23.63 -0.23,-35.04 4.7,-13.32 -0.56,-27.1 -5.25,-39.63 -2.48,-7.95 -8.57,-13.93 -13.51,-20.38 -10.28,-11.07 -9.62,-27.74 -18.59,-39.41 -3.65,-8.1 -5.87,-16.74 -8.98,-25 -2.02,-2.72 0.88,-6.26 3.84,-6.29 z" id="path24" inkscape:connector-curvature="0" style="fill:#040404"/>
    <path d="m 597.34,522.32 c 2.73,-1.68 4.91,2.04 5.56,4.3 -5.13,4.55 -9.91,10.14 -9.94,17.42 -4.74,8.47 -13.36,13.91 -21.99,17.68 -11.74,0.88 -20.13,-9.46 -28.08,-16.61 -5.49,-1.45 -16.39898,7.70525 -21.80898,2.78525 3.31,-7.58 22.40898,-11.24525 28.91898,-3.91525 5.45,4.53 10.46,10.86 17.87,11.83 5.3,-1.87 10.07,-5.01 14.42,-8.55 4.97,-8.3 6.15,-19.69 15.05,-24.94 z" id="path26" inkscape:connector-curvature="0" style="fill:#040404" sodipodi:nodetypes="cccccccccc"/>
    <path d="m 507.42,543.48 c 6.47,-1.68 13.41,-0.48 18.79,3.54 1.23,3.31 -0.52,6.16 -4.17,5.73 -6.6,-1.16 -11.54,5.04 -18.04,4.03 -13.8,1.29 -26.22,10.85 -40.43,8.59 -10.49,7.97 -24.79,12.33 -37.72,7.61 -13.42,-1.63 -26.39,3.57 -38.74,8.16 -5.94,2.71 -12.8,6.28 -13.5,13.59 -0.68,11.37 8.63,20.78 7.24,32.26 1.19,7.62 -6.29,15.41 -13.9,14.35 1.59,-5.16 7.42,-8.54 6.9,-14.36 1.32,-11.12 -6.93,-20.42 -7.42,-31.35 -1.1,-10.27 8.7,-18.05 17.8,-20.53 14.09,-4.81 28.82,-10.62 43.8,-7.31 9.82,3.12 19.53,-2.09 27.85,-6.85 4.02,-2.1 3.44,-7.75 8,-9.12 14.36,-3.7 29.1,-4.93 43.54,-8.34 z" id="path28" inkscape:connector-curvature="0" style="fill:#040404"/>
  </g>
</svg>