<?xml version="1.0" encoding="UTF-8" standalone="no"?>
<svg xmlns:dc="http://purl.org/dc/elements/1.1/" xmlns:cc="http://creativecommons.org/ns#" xmlns:rdf="http://www.w3.org/1999/02/22-rdf-syntax-ns#" xmlns:svg="http://www.w3.org/2000/svg" xmlns="http://www.w3.org/2000/svg" xmlns:sodipodi="http://sodipodi.sourceforge.net/DTD/sodipodi-0.dtd" xmlns:inkscape="http://www.inkscape.org/namespaces/inkscape" width="1001.5288" height="912.56317" viewBox="0 0 801.22305 730.05053" version="1.1" id="svg2" inkscape:version="0.48.2 r9819" sodipodi:docname="SBSstructure.svg">
  <metadata id="metadata14">
    <rdf:RDF>
      <cc:Work rdf:about="">
        <dc:format>image/svg+xml</dc:format>
        <dc:type rdf:resource="http://purl.org/dc/dcmitype/StillImage"/>
        <dc:title/>
      </cc:Work>
    </rdf:RDF>
  </metadata>
  <defs id="defs12">
    <inkscape:path-effect effect="spiro" id="path-effect3003" is_visible="true"/>
    <inkscape:path-effect effect="spiro" id="path-effect2999" is_visible="true"/>
    <inkscape:path-effect effect="spiro" id="path-effect2995" is_visible="true"/>
  </defs>
  <sodipodi:namedview pagecolor="#ffffff" bordercolor="#666666" borderopacity="1" objecttolerance="10" gridtolerance="10" guidetolerance="10" inkscape:pageopacity="0" inkscape:pageshadow="2" inkscape:window-width="1440" inkscape:window-height="837" id="namedview10" showgrid="false" units="cm" fit-margin-right="0.5" fit-margin-top="0.5" fit-margin-left="0.5" fit-margin-bottom="0.5" inkscape:zoom="0.51444142" inkscape:cx="605.98073" inkscape:cy="512.78424" inkscape:window-x="-8" inkscape:window-y="87" inkscape:window-maximized="1" inkscape:current-layer="svg2"/>
  <g id="#ffffffff" transform="translate(-31.288679,1.4983204)"/>
  <path style="fill:#313131" inkscape:connector-curvature="0" id="path6" d="m 232.96132,14.598321 c 8.86,-2.38 17.59,5.64 19.53,13.93 1.1,2.98 -1.88,8.67 -4.95,4.74 1.29,-7.17 -5.12,-13.95 -11.84,-14.67 -8.83,1.56 -4.98,11.59 -3.53,17.48 3.28,8.88 -9.71,14.16 -16.24,10.19 -2.02,-2.44 -4.41,-7.89 -8.26,-4.83 -8.15,3.84 -6.61,13.83 -4.59,21.03 4.12,8.9 3.27,19.06 6.05,28.4 14.51,4.93 28.07,13.359999 37.55,25.479999 3.68,-5.91 3.09,-13.6 7.88,-19.049999 7.65,-7.73 18.88,-15.27 29.96,-9.66 6.95,5.1 17.54,8.15 19.16,17.899999 2.05,8.92 7.16,16.8 14.48,22.34 13.34,6.96 28.58,1.36 40.97,-4.98 5.6,-5.99 13.29,-9.66 21.48,-10.11 -0.55,-13.879999 -5.67,-27.089999 -9.91,-40.229999 0.63,-4.66 3.38,-11.39 9.28,-9.34 -1.17,3.87 -5.93,7 -3.98,11.99 6.28,11.69 6.72,25.019999 10.66,37.439999 12.01,0.4 21.95,8.17 32.06,13.74 8.72,4.26 18.87,2.28 27.38,-1.49 6.15,-11.95 17.54,-20.37 27.9,-28.149999 -3.77,0.51 -7.61,0.33 -11.28,1.44 -12.87,1.18 -26.27,-13.74 -19.49,-26.2 2.65,-6.7 11.76,-4.63 15.95,-9.56 0.6,-3.98 2.6,-7.78 2.19,-11.87 -2.53,-7.97 -10.69,-12.04 -15.21,-18.34 1.51,-3.46 5.62,-1.62 7.04,0.91 4.48,4.75 10.48,8.76 12.5,15.27 2.59,4.8 -1.15,9.75 -1.55,14.62 -2.83,8.99 -16.97,4.93 -17.98,15.04 -0.52,7.16 6.25,14.21 13.15,15.85 6.52,0.259999 15.24,-5.01 20.4,0.189999 19.55,-8.81 41.55,-9.959999 62.2,-4.639999 0.69,-4.21 -0.5,-8.490001 0.19,-12.720001 3.64,-8.759999 14.93,-13.14 23.56,-9.22 5.46,0.69 9.77,5.77 15.54,4.52 4.35,-3.43 8.74,-8.56 7.33,-14.53 -3.1,-12.139999 -6.75,-24.22 -7.85,-36.689999 1.62,-0.64 3.96,-2.55 5.12,-0.21 -0.27,14.76 7.79,28.14 8.04,42.77 -2.76,6.44 -7.59,13.37 -15.17,14.01 -6.75,-1.98 -12.96,-5.66 -19.93,-7.02 -5.28,0.79 -10.9,3.65 -12.65,9.08 1.7,3.87 0.65,8.11 1.21,12.15 17.85,7.84 32.68,21.259999 42.73,37.919999 11.99,-6.27 24.12,-16.25 38.71,-13.18 10.26,0.44 17.26,8.95 26.04,13.1 6.92,1.23 14.09,1.58 20.93,3.5 4.06,-0.62 6.61,-4.44 6.75,-8.38 -6.97,-9.86 -15.97,-21.16 -14.91,-34.13 2.3,-6.46 2.24,-15.55 9.8,-18.32 3.41,-2.38 7.62,-1.67 11.38,-3.06 8.7,2.17 14.12,10.21 22.52,12.85 6.26,0.41 13.72,1.65 18.71,-3.15 3.81,-5.1 5.57,-11.4 5.32,-17.71 1.75,-0.01 4.68,-0.34 4.97,2.04 0.39,9.87 -5.06,20.61 -14.77,24.04 -7.76,0.14 -16.93,1.52 -23.27,-4 -4.76,-2.48 -8.28,-7.09 -13.55,-8.53 -6.67,-0.24 -14.45,3.13 -14.11,11.03 -5.59,11.24 2.69,22.94 9.19,31.81 7.52,6.14 2.63,20 -7.16,20.13 -7.56,-0.43 -15.14,-2.3 -22.66,-3.57 -8.97,-1.89 -14.11,-10.96 -23.21,-12.68 -14.36,-4.58 -26.77,6.55 -38.54,12.92 7.17,17.71 8.81,37.38 3.6,55.84 10.24,3.41 24.25,13.4 33.21,2.61 1.24,-5.24 0.55,-12.43 6.02,-15.78 4.2,-1.58 9.85,-2.6 13.33,0.97 6.08,5.6 13.96,9.29 18.66,16.32 3.44,5.15 9.31,7.63 14.63,10.28 6.1,-0.19 11.65,-3.88 16.37,-7.55 4.17,-6.45 9.53,-12.91 17.3,-14.94 9.99,-2.38 19.48,3.79 25.7,11.09 8.25,10.18 2.17,26.84 -9.43,31.41 -4.1,0.77 -10.57,-1.44 -12.42,3.65 -0.97,5.59 5.75,7.69 7.73,12.15 2.82,5.66 7.19,10.66 8.3,17.03 2.69,5.21 -0.02,12.28 -5.51,14.31 -3,1.19 -6.53,0.63 -9.11,2.85 -1.08,3.78 1.17,8.05 4.84,9.41 7.81,3.47 16.23,5.95 24.85,5.48 0.04,1.34 -0.01,2.67 -0.14,4.01 -9.21,0.84 -18.68,-0.97 -26.86,-5.26 -6.54,-1.56 -9.12,-9.59 -7.76,-15.52 2.45,-6.01 11.57,-2.75 14.57,-7.93 0.69,-12.39 -8.47,-22.69 -16.17,-31.38 -1.41,-5.18 2.48,-10.98 7.22,-13.33 3.96,-1.34 8.67,0.8 12.21,-2.05 5.65,-5.94 8.76,-16.74 2.03,-23.05 -5.32,-5.76 -14.29,-11.96 -21.95,-6.73 -6.94,2.93 -9.25,10.67 -14.95,15.02 -4.91,2.86 -10.28,4.97 -15.72,6.56 -7.59,-2.23 -14.8,-6.14 -19.98,-12.22 -3.83,-6.36 -10.84,-9.64 -16.08,-14.65 -3.53,-3.85 -11.48,-3.7 -11.86,2.57 1.07,6.63 -2.82,12.77 -8.64,15.69 -11.32,3.51 -21.76,-3.17 -32.37,-6.07 -5.51,14.01 -15.15,25.95 -26.77,35.41 8.53,3.48 17.27,7.88 26.76,7.05 11.36,3.04 21.89,-3.78 32.92,-5.78 7.53,1.2 15.25,1.9 22.59,4.08 8.11,4.98 8.27,21.32 -1.61,24.81 -8.53,4.5 -18.73,4.86 -27.97,2.94 -12.22,-1.87 -21.79,10.98 -21.8,22.07 2.34,8.25 10.35,13.18 17.3,17.37 5.41,0.43 11.03,-0.32 16.17,2.01 12.65,0.48 24.13,-8.68 37,-5.36 7.97,3.22 17.26,5.1 22.55,12.56 3.89,6.41 7.77,13.57 6.57,21.36 -2.68,9.53 -14.46,15.25 -23.72,11.55 -6.07,-2.04 -12.59,-0.75 -18.2,2 -7.94,1.7 -15.94,8.62 -14.88,17.4 0.11,10.81 7.99,18.63 15.41,25.46 8.57,10.51 14.53,24.59 10.52,38.27 3.63,1.04 7.3,1.97 10.91,3.13 2.55,-6.85 -3.94,-15.01 -0.03,-21.96 2.16,-3.65 4.22,-8.08 8.56,-9.49 5.39,-1.02 10.62,1.15 15.72,2.59 2.67,-1.38 4.92,-5.82 1.98,-8 -5.52,-5.31 -13.27,-8.39 -17.29,-15.13 -1.68,-6.36 2.44,-12.08 7.55,-15.38 11.16,-1.42 22.31,3.28 30.46,10.71 6.45,3.14 19.82,1.99 17.52,-8.27 -3.52,-5.79 -10.18,-9.54 -13.77,-15.52 -4.64,-3.42 -12.25,-2.84 -15.02,-8.62 -1.9,-6.51 4.53,-11.71 10.48,-12.1 2.58,0 7.37,-2.9 7.7,1.33 -1.22,6.68 -12.68,1.05 -13.27,8.6 2.9,4.71 9.64,2.86 13.07,7.02 4.72,5 9.68,9.8 14.41,14.8 3.71,6.85 0.38,17.05 -7.69,18.84 -8.44,1.49 -17.33,-1.05 -23.25,-7.36 -5.89,-2.01 -11.65,-5.84 -18.07,-5.24 -3.87,1.57 -6.58,7.09 -4.45,10.9 5.55,5.09 12.92,8.27 17.31,14.63 3.8,6.39 -3.54,16.22 -10.83,13.07 -4.58,-1.38 -12.82,-4.7 -14.82,1.67 -5.58,7.56 1.58,16.31 -0.59,24.5 5.43,4.4 12.64,7.42 18.52,10.5 1.74,-7.94 10.92,-10.8 17.93,-12.72 16.65,-1.96 33.38,7.69 42.06,21.68 4.24,8.01 7.38,16.68 9.94,25.19 3.31,1.1 11.34,-0.71 10.07,-6.08 -2.08,-11.88 -7.02,-23.09 -12.44,-33.68 -4.88,-2.77 -10.83,-3.86 -16.21,-5.61 -9.12,-4.38 -7.96,-19.1 0.22,-24 4.02,-1.77 6.47,-9.31 11.27,-4.94 -2.08,5.32 -7.22,8.24 -11.1,12.01 -2.2,3.66 -2.46,10.26 2.09,12.34 6.37,2.81 14.9,2.92 19.42,8.81 5.04,12.61 12.57,25.08 12.02,39.14 -1.76,6.82 -9.76,6.38 -15.21,7.83 -4.82,-1.15 -6.76,-6.43 -7.19,-10.85 -3.61,-9.36 -6.76,-19.5 -14.62,-26.32 -7.31,-6.35 -16.47,-11.22 -26.33,-11.43 -7.43,1.21 -17.65,4.65 -17.8,13.49 13.57,13 24.13,30.16 25.63,49.21 2.6,9.34 -0.67,18.83 -1.08,28.08 5.82,-2.99 11.52,-7.12 18.32,-7.32 5.09,0.89 11.51,2.24 13.33,7.86 1.02,4.2 6.08,4.34 9.62,4.1 4.33,-2.58 6.93,-13.48 13.33,-8.67 -2.36,4.78 -6.27,8.51 -9.56,12.62 -7.37,3.39 -16.68,-0.21 -19.31,-8 -9.47,-7.28 -19.38,2.56 -28.39,5.52 -4.65,13.29 -13.08,24.96 -23.58,34.29 -3.46,2.36 -0.38,6.3 -0.66,9.52 -0.57,8.13 -2.79,16.01 -4.7,23.92 1.48,5.58 4.19,-0.35 5.47,-2.99 2.02,-5.37 7.13,-8.46 10.54,-12.81 3.31,-5.96 5.28,-14.93 13.36,-15.84 9.32,-2.73 16.37,5.79 20.08,13.28 5.37,5.77 6.13,14.14 4.09,21.47 2.44,11.54 8.07,22.16 14.2,32.17 2.03,3.34 7.92,4.55 6.46,9.21 -4.88,1.55 -7.94,-2.92 -10.4,-6.36 -7.31,-10.48 -13.58,-22.27 -15.09,-35.11 3.18,-11.44 -4.56,-21.91 -12.24,-29.47 -7.77,-3.56 -12.86,3.73 -14.86,10.26 -4.15,8.03 -13.3,13.13 -14.33,22.8 -5.2,0.99 -11,0.28 -12.77,-5.52 1.79,-9.43 6.23,-19.45 4.2,-28.96 -21.31,14.62 -49.15,19.21 -73.77,11.1 0.08,10.61 -0.05,21.24 0.05,31.86 0.18,2.99 3.34,3.77 5.62,4.81 3.72,-0.63 4.1,-4.97 5.18,-7.87 0.3,-5.38 -5.71,-9.33 -3.88,-14.99 3.02,-4.91 10.78,-3.81 12.67,1.55 13.93,11.54 25.66,25.59 35.95,40.45 2.79,4.46 -0.06,9.41 -2.26,13.46 -5.3,6.27 -13.94,7.13 -21.53,7.4 -14.56,5.73 -30.41,1.04 -43.67,-5.83 -8.22,-3.65 -9.55,-14.29 -8.44,-22.01 0.05,-3.61 4.54,-9.66 7.66,-4.9 -5.57,6.76 -4.36,19.59 4.22,23.36 10.55,4.84 22.47,10.17 34.27,6.35 6.91,-2.69 15.17,-0.65 21.33,-5.57 2.56,-2.58 6.07,-6.38 3.91,-10.21 -11.33,-15.31 -23.86,-30.57 -38.3,-42.43 -3.84,1.58 4.05,8.29 3.25,12.41 -1.56,4.63 -2.28,10.51 -6.65,13.54 -5.52,0.11 -12.57,-1.84 -14.37,-7.8 1.76,-6.65 -1.68,-13.51 0.49,-20.19 -1.2,-5.05 0.97,-10.25 -0.85,-15.36 -9.56,-3.7 -18.21,-9.41 -25.88,-16.09 -8.33,0.6 -16.34,3.92 -24.78,3.82 -4.29,1.05 -9.8,0.21 -12.59,4.39 0.04,3.6 -1.51,9.7 3.76,9.97 10.91,-3.43 23.43,1.88 28.84,11.84 0.87,5.37 -0.48,12.18 -5.41,15.27 -8.19,3.32 -16.55,-1.77 -24.51,-3.58 -4.13,-2.26 -9.26,0.2 -13.1,-2.7 -0.65,-4.06 3.42,-4.08 6.06,-2.78 10.36,-0.85 20.17,7.87 30.27,4.04 7.63,-9.21 -5.18,-18.52 -14.05,-17.98 -5.34,0.48 -11.77,1.65 -15.74,-2.88 -3.34,-6.49 -1.87,-15.62 5.61,-18.45 10.29,-1.77 20.98,-2.16 30.96,-5.63 -4.05,-3.31 -5.99,-8.57 -10.04,-11.74 -4.63,1.62 -8.95,4.87 -14.08,4.28 -15.13,1.38 -27.56,-10.38 -33.97,-22.98 -5.28,-12.18 -6.42,-26.97 -17.2,-35.99 -6.91,-3.55 -16.81,-5.04 -22.76,1.1 -5.34,7.21 -5.18,16.73 -0.52,24.27 2.77,9.41 8.05,18.32 8.99,28.16 -2.74,15.73 -22.35,20.91 -35.56,15.31 -11.51,-2.14 -19.06,-11.82 -24.23,-21.54 -5.99,-13.5 -14.55,-28.13 -9.81,-43.33 -4.32,-6.26 -12.42,-7.23 -19.07,-9.62 -6.49,-0.82 -12.75,-3.82 -19.36,-3.16 -3.98,9.62 -1.37,20.11 0.21,30.09 5.07,14.61 -7.15,31.78 -22.28,32.99 -6.21,14.15 -16.89,25.69 -29.48,34.43 12.71,8.63 28.59,16.31 44.11,11.02 8.17,0.09 16.17,-1.57 23.93,-4.13 4.78,0.24 9.64,2 13.85,4.38 8.29,6.5 11,17.19 13.12,26.99 -0.81,5.41 -3.99,9.92 -5.98,14.89 0.72,6.17 3.96,12.33 8.6,16.57 8.26,3.78 17.77,0.81 25.03,-3.87 8.09,-9.9 21.12,-13.1 32.98,-16.1 6.75,-3.07 13.89,-5.49 21.29,-6.38 6.1,-2.09 7.83,-8.93 7.74,-14.69 -0.98,-5.94 -6.73,-9.73 -12.21,-11.13 -0.1,-1.27 -0.06,-2.53 0.1,-3.77 5.68,-0.83 9.93,3.83 13.81,7.23 6.27,7.6 2.48,19.36 -4.39,25.17 -8.74,2.42 -17.72,4.33 -26.07,8.09 -11.63,2.24 -23.27,6.63 -31.12,15.88 -9.82,5.78 -24.63,9.2 -33.5,0.02 -3.2,-5.11 -7.11,-10.51 -6.48,-16.87 -0.59,-5.36 4.54,-8.9 5.06,-13.94 -0.79,-12.53 -7.43,-27.43 -21.79,-28.28 -9.18,5 -19.88,2.74 -29.62,5.67 -15.8,2.45 -30.76,-5.61 -43.09,-14.67 -12.15,7.09 -26.32,10.52 -40.38,9.93 -3.54,-0.51 -4.48,3.52 -5.13,6.14 -1.32,5.44 -6.61,8.24 -11.17,10.64 -6.15,1.43 -11.06,-3.19 -16.6,-4.84 -3.86,1.33 -9.06,2.54 -9.73,7.33 2.13,9.43 13.3,16.67 22.71,13.42 11.87,0.58 21.11,12.17 21.59,23.54 -2.22,7.74 -10.7,13.05 -18.65,12.45 -5.33,-2.1 -10.81,-3.94 -15.51,-7.32 -0.73,-2.13 1.39,-5.07 3.53,-3.3 3.89,2.91 8.6,4.22 12.9,6.37 6.48,0.12 14.72,-6.1 12.17,-13.27 -2.78,-7.38 -9.25,-15.38 -18.1,-13.36 -12.21,1.81 -29.47,-10.07 -23.95,-23.53 4.84,-6.32 15,-9.07 21.62,-3.68 6.86,6.18 16.55,-4.1 15.74,-10.67 -23.49,-2.83 -45.64,-15.81 -59.58,-35.03 1.78,9.5 9.57,17.36 8.11,27.46 -1.32,8.74 -13.79,15.95 -20.87,9.06 -6.14,-6.6 -14.12,-11.17 -22.06,-15.26 -3.61,-0.42 -7.84,-0.32 -10.34,2.75 -6.26,14.86 0.46,30.2 5.28,44.38 1.67,2.96 2.54,9.3 -2.62,7.49 -3.67,-11.75 -8.72,-23.22 -10.38,-35.48 -1.05,-5.54 2.27,-10.34 2.25,-15.76 1.56,-6.6 9.16,-7.92 14.83,-8.64 10.43,4.83 20.6,10.46 28.63,18.89 6.5,-0.03 13.87,-7.59 9.88,-14.09 -2.77,-11.9 -12.71,-22.94 -9.93,-35.48 -3.99,-9.98 -7.33,-21.72 -5.8,-32.4 -5.51,-5.34 -8.97,-12.29 -12.62,-18.91 -4.31,-7.48 -13.23,-11.62 -21.62,-10.85 -10.01,2.73 -12.38,15.49 -9.4,24.22 -1.24,15.1 -16.41,26.78 -31.18,27.06 -8.05,-1.52 -17.86,-5.01 -19.84,-13.99 0.68,-7.51 1.82,-15.24 0.59,-22.76 -5.44,-14.97 -22.389999,-20.49 -36.769999,-22.18 -8.88,2.18 -17.81,7.42 -22.76,15.28 -1.61,11.62 -7.59,22.67 -4.35,34.46 -1.72,0.16 -3.8,0.63 -5.09,-0.88 -1.87,-12.55 2.33,-24.57 5.49,-36.51 5.3,-7.97 13.85,-13.11 22.67,-16.45 13.24,-1.09 26.879999,3.69 37.039999,12.07 6.59,5.72 10.8,15.27 8.51,23.86 -0.12,4.84 -0.22,9.69 0.03,14.53 3.77,4.91 9.81,6.83 15.62,8.09 11.32,-0.37 19.93,-8.98 24.77,-18.59 0.96,-6.88 -3.06,-14.07 0.5,-20.63 3.12,-4.53 5.89,-9.98 11.23,-12.19 9.51,-1.6 19.77,1.92 26.21,9.09 3.83,5.78 6.4,12.38 10.98,17.66 2.12,-7.08 3.13,-14.67 6.35,-21.48 0.46,-4.66 5.62,-7.59 4.63,-12.46 -3.92,-5.75 -11.21,-7.85 -14.75,-13.96 -2.99,-5.73 -5.67,-12.61 -3.15,-19.03 3.82,-13.75 13.12,-28.11 6.5,-42.5 -1.37,-10.84 -9.57,-22.02 -21.61,-21.12 -12.12,-4.67 -23.12,6.63 -25.68,17.73 -1.19,7.3 -8.7,10.34 -14.37,13.66 -9.9,3.29 -19.83,-2.98 -26.69,-9.77 -7.6,-5.9 -12.45,-15.07 -13.66,-24.58 -2.32,-5.48 -5.55,-11.23 -11.299999,-13.68 -6.97,-2.63 -14.83,0.79 -21.68,-2.42 -1.8,-5.31 4.38,-3.97 7.63,-3.5 3.64,1.94 7.29,-1.48 11.01,-0.02 10.729999,1.81 18.289999,12.08 19.969999,22.35 2.25,9.27 8.39,17.28 16.37,22.43 4.84,3.2 10.92,7.94 16.88,4.67 4.6,-2.83 10.66,-5.17 11.59,-11.21 1.18,-9.51 9.37,-15.52 16.73,-20.47 11.62,-0.86 25.58,-0.75 33.41,9.38 5.33,8.43 7.42,18.41 9.1,28.11 -1.34,11.74 -6.62,22.63 -10.02,33.87 -0.72,5.08 0.88,10.14 3.68,14.36 3.73,4.83 9.8,6.91 13.64,11.65 5.3,-2.11 7.25,-9.27 12.64,-11.88 11.33,-11.15 26.73,-16.3 41.78,-20.05 -6.83,-6.19 -16.78,-8.73 -22.08,-16.69 -4.72,-5.72 -8.47,-14.35 -4.17,-21.35 3.02,-9.04 12.85,-12.23 21.21,-14.3 10.87,-1.31 21.86,-0.02 32.21,3.55 6.47,0.17 14.27,1.17 19.11,-4.14 2.82,-3.46 1.86,-7.81 0.54,-11.67 -5.25,-4.65 -11.96,-7.25 -18.87,-8.1 -9.62,-3.37 -10.96,-15.93 -6.35,-23.87 3.03,-4.11 3.02,-11.55 -2.55,-13.35 -4.82,0.91 -8.86,3.88 -13.45,5.44 -8.8,4.12 -13.85,13.32 -16.41,22.31 -2.32,8.16 -8.46,14.53 -15.5,18.97 -13.32,11.94 -39.74,8.24 -45.14,-10.21 -5.26,-10.12 6.75,-19.62 3.97,-29.84 -2.6,-2.46 -6.67,-7.01 -10.27,-3.65 -11.48,7.37 -26.57,14.22 -39.55,6.39 -8.59,-6.33 -6.16,-20.54 2.03,-26.14 6.33,-4.14 12.76,-8.18 19.73,-11.15 7.27,-2.69 15.1,-0.84 22.62,-1.66 8.17,-1.98 16.29,-4 24.35,-6.37 10.56,-1.63 16.6,-13.22 15.42,-23.15 -0.62,-4.55 2.12,-11.08 -3.42,-13.28 -3.76,-3.86 -8.92,-0.4 -11.54,3 -5.89,6.93 -13.82,12.15 -22.75,14.16 -6.34,2.68 -13.54,4.62 -20.41,2.95 -5.78,-2.68 -7.97,-11.75 -2.89,-16.18 2.74,-2.4 4.92,-5.32 6.75,-8.45 -16.12,2.66 -32.83,-1.24 -47.7,-7.68 -5.51,4.48 -13.7,4.16 -18.25,9.95 0.22,2.8 -1.35,6.72 1.51,8.52 6.87,4.5 13.12,9.92 20.53,13.59 5.05,5.71 7.62,15.51 2.09,21.82 -5.4,5.57 -13.65,7.92 -21.23,6.17 -5.67,-2.44 -9.53,-7.65 -15.39,-9.63 -7.22,1.61 -13.27,7.48 -13.06,15.19 0.97,3.1 0.44,6.36 0.65,9.54 1.77,3.83 5.56,6.32 7.08,10.32 -1.56,4.75 -3.42,11.74 -9.57,11.78 -10.879999,2.05 -18.569999,-8.38 -28.999999,-9.16 -4.98,-1.12 -10.18,-0.85 -15.21,-0.96 -12.45,2.76 -16.41,16.47 -26.29,22.86 -4.34,4.15 -9.12,9.77 -15.69,9.23 -1.84,-4.47 3.15,-5.07 5.75,-7.2 6.06,-5.57 13.06,-10.32 17.2,-17.62 4.55,-5.32 10.43,-10.07 17.28,-12.02 7.99,-1.22 15.98,0.5 23.83,2.03 6.66,2.5 12.46,7.27 19.62,8.38 3.729999,-0.17 5.399999,-3.52 7.029999,-6.36 -7.619999,-6.9 -8.299999,-17.78 -6.909999,-27.31 2.269999,-7 9.289999,-11.75 16.309999,-12.88 9.16,-0.81 14.09,10.59 23.08,9.98 5.89,-1.05 14.6,-5.22 12.64,-12.54 -1.83,-11.47 -15.44,-12.9 -22.32,-20.6 -8.61,-4.06 -6.53,-18.26 2.03,-21.21 3.56,-1.71 8.16,-1.6 10.76,-4.92 -13.8,-9.24 -25.22,-21.65 -32.85,-36.39 -3.21,9.2 -7.78,17.93 -9.359999,27.65 -1.28,8.36 4.029999,15.97 3.569999,24.29 -2.639999,10.81 -14.379999,19.64 -25.549999,15.28 -6.21,-4.18 -13.12,-9.5 -14.47,-17.29 0.45,-10.25 -0.39,-21.18 -5.68,-30.06 -6.22,3.86 -3.26,12.12 -3.19,17.98 -4.94,19.25 3.45,38.46 2.04,57.93 -0.1,1.66 -2.24,2.43 -3.69,2.09 -3.12,-4.82 -0.11,-10.88 -2.2,-16.03 -0.63,-12.67 -4.66,-25.29 -2.22,-37.92 0.15,-6.67 -0.28,-13.36 0.15,-20.01 0.6,-6.23 8.39,-10.54 13.69,-6.65 4.67,8.38 7.01,18.07 6.28,27.66 -1.13,8.69 6.65,15.17 13.62,18.73 9.14,1.77 16.55,-8.41 15.96,-16.8 -1.9,-5.16 -2.65,-10.62 -3.97,-15.92 1.54,-13.2 7.799999,-25.33 12.299999,-37.53 -4.37,-14.92 -6.609999,-31.1 -1.7,-46.18 -3.25,-4.53 -6.419999,-9.18 -9.279999,-13.92 -2.46,-4 -9.01,-1.33 -6.95,3.32 4.76,13.59 -4.9,30.57 -19.65,31.73 -8.44,-0.76 -16.9,-4.62 -22.17,-11.43 -3.17,-5.15 -2.23,-11.32 -2.2,-17.05 2.9,-10.02 10.75,-18.8 10.83,-29.5 -3.16,-10.09 -15.34,-6.93 -22.98,-10.27 -0.48,-5.499999 6.23,-3.469999 9.46,-2.729999 8.85,-1.18 18.4,5.279999 18.85,14.559999 -1.15,11.73 -10.59,21.17 -11.04,33 -2.21,12.92 14.36,21.5 25.21,16.9 5.17,-3.49 7.97,-9.14 10.38,-14.69 0.69,-4.24 -2.39,-7.99 -2.04,-12.23 -0.63,-6.6 8.22,-10.7 13.49,-7.88 4.829999,3.15 5.459999,10.17 10.139999,13.03 5.49,-14.72 15.45,-27.69 28,-37.02 0.08,-12.029999 0.23,-24.119999 3.4,-35.809999 2.06,-3.86 5.77,-6.56 7.29,-10.74 1.28,-6.98 1.13,-16.6 -6.62,-19.73 -12.36,-7.3 -26.58,-1.4 -39.589999,0.7 -13.56,1.49 -26.52,10.36 -40.42,6.49 -8.74,0.83 -15.91,-4.4 -23.46,-7.66 -2.87,-1.38 0.64,-3.68 2.08,-4.69 8.44,4.62 17.56,8.38 27.36,8.12 10.97,1.08 20.67,-5.33 31.3,-6.46 8.989999,-2.03 18.039999,-3.78 27.199999,-4.87 9.5,0.2 20.3,2.82 25.55,11.51 3.38,5.96 2.4,13.37 0.73,19.76 -1.81,4.53 -7.22,7.05 -7.53,12.29 -1.73,8.76 -2.58,17.84 -1.61,26.7 19.41,-11.2 42.74,-15.31 64.4,-10.39 -1.7,-8.37 -1.64,-17.2 -5.51,-24.99 -1.33,-6.84 -3.4,-14.62 0.66,-20.99 3.76,-2 5.55,-7.01 10.27,-7.03 5.48,-1.42 7.58,5.24 11.56,7.59 3.38,-0.11 8.11,-2.78 6.63,-6.82 -2.63,-7.79 -4.63,-19.34 5.62,-22 m 39.07,76.3 c -5.89,2.42 -11.24,6.57 -15.13,11.619999 -2.76,5.88 -2.74,12.83 -6.95,18.12 18.34,23.65 20.35,57.48 6.83,83.87 9,-0.14 18.02,0.27 27,-0.22 7.33,-2.1 15.75,1.32 22.38,-3.44 6.69,-5.16 14.36,1.63 19.52,5.82 3.68,8.86 -1.7,19.27 -8.41,25.3 -7.81,3.63 -16.58,3.64 -24.9,5.13 -10.18,2.41 -18.4,10.75 -21.78,20.46 -0.43,13.19 5.79,30.56 21.14,31.5 14.73,4.82 27,-7.83 40.96,-9.61 12.98,-3.56 26.94,1.43 37.06,9.71 5.16,2.44 10.69,3.96 15.93,6.22 5.29,3.02 11.2,-2.34 13.03,-6.81 -2.85,-10.25 -1.39,-21.22 -5.95,-31.16 -0.74,-8.85 5.39,-20.6 15.37,-20.29 15.96,-5.34 32.83,-8.14 47.71,-16.3 -7.85,-7.79 -12.48,-18.68 -17.16,-28.02 -12.33,0.36 -23.76,6.38 -35.94,7.97 -11.53,-0.9 -22.84,-6.12 -30.95,-14.39 -7.69,-10.17 -3.97,-25.75 5.93,-33.05 4.62,-10.18 4.96,-21.81 4.97,-32.86 0.56,-2.28 -1.75,-4.35 -3.91,-3.09 -12.51,2.38 -20.03,14.63 -33.14,15.85 -13.61,5.75 -31.56,2.02 -39.57,-11.05 -6.93,-6.98 -4.64,-20.04 -14.39,-24.649999 -6.15,-2.99 -12.28,-9.25 -19.65,-6.63 m -93.08,0.89 c -32.9,1.81 -63.83,26.259999 -70.88,58.709999 -6.31,24.52 1.97,51.19 19.56,69.09 17.22,19.75 45.73,27.27 71.09,22.81 35.45,-6.5 63.97,-41.06 61.91,-77.15 -0.76,-31.78 -23.97,-62.01 -54.87,-70.169999 -8.63,-2.6 -17.78,-4.95 -26.81,-3.29 m 326.1,0.07 c -33.27,3.19 -62.5,32.189999 -65.35,65.639999 0.31,10.52 -1.41,21.65 3.52,31.42 6.85,25.72 29.3,44.89 54.56,51.65 36.55,9.21 78.7,-11.64 91.37,-47.67 1.32,-5.36 5.46,-11.57 2.73,-16.78 -4.58,-1.55 1.41,-1.81 1.48,-4.1 1.71,-15.69 -2.56,-31.72 -10.98,-45.1 -15.76,-25.75 -47.6,-39.659999 -77.33,-35.059999 m -118.41,25.309999 c 1.27,4 1.85,8.33 0.31,12.36 -0.18,11.23 -0.99,25.07 -10.95,32.17 -4.82,8.43 -5.03,21.64 4.76,26.59 7.9,4.98 17.3,8.46 26.82,7.11 9.76,-3.5 20.08,-5.22 29.98,-8.15 -5.4,-17.97 -3.59,-37.99 4.26,-55.08 -4.88,1.52 -10.04,0.75 -15.06,0.91 -15.03,-0.64 -25.03,-15.41 -40.12,-15.91 m -76.65,86.7 c -2.54,1.04 -4.84,2.57 -7.36,3.64 -16.18,1.14 -32.27,2.58 -48.57,2.32 -12.65,17.13 -29.79,32 -51.15,36.43 -4.73,5.21 -9.67,10.53 -14.2,16.04 1.02,2 1.86,4.16 3.29,5.93 9.1,1.67 16.93,-3.87 25.31,-6.25 9.48,-2.83 12.94,-13.87 22.38,-16.59 5.56,-0.01 11.15,3.8 13.15,9.03 3,13.51 -0.25,30.8 -13.9,37.36 -12.92,3.33 -25.63,8.76 -39.23,7.66 -11.78,-1.36 -21.26,6.79 -30.75,12.27 -7.93,4.79 -6.8,20.32 3.73,20.33 9.66,2.74 18.8,-3.45 27.17,-7.62 7.07,-6.14 17.63,0.04 19.88,8.01 0.36,6.18 -3.46,11.41 -4.71,17.3 -3.52,6.7 0.33,14.35 5.67,18.78 5.6,5.39 13.91,4.4 21.03,4.28 7.13,-1.06 11.91,-6.81 17.61,-10.61 7.12,-6.74 7.35,-17.41 13.1,-25.05 5.4,-10.85 18.31,-13.35 28.42,-17.88 4.57,0.7 6.86,5.82 9.24,9.35 1.6,7.28 -5.38,12.93 -4.8,20.14 0.99,3.37 2.32,6.95 5.39,8.97 8.97,0.3 17.86,4.62 23.35,11.78 0.27,3.75 -0.11,7.51 0.08,11.27 4.94,-7.01 13.5,-1.59 19.55,-4.31 10.99,-9.79 5.73,-25.82 0.17,-37.14 -8.03,-10.94 -21.36,-16.99 -27.6,-29.39 -2.7,-9 0.46,-21.59 10.52,-24.45 7.16,-1.15 14.48,-0.25 21.3,2.09 -12.52,-8.84 -28.67,-3.78 -41.35,2.15 -13.26,7.54 -32.66,6.59 -42.95,-5.46 -7.06,-11.15 -12.98,-28.7 -1.48,-38.89 7.84,-11.81 22.46,-14.24 35.54,-15.04 10.15,-0.69 14.88,-12.01 14.02,-20.92 -3.61,-2.3 -7.27,-6.07 -11.85,-5.53 m 148.87,21.26 c -16.19,6.92 -33.28,11.53 -50.13,16.39 -8.4,-0.36 -12.48,10.36 -10.34,17.35 2.51,7.01 3.08,14.43 3.26,21.71 1.53,4 2.05,8.57 0.76,12.71 -4.82,2.42 -7.54,9.34 -13.79,8.19 -5,-1.41 -9.56,-4.21 -14.72,-5.2 3.74,6.16 4.11,13.71 8.76,19.42 10.56,10.16 27.4,7.96 38.71,16.88 4.03,5.3 6.68,13.21 2.59,19.21 6.77,1.63 13.78,2.32 20.77,2.19 5.18,0.34 9.18,-4.37 14.35,-4.04 8.17,-0.44 15.57,-5.13 20.23,-11.73 -1.57,-14.78 -16.85,-26.23 -31.52,-24.95 -5.83,-1.62 -11.79,-2.78 -17.57,-4.51 -6.96,-3.68 -10.24,-11.77 -10.68,-19.3 1.02,-7 5.98,-13.03 12.4,-15.88 7.66,-1.53 15.16,1.71 22.75,-0.01 16.14,-1.73 29.01,-17.45 28.53,-33.49 -8.96,-3.54 -16.42,-10.46 -24.36,-14.94 m 102.32,8.9 c -8.69,6.12 -18.92,9.52 -29.1,12.05 -2.91,5.86 -4.66,14.2 0.68,19.37 3.71,5.57 10.7,1.68 15.87,1 5.4,1.1 10.38,3.73 15.93,4.22 4.8,0.63 4.12,6.33 7.38,8.81 4.49,5.34 1.31,12.82 -3.27,16.97 -4.75,8.58 -16.39,11.52 -24.99,7.25 -7.44,-3.23 -17.57,-4.74 -22.95,2.81 -5.29,5.41 -1.39,14.1 4.32,17.36 3.74,1.22 7.91,1.07 11.42,2.96 2.68,3.5 3.08,10.81 -2.04,12.27 -4.02,0.41 -8.13,-0.24 -12.09,0.79 -8.82,-0.19 -13.87,-8.32 -21.03,-12.02 -5.19,0.37 -9.91,3.7 -11.95,8.58 3.83,13.05 17.1,21.96 30.42,22.47 14.21,1.52 30.55,5.02 42.95,-4.53 5.29,-7.14 10.04,-16.11 19.88,-17.28 10.48,-7.68 22.87,0.28 29.38,9.12 3.09,11.28 3.98,23.34 8.7,34.18 2.2,7.75 3.47,16.6 -1.65,23.45 -5.97,4.2 -12.2,8.48 -16.35,14.62 -5.03,5.01 -9.8,11.48 -8.84,18.98 -0.43,2.71 1.91,8.13 5.14,5.33 17.47,-13.4 40.55,-18.6 62.18,-15.24 5.66,-17.01 -6.15,-33.47 -18.6,-43.92 -7.37,-9.86 -10.16,-26.25 0.07,-35.21 7.56,-5.51 16.8,-8.65 26.02,-9.22 6.61,1.79 14.77,3.76 20.44,-1.33 7.45,-7.8 0.57,-18.92 -4.79,-25.83 -9.75,-5.87 -22.53,-11.93 -33.62,-5.81 -11.63,5.09 -24.26,2.36 -36.3,1.62 -9.28,-5.01 -20.51,-11.77 -21.74,-23.33 1.33,-10.33 7.81,-20.38 17.5,-24.74 6.49,-3.34 13.79,0.24 20.42,0.4 6.1,-1.48 13.07,-1.05 17.95,-5.65 3.3,-4.37 2.29,-11.46 -2.22,-14.56 -5.02,-1.82 -10.39,-2.12 -15.56,-3.25 -8.43,-0.68 -15.96,4.31 -24,5.83 -9.25,-0.41 -18.95,1.53 -27.67,-2.46 -6.14,-1.25 -11.95,-5.9 -17.89,-6.06 m -72.27,8.48 c -2.28,9.45 -6.11,19.08 -13.08,26.15 -9.55,8.02 -22.85,11.99 -35.09,8.87 -7.14,-1.41 -15.03,3.61 -16.01,10.94 -0.21,5.67 1.49,12.06 6.34,15.51 7.48,2.03 14.89,4.49 22.64,5.18 8.87,-0.44 15.59,6.22 22.39,10.94 5.69,3.87 5.23,11.99 8.98,16.63 0.18,-7.21 7.53,-11.54 13.62,-13.61 10.16,-1.21 14.26,12.3 24.41,11.71 3,-1.44 6.22,-0.77 9.17,0.38 2.45,-2.11 0.7,-5.79 -2.4,-5.64 -9.47,-0.2 -17.15,-9.01 -16.72,-18.26 2,-9.5 12.06,-16.29 21.62,-14.99 5.11,1.42 10.4,2.34 15.19,4.72 7.78,1.79 13.32,-5.4 17.79,-10.56 4.09,-5.75 -1.99,-10.85 -4.41,-15.74 -6.92,-0.05 -13.26,-5.48 -20.19,-2.69 -3.99,0.6 -9.02,1.62 -12.06,-1.72 -7.95,-5.07 -7.02,-15.94 -4.95,-23.9 -12.39,2.35 -25.34,-0.37 -37.24,-3.92 m -146.78,46.42 c -9.97,-0.34 -14.4,12.32 -10.86,20.22 5.53,9.17 14.67,15.19 22.32,22.37 8.12,9.39 12.27,22.36 11.31,34.69 3.5,-7.97 12.33,-11.51 20.23,-13.49 8.66,-3.9 18.33,-2.8 27.52,-2.52 4.05,2.3 9.3,-1.04 8.93,-5.67 -0.6,-8.9 -9.9,-13.72 -17.87,-14.31 -7.86,-1.37 -14.83,-5.46 -22.06,-8.58 -8.65,-6.93 -7.81,-19.53 -14.13,-27.88 -8.73,-0.05 -16.82,-5.12 -25.39,-4.83 m 142.27,50 c -5.95,8.94 -15.65,15.91 -26.82,15.37 -11.59,7.6 -25.41,1.92 -37.98,1.98 -6.47,3.11 -10.06,10.52 -13.63,16.49 1.98,13.39 19.32,12.68 28.7,7.78 9.95,-6.44 21.95,-6.76 33.11,-9.57 15.76,-4.45 33.14,4.71 40.84,18.67 9.88,17.04 20.81,33.32 32.52,49.15 11.19,10.42 24.99,19.95 40.63,21.15 3.22,-4.32 7.21,-8.02 10.97,-11.91 -4.58,-6.94 -5.17,-15.43 -1.28,-22.83 5.85,-9.8 13.86,-18.36 23.58,-24.38 2.21,-3.31 3.07,-7.48 2.52,-11.41 -2.47,-10.06 -5.55,-19.85 -7.9,-29.91 -0.8,-6.2 -1.21,-14.38 -8.27,-16.79 -3.3,-3.99 -8.7,-4.2 -13.35,-2.97 -5.11,3.27 -12.55,3.09 -15.69,9.01 -4.36,10.45 -15.77,16.06 -26.64,16.39 -8.72,-0.15 -17.55,0.67 -26.08,-1.61 -15.18,-0.06 -30.04,-10.8 -34.77,-25.24 -0.11,0.16 -0.35,0.47 -0.46,0.63 m -91.4,15.93 c -8.84,2.56 -19.48,4.88 -23.95,13.89 2.6,7.76 4.1,16.38 9.83,22.59 6.67,9.67 17.91,14.85 28.74,18.47 17.43,3.63 35.88,2.56 52.68,9.23 4.98,2.41 8.13,7.66 13.54,9.34 5.84,3.12 14.28,4.11 16.62,11.32 -0.31,2.95 -1.61,5.89 -3.24,8.38 -7.83,7 -19.25,3.81 -28.56,6.6 -18.22,-4.15 -36.47,-7.92 -54.98,-10.06 -19.03,-3.02 -38.27,1.77 -55.75,9.12 10.41,9.59 19.02,21.52 23.6,34.91 4.55,-2.8 8.73,-6.14 14.03,-7.54 0.12,-9.26 4.12,-18.65 11.89,-23.96 7.39,-6.59 19.77,-6.3 26.42,1.2 11.63,8.53 12.81,24.92 10.95,37.93 10.07,6.17 24.43,9.41 34.49,1.52 5.24,-6.17 8.08,-13.95 12.79,-20.44 2.78,-10.42 12.96,-15.98 22.58,-18.81 15.95,-2.69 28.31,10.8 36.01,22.95 7.12,7.53 17.07,11.11 26.8,13.92 1.76,-11.13 6.51,-21.64 11.38,-31.69 -2.76,-0.15 -5.72,0.39 -8.19,-1.14 -17.5,-6.2 -33.83,-17.86 -42.74,-34.37 -8.35,-11.8 -16.61,-23.65 -23.37,-36.46 -5.79,-10.23 -17.18,-16.93 -28.83,-17.69 -6.15,0.71 -12.04,2.72 -18.14,3.76 -9.72,0.14 -17.95,6.21 -26.89,9.24 -6.49,1.86 -13.42,1.04 -19.9,-0.43 -5.55,-2.48 -8.53,-8.38 -9.21,-14.13 1.73,-6.93 7.42,-11.79 10.95,-17.78 -6.37,-0.9 -13.18,-0.97 -19.55,0.13 m -29.01,13.9 c -2.35,4.92 -4.63,10.81 -10.1,12.97 -3.95,1.28 -7.98,-0.53 -11.91,-0.67 -5.97,2.93 -10.13,8.85 -12.76,14.82 0.29,8.42 -3.66,16.51 -2.7,24.91 0.6,6.19 -1.22,12.66 0.08,18.77 5.5,3.61 12.07,6.84 16.97,10.93 20.67,-8.88 43.93,-13.73 66.26,-9.23 14.52,1.66 29.14,3.5 43.16,7.91 8.93,1.04 18,-0.06 26.73,-1.94 4.13,-0.76 8.29,-7.67 3.31,-10.06 -8.14,-3.2 -17.24,-5.61 -22.79,-12.96 -17.71,-8.13 -37.94,-5.7 -56.39,-10.72 -16.54,-5.47 -32.61,-17.52 -36.76,-35.24 -1.34,-2.72 -2.22,-9.03 -3.1,-9.49 m -83.62,17.51 c -5.94,0.77 -11.97,2.34 -16.8,6.06 -6.45,5.82 -6.55,16.67 -0.37,22.73 6.88,8.5 18.07,11.41 25.49,19.33 11.18,0.08 22.58,-0.21 33.14,4.19 0.49,-16.96 -1.32,-35.04 6.04,-50.8 -15.73,7.39 -31.52,-3.7 -47.5,-1.51 m 358.87,45.85 c -34.66,2.33 -64.25,33.08 -67.23,67.38 0.76,7.45 -2.13,14.68 0.72,21.89 7.07,34.39 40.63,60.39 75.11,60.47 36.81,1.76 71.66,-27.17 78.33,-63.08 4.6625,-13.293 -0.001,-48.761 -28.91,-70.85 -16.22,-12.95 -37.54,-18.21 -58.02,-15.81 m -356.05,6.92 c -17.5,2.97 -34.57,11.08 -46.17,24.75 -22.08,22.91 -26.75,60.45 -10.26,87.68 14.52,25.66 44.9,40.5 73.97,38.5 16.13,-1.68 31.26,-8.54 44.08,-18.36 13.57,-11.9 23.04,-28.84 25.01,-46.85 4.2793,-17.842 -2.05837,-45.846 -22.98,-65.35 -16.36,-16.86 -40.72,-23.03 -63.65,-20.37 m 123.97,17.97 c -10.57,3.11 -15.98,13.1 -17.36,23.41 14.08,0.54 28.42,4.19 40.66,11.29 -0.01,-5.39 0.68,-10.93 -1.19,-16.11 -1.59,-9.93 -11.67,-20.12 -22.11,-18.59 m 98.84,5.94 c -8.29,1.7 -16.37,7.39 -19.19,15.58 -5.02,7.96 -8.56,17.11 -15.48,23.68 -11.36,8.54 -27,5.28 -38.13,-1.87 -4.91,10.53 3.16,21.03 5.74,31.12 5.15,10.85 11.79,23.13 24.26,26.52 4.76,2.18 10.09,0.36 15,1.81 8.07,-0.51 15.81,-7.73 15,-16.15 -3.75,-10.42 -7.2,-20.97 -11.74,-31.1 -1.36,-7.66 0.27,-15.87 5.33,-21.99 7.77,-6.39 19.54,-5.85 27.97,-1.13 13.24,9.12 13.79,26.5 20.56,39.67 4.32,9.17 12.56,16.45 22.4,19.09 6.04,0.44 13.83,-0.78 17.94,-4.72 -7.16,-13.36 -10.12,-28.45 -8.88,-43.53 -12.47,-3.37 -25.53,-8.46 -32.81,-19.82 -5.7,-9.5 -16.15,-18.93 -27.97,-17.16 m -122.87,24.02 c -3.76,1.27 -6.45,4.21 -9.05,7.07 -1.2,5.26 2.12,10.19 1.69,15.39 -0.16,11.08 -1.53,22.22 -4.95,32.85 9.78,-1.81 17.2,-12.99 15.77,-22.82 -1.79,-10.87 -4.92,-22.18 -1.79,-33.15 -0.41,0.17 -1.25,0.5 -1.67,0.66 z" sodipodi:nodetypes="cccccccccccccccccccccccccccccccccccccccccccccccccccccccccccccccccccccccccccccccccccccccccccccccccccccccccccccccccccccccccccccccccccccccccccccccccccccccccccccccccccccccccccccccccccccccccccccccccccccccccccccccccccccccccccccccccccccccccccccccccccccccccccccccccccccccccccccccccccccccccccccccccccccccccccccccccccccccccccccccccccccccccccccccccccccccccccccccccccccccccccccccccccccccccccccccccccccccccccccccccccccccccccccccccccccccccccccccccccccccccccccccccccccccccccccccccccccccccccccccccccccccccccccccccccccccccccccccccccccccccccccccccccccccccccccccccccccccccccccccccccccccccccccccccccccccccccccccccccccccccccccccccccccccccccccccccccccccccccccccccccccccccccccccccccccccccccccccccccccccccccccccccccccccccccccccccccccccccccccccccccccccccccccccccccccccccccc"/>
  <path style="fill:none;stroke:#000000;stroke-width:2.4000001;stroke-linecap:butt;stroke-linejoin:miter;stroke-miterlimit:4;stroke-opacity:1;stroke-dasharray:none" d="m 216.35857,674.07332 0,33.823" id="path2993" inkscape:path-effect="#path-effect2995" inkscape:original-d="m 216.35857,674.07332 c 0,33.823 0,33.823 0,33.823" inkscape:connector-curvature="0"/>
  <path style="fill:none;stroke:#000000;stroke-width:2.4000001;stroke-linecap:butt;stroke-linejoin:miter;stroke-miterlimit:4;stroke-opacity:1;stroke-dasharray:none" d="m 215.96979,688.45732 505.01378,0" id="path2997" inkscape:path-effect="#path-effect2999" inkscape:original-d="m 215.96979,688.45732 c 330.84428,1.166 505.01378,0 505.01378,0" inkscape:connector-curvature="0"/>
  <path style="fill:none;stroke:#000000;stroke-width:2.4000001;stroke-linecap:butt;stroke-linejoin:miter;stroke-miterlimit:4;stroke-opacity:1;stroke-dasharray:none" d="m 720.98357,674.07332 0,30.712" id="path3001" inkscape:path-effect="#path-effect3003" inkscape:original-d="m 720.98357,674.07332 0,30.712" inkscape:connector-curvature="0"/>
  <text xml:space="preserve" style="font-size:17.60000038px;font-style:normal;font-variant:normal;font-weight:normal;font-stretch:normal;text-align:start;line-height:125%;letter-spacing:0px;word-spacing:0px;writing-mode:lr-tb;text-anchor:start;fill:#000000;fill-opacity:1;stroke:none;font-family:Liberation Sans;-inkscape-font-specification:Liberation Sans" x="434.94638" y="715.70544" id="text3773" sodipodi:linespacing="125%"><tspan sodipodi:role="line" id="tspan3775" x="434.94638" y="715.70544">1000 Å</tspan></text>
  <text xml:space="preserve" style="font-size:17.60000038px;font-style:normal;font-variant:normal;font-weight:normal;font-stretch:normal;text-align:start;line-height:125%;letter-spacing:0px;word-spacing:0px;writing-mode:lr-tb;text-anchor:start;fill:#000000;fill-opacity:1;stroke:none;font-family:Liberation Sans;-inkscape-font-specification:Liberation Sans" x="227.11989" y="521.07458" id="text3777" sodipodi:linespacing="125%"><tspan sodipodi:role="line" id="tspan3779" x="227.11989" y="521.07458">POLYSTYRENE</tspan></text>
  <text xml:space="preserve" style="font-size:17.60000038px;font-style:normal;font-variant:normal;font-weight:normal;font-stretch:normal;text-align:start;line-height:125%;letter-spacing:0px;word-spacing:0px;writing-mode:lr-tb;text-anchor:start;fill:#000000;fill-opacity:1;stroke:none;font-family:Liberation Sans;-inkscape-font-specification:Liberation Sans" x="585.08527" y="514.48279" id="text3777-1" sodipodi:linespacing="125%"><tspan sodipodi:role="line" id="tspan3779-7" x="585.08527" y="514.48279">POLYSTYRENE</tspan></text>
  <text xml:space="preserve" style="font-size:17.60000038px;font-style:normal;font-variant:normal;font-weight:normal;font-stretch:normal;text-align:start;line-height:125%;letter-spacing:0px;word-spacing:0px;writing-mode:lr-tb;text-anchor:start;fill:#000000;fill-opacity:1;stroke:none;font-family:Liberation Sans;-inkscape-font-specification:Liberation Sans" x="116.65105" y="173.60384" id="text3777-4" sodipodi:linespacing="125%"><tspan sodipodi:role="line" id="tspan3779-0" x="116.65105" y="173.60384">POLYSTYRENE</tspan></text>
  <text xml:space="preserve" style="font-size:17.60000038px;font-style:normal;font-variant:normal;font-weight:normal;font-stretch:normal;text-align:start;line-height:125%;letter-spacing:0px;word-spacing:0px;writing-mode:lr-tb;text-anchor:start;fill:#000000;fill-opacity:1;stroke:none;font-family:Liberation Sans;-inkscape-font-specification:Liberation Sans" x="450.93277" y="172.50423" id="text3777-9" sodipodi:linespacing="125%"><tspan sodipodi:role="line" id="tspan3779-4" x="450.93277" y="172.50423">POLYSTYRENE</tspan></text>
</svg>