<?xml version="1.0" encoding="UTF-8" standalone="no"?>
<!-- Created with Inkscape (http://www.inkscape.org/) -->

<svg
   xmlns:dc="http://purl.org/dc/elements/1.1/"
   xmlns:cc="http://creativecommons.org/ns#"
   xmlns:rdf="http://www.w3.org/1999/02/22-rdf-syntax-ns#"
   xmlns:svg="http://www.w3.org/2000/svg"
   xmlns="http://www.w3.org/2000/svg"
   xmlns:sodipodi="http://sodipodi.sourceforge.net/DTD/sodipodi-0.dtd"
   xmlns:inkscape="http://www.inkscape.org/namespaces/inkscape"
   width="140mm"
   height="57mm"
   viewBox="0 0 140 57"
   version="1.1"
   id="svg1357"
   inkscape:version="0.92.3 (2405546, 2018-03-11)"
   sodipodi:docname="Fig2.svg">
  <defs
     id="defs1351" />
  <sodipodi:namedview
     id="base"
     pagecolor="#ffffff"
     bordercolor="#666666"
     borderopacity="1.0"
     inkscape:pageopacity="0.0"
     inkscape:pageshadow="2"
     inkscape:zoom="0.98994949"
     inkscape:cx="210.07048"
     inkscape:cy="274.14214"
     inkscape:document-units="mm"
     inkscape:current-layer="layer1"
     showgrid="false"
     inkscape:window-width="1920"
     inkscape:window-height="1027"
     inkscape:window-x="0"
     inkscape:window-y="0"
     inkscape:window-maximized="1" />
  <metadata
     id="metadata1354">
    <rdf:RDF>
      <cc:Work
         rdf:about="">
        <dc:format>image/svg+xml</dc:format>
        <dc:type
           rdf:resource="http://purl.org/dc/dcmitype/StillImage" />
        <dc:title></dc:title>
      </cc:Work>
    </rdf:RDF>
  </metadata>
  <g
     inkscape:label="Calque 1"
     inkscape:groupmode="layer"
     id="layer1"
     transform="translate(0,-240)">
    <g
       transform="matrix(0.16284137,0,0,-0.16284137,18.767645,285.10809)"
       inkscape:label="Fig2a"
       id="g1910">
      <g
         id="g1912">
        <g
           id="g1914">
          <g
             id="g1916">
            <g
               transform="translate(157.166,168.497)"
               id="g1918">
              <g
                 id="g1920">
                <g
                   transform="translate(-235.018,-233.824)"
                   id="g1922">
                  <text
                     id="text1928"
                     style="font-variant:normal;font-weight:normal;font-size:14.34619999px;font-family:CMR12;-inkscape-font-specification:CMR12;writing-mode:lr-tb;fill:#000000;fill-opacity:1;fill-rule:nonzero;stroke:none"
                     transform="matrix(1,0,0,-1,235.018,248.269)">
                    <tspan
                       id="tspan1924"
                       sodipodi:role="line"
                       y="0"
                       x="0 8.969244 15.993144 28.488684 35.902802 39.804966 46.048431 60.870926 71.016556 74.918724 80.38176 88.186089 95.209991 103.01432">Topviewwithout</tspan>
                    <tspan
                       id="tspan1926"
                       sodipodi:role="line"
                       y="14.445"
                       x="0 5.4630327 13.267365 24.187693 30.43116 36.674625 42.137657 49.16156 60.868057 64.770226 75.704895 79.607063 87.397049 92.951897 100.74188 104.64405 111.66795 117.13098 124.15488 129.61792">theceramicinsulators</tspan>
                  </text>
                  <g
                     transform="translate(235.018,233.824)"
                     id="g1930" />
                </g>
              </g>
              <g
                 transform="translate(-157.166,-168.497)"
                 id="g1932" />
            </g>
          </g>
          <g
             id="g1934">
            <path
               inkscape:connector-curvature="0"
               id="path1936"
               style="fill:#000000;fill-opacity:1;fill-rule:nonzero;stroke:#000000;stroke-width:0.3985;stroke-linecap:butt;stroke-linejoin:miter;stroke-miterlimit:10;stroke-dasharray:none;stroke-opacity:1"
               d="m 0,102.04436 6.27998,1.49562 14.51772,-0.57274 7.35095,-0.50337 13.58217,3.24883 12.26775,-3.66834 -1.1e-4,157.31837 -9.26325,3.59242 -9.05284,-4.61198 L 24.7651,262.93964 11.79654,262.34726 -9e-5,259.36273 Z" />
          </g>
          <g
             id="g1938">
            <path
               inkscape:connector-curvature="0"
               id="path1940"
               style="fill:#999999;fill-opacity:1;fill-rule:nonzero;stroke:#000000;stroke-width:0.3985;stroke-linecap:butt;stroke-linejoin:miter;stroke-miterlimit:10;stroke-dasharray:none;stroke-opacity:1"
               d="m 0,127.55545 h 127.55545 l -1.50926,10.0811 -1.42127,10.35832 5.34922,13.34143 -2.88922,5.87424 -0.0994,11.84033 2.80745,6.91483 -5.22901,10.95984 3.79418,10.50627 -1.26006,12.31148 4.40189,4.84632 -3.94449,9.26214 L 0,233.85164 Z" />
          </g>
          <g
             id="g1942">
            <path
               inkscape:connector-curvature="0"
               id="path1944"
               style="fill:#999999;fill-opacity:1;fill-rule:nonzero;stroke:#000000;stroke-width:0.3985;stroke-linecap:butt;stroke-linejoin:miter;stroke-miterlimit:10;stroke-dasharray:none;stroke-opacity:1"
               d="m 0,127.55545 h -73.55698 l 0.22518,12.73286 2.67518,10.79669 -2.57398,9.8948 -3.83906,8.562 1.9278,7.3634 -2.01209,7.01754 2.81073,12.661 3.02434,10.58246 -2.92126,8.44415 1.62169,11.60538 -0.93853,6.63602 L 0,233.85164 Z" />
          </g>
          <g
             id="g1946">
            <path
               inkscape:connector-curvature="0"
               id="path1948"
               style="fill:#ff0000;fill-opacity:1;fill-rule:nonzero;stroke:#000000;stroke-width:0.3985;stroke-linecap:butt;stroke-linejoin:miter;stroke-miterlimit:10;stroke-dasharray:none;stroke-opacity:1"
               d="m 30.18805,187.08131 c 0,1.76119 -1.42769,3.18888 -3.18887,3.18888 -1.76119,0 -3.18888,-1.42769 -3.18888,-3.18888 0,-1.76118 1.42769,-3.18887 3.18888,-3.18887 1.76118,0 3.18887,1.42769 3.18887,3.18887 z" />
            <g
               id="g1950">
              <g
                 transform="translate(31.1,181.198)"
                 id="g1952">
                <g
                   id="g1954">
                  <g
                     transform="translate(-108.952,-246.525)"
                     id="g1956">
                    <text
                       id="text1960"
                       style="font-variant:normal;font-weight:normal;font-size:17.2154007px;font-family:CMR17;-inkscape-font-specification:CMR17;writing-mode:lr-tb;fill:#000000;fill-opacity:1;fill-rule:nonzero;stroke:none"
                       transform="matrix(1,0,0,-1,112.854,246.525)">
                      <tspan
                         id="tspan1958"
                         sodipodi:role="line"
                         y="0"
                         x="0 11.493001">T1</tspan>
                    </text>
                    <g
                       transform="translate(108.952,246.525)"
                       id="g1962" />
                  </g>
                </g>
                <g
                   transform="translate(-31.1,-181.198)"
                   id="g1964" />
              </g>
            </g>
          </g>
          <g
             id="g1966">
            <path
               inkscape:connector-curvature="0"
               id="path1968"
               style="fill:#ff0000;fill-opacity:1;fill-rule:nonzero;stroke:#000000;stroke-width:0.3985;stroke-linecap:butt;stroke-linejoin:miter;stroke-miterlimit:10;stroke-dasharray:none;stroke-opacity:1"
               d="m 30.18805,138.18506 c 0,1.76118 -1.42769,3.18887 -3.18887,3.18887 -1.76119,0 -3.18888,-1.42769 -3.18888,-3.18887 0,-1.76117 1.42769,-3.18887 3.18888,-3.18887 1.76118,0 3.18887,1.4277 3.18887,3.18887 z" />
            <g
               id="g1970">
              <g
                 transform="translate(31.1,132.302)"
                 id="g1972">
                <g
                   id="g1974">
                  <g
                     transform="translate(-108.952,-197.629)"
                     id="g1976">
                    <text
                       id="text1980"
                       style="font-variant:normal;font-weight:normal;font-size:17.2154007px;font-family:CMR17;-inkscape-font-specification:CMR17;writing-mode:lr-tb;fill:#000000;fill-opacity:1;fill-rule:nonzero;stroke:none"
                       transform="matrix(1,0,0,-1,112.854,197.629)">
                      <tspan
                         id="tspan1978"
                         sodipodi:role="line"
                         y="0"
                         x="0 11.493001">T2</tspan>
                    </text>
                    <g
                       transform="translate(108.952,197.629)"
                       id="g1982" />
                  </g>
                </g>
                <g
                   transform="translate(-31.1,-132.302)"
                   id="g1984" />
              </g>
            </g>
          </g>
          <g
             id="g1986">
            <g
               transform="translate(157.166,-12.205)"
               id="g1988">
              <g
                 id="g1990">
                <g
                   transform="translate(-235.018,-53.122)"
                   id="g1992">
                  <text
                     id="text1998"
                     style="font-variant:normal;font-weight:normal;font-size:14.34619999px;font-family:CMR12;-inkscape-font-specification:CMR12;writing-mode:lr-tb;fill:#000000;fill-opacity:1;fill-rule:nonzero;stroke:none"
                     transform="matrix(1,0,0,-1,235.018,67.568)">
                    <tspan
                       id="tspan1994"
                       sodipodi:role="line"
                       y="0"
                       x="0 7.8043327 11.706499 19.510832 30.43116 37.845276 41.74744 47.99091 62.827747 72.973381 76.875549 82.338577 94.819771 100.28281 108.08714">Sideviewwiththe</tspan>
                    <tspan
                       id="tspan1996"
                       sodipodi:role="line"
                       y="14.446"
                       x="0 6.2434664 12.486933 17.949965 24.973866 36.680363 40.582531 51.502857 55.405025 63.209358 68.749863 76.554192 80.45636 87.480255 92.943291 99.967194 105.43022">ceramicinsulators</tspan>
                  </text>
                  <g
                     transform="translate(235.018,53.122)"
                     id="g2000" />
                </g>
              </g>
              <g
                 transform="translate(-157.166,12.205)"
                 id="g2002" />
            </g>
          </g>
          <g
             id="g2004">
            <path
               inkscape:connector-curvature="0"
               id="path2006"
               style="fill:#000000;fill-opacity:1;fill-rule:nonzero;stroke:#000000;stroke-width:0.79701;stroke-linecap:butt;stroke-linejoin:miter;stroke-miterlimit:10;stroke-dasharray:none;stroke-opacity:1"
               d="M 0,0 H 53.99846 V 2.12592 H 0 Z" />
          </g>
          <g
             id="g2008">
            <path
               inkscape:connector-curvature="0"
               id="path2010"
               style="fill:#999999;fill-opacity:1;fill-rule:nonzero;stroke:#000000;stroke-width:0.3985;stroke-linecap:butt;stroke-linejoin:miter;stroke-miterlimit:10;stroke-dasharray:none;stroke-opacity:1"
               d="M 53.99846,0 H -73.55699 l 0.77354,-2.85712 -0.77354,-7.77259 127.55545,10e-5 z" />
          </g>
          <g
             id="g2012">
            <path
               inkscape:connector-curvature="0"
               id="path2014"
               style="fill:#999999;fill-opacity:1;fill-rule:nonzero;stroke:#000000;stroke-width:0.3985;stroke-linecap:butt;stroke-linejoin:miter;stroke-miterlimit:10;stroke-dasharray:none;stroke-opacity:1"
               d="M 0,2.12592 H 127.55545 L 125.3221,5.8006 127.55545,12.75563 0,12.75554 Z" />
          </g>
          <g
             id="g2016">
            <path
               inkscape:connector-curvature="0"
               id="path2018"
               style="fill:#e6e6e6;fill-opacity:1;fill-rule:nonzero;stroke:#000000;stroke-width:0.3985;stroke-linecap:butt;stroke-linejoin:miter;stroke-miterlimit:10;stroke-dasharray:none;stroke-opacity:1"
               d="M 53.99846,-10.62961 H -73.55699 l 1.24439,-8.19028 0.09144,-8.21704 0.4256,-9.83001 0.95942,-11.26024 -2.72085,-16.50099 127.55545,1e-4 z" />
          </g>
          <g
             id="g2020">
            <path
               inkscape:connector-curvature="0"
               id="path2022"
               style="fill:#e6e6e6;fill-opacity:1;fill-rule:nonzero;stroke:#000000;stroke-width:0.3985;stroke-linecap:butt;stroke-linejoin:miter;stroke-miterlimit:10;stroke-dasharray:none;stroke-opacity:1"
               d="m 0,0 h -73.55698 l 0.41886,6.65901 -2.24747,12.54515 0.79349,11.37084 -1.55657,12.47146 2.59169,10.95211 L 0,53.99846 Z" />
          </g>
          <g
             id="g2024">
            <path
               inkscape:connector-curvature="0"
               id="path2026"
               style="fill:#e6e6e6;fill-opacity:1;fill-rule:nonzero;stroke:#000000;stroke-width:0.3985;stroke-linecap:butt;stroke-linejoin:miter;stroke-miterlimit:10;stroke-dasharray:none;stroke-opacity:1"
               d="m 53.99846,2.12592 h 73.55698 l 2.74102,-13.18369 0.72264,-8.1321 -6.29051,-5.50243 2.93357,-14.09486 -0.10672,-13.08546 -73.55698,1.1e-4 z" />
          </g>
          <g
             id="g2028">
            <path
               inkscape:connector-curvature="0"
               id="path2030"
               style="fill:#e6e6e6;fill-opacity:1;fill-rule:nonzero;stroke:#000000;stroke-width:0.3985;stroke-linecap:butt;stroke-linejoin:miter;stroke-miterlimit:10;stroke-dasharray:none;stroke-opacity:1"
               d="m 0,12.75554 h 127.55545 l -0.49724,9.83908 0.34127,8.92775 -0.44263,11.99223 -2.32055,12.56147 2.91915,10.67803 L 0,66.754 Z" />
          </g>
          <g
             id="g2032">
            <path
               inkscape:connector-curvature="0"
               id="path2034"
               style="fill:#ff0000;fill-opacity:1;fill-rule:nonzero;stroke:#000000;stroke-width:0.3985;stroke-linecap:butt;stroke-linejoin:miter;stroke-miterlimit:10;stroke-dasharray:none;stroke-opacity:1"
               d="m 30.18805,12.75554 c 0,1.76117 -1.42769,3.18887 -3.18887,3.18887 -1.76119,0 -3.18888,-1.4277 -3.18888,-3.18887 0,-1.76119 1.42769,-3.18887 3.18888,-3.18887 1.76118,0 3.18887,1.42768 3.18887,3.18887 z" />
            <g
               id="g2036">
              <g
                 transform="translate(31.1,16.856)"
                 id="g2038">
                <g
                   id="g2040">
                  <g
                     transform="translate(-108.952,-82.183)"
                     id="g2042">
                    <text
                       id="text2046"
                       style="font-variant:normal;font-weight:normal;font-size:17.2154007px;font-family:CMR17;-inkscape-font-specification:CMR17;writing-mode:lr-tb;fill:#000000;fill-opacity:1;fill-rule:nonzero;stroke:none"
                       transform="matrix(1,0,0,-1,108.952,82.183)">
                      <tspan
                         id="tspan2044"
                         sodipodi:role="line"
                         y="0"
                         x="0 11.493001 24.587034 32.482018 41.277363 55.271763 66.764763">T1andT2</tspan>
                    </text>
                    <g
                       transform="translate(108.952,82.183)"
                       id="g2048" />
                  </g>
                </g>
                <g
                   transform="translate(-31.1,-16.856)"
                   id="g2050" />
              </g>
            </g>
          </g>
          <g
             id="g2052">
            <g
               id="g2054">
              <g
                 id="g2056">
                <path
                   inkscape:connector-curvature="0"
                   id="path2058"
                   style="fill:#e6e6e6;fill-opacity:1;fill-rule:nonzero;stroke:#000000;stroke-width:0.3985;stroke-linecap:butt;stroke-linejoin:miter;stroke-miterlimit:10;stroke-dasharray:none;stroke-opacity:1"
                   d="m 168.79836,140.31099 v -25.51108 h 25.51107 v 25.51108 z" />
              </g>
              <g
                 id="g2060">
                <g
                   transform="translate(211.163,123.402)"
                   id="g2062">
                  <g
                     id="g2064">
                    <g
                       transform="translate(-289.015,-188.729)"
                       id="g2066">
                      <text
                         id="text2070"
                         style="font-variant:normal;font-weight:normal;font-size:11.9552002px;font-family:CMBX12;-inkscape-font-specification:CMBX12;writing-mode:lr-tb;fill:#000000;fill-opacity:1;fill-rule:nonzero;stroke:none"
                         transform="matrix(1,0,0,-1,289.015,188.729)">
                        <tspan
                           id="tspan2068"
                           sodipodi:role="line"
                           y="0"
                           x="0 9.7136002 15.850204 21.343618 27.881918 39.089916 42.825916 53.286716 57.022717 64.49472 69.79924 77.27124 81.00724 87.54554 92.77594 99.50074 104.99416">Ceramicinsulators</tspan>
                      </text>
                      <g
                         transform="translate(289.015,188.729)"
                         id="g2072" />
                    </g>
                  </g>
                  <g
                     transform="translate(-211.163,-123.402)"
                     id="g2074" />
                </g>
              </g>
            </g>
            <g
               id="g2076">
              <g
                 id="g2078">
                <path
                   inkscape:connector-curvature="0"
                   id="path2080"
                   style="fill:#999999;fill-opacity:1;fill-rule:nonzero;stroke:#000000;stroke-width:0.3985;stroke-linecap:butt;stroke-linejoin:miter;stroke-miterlimit:10;stroke-dasharray:none;stroke-opacity:1"
                   d="M 168.79836,102.04436 V 76.53328 h 25.51107 v 25.51108 z" />
              </g>
              <g
                 id="g2082">
                <g
                   transform="translate(211.163,85.136)"
                   id="g2084">
                  <g
                     id="g2086">
                    <g
                       transform="translate(-289.015,-150.463)"
                       id="g2088">
                      <text
                         id="text2092"
                         style="font-variant:normal;font-weight:normal;font-size:11.9552002px;font-family:CMBX12;-inkscape-font-specification:CMBX12;writing-mode:lr-tb;fill:#000000;fill-opacity:1;fill-rule:nonzero;stroke:none"
                         transform="matrix(1,0,0,-1,289.015,150.463)">
                        <tspan
                           id="tspan2090"
                           sodipodi:role="line"
                           y="0"
                           x="0 10.155942 17.627943 25.099943 31.236547 36.729961 42.866566 49.967953 55.198353">Adherents</tspan>
                      </text>
                      <g
                         transform="translate(289.015,150.463)"
                         id="g2094" />
                    </g>
                  </g>
                  <g
                     transform="translate(-211.163,-85.136)"
                     id="g2096" />
                </g>
              </g>
            </g>
            <g
               id="g2098">
              <g
                 id="g2100">
                <path
                   inkscape:connector-curvature="0"
                   id="path2102"
                   style="fill:#000000;fill-opacity:1;fill-rule:nonzero;stroke:#000000;stroke-width:0.3985;stroke-linecap:butt;stroke-linejoin:miter;stroke-miterlimit:10;stroke-dasharray:none;stroke-opacity:1"
                   d="M 168.79836,63.77773 V 38.26665 h 25.51107 v 25.51108 z" />
              </g>
              <g
                 id="g2104">
                <g
                   transform="translate(211.163,48.032)"
                   id="g2106">
                  <g
                     id="g2108">
                    <g
                       transform="translate(-289.015,-113.359)"
                       id="g2110">
                      <text
                         id="text2114"
                         style="font-variant:normal;font-weight:normal;font-size:11.9552002px;font-family:CMBX12;-inkscape-font-specification:CMBX12;writing-mode:lr-tb;fill:#000000;fill-opacity:1;fill-rule:nonzero;stroke:none"
                         transform="matrix(1,0,0,-1,289.015,113.359)">
                        <tspan
                           id="tspan2112"
                           sodipodi:role="line"
                           y="0"
                           x="0 10.515794 17.054092 24.526093 31.621504 37.599106 44.323902 55.531902 63.386471 70.111267 75.415794 79.151794 84.382195">Nanocomposite</tspan>
                      </text>
                      <g
                         transform="translate(289.015,113.359)"
                         id="g2116" />
                    </g>
                  </g>
                  <g
                     transform="translate(-211.163,-48.032)"
                     id="g2118" />
                </g>
              </g>
            </g>
          </g>
        </g>
      </g>
    </g>
    <g
       transform="matrix(0.16051087,0,0,-0.16051087,74.446248,294.49227)"
       inkscape:label="Fig2b"
       id="g2233">
      <g
         id="g2235">
        <path
           inkscape:connector-curvature="0"
           id="path2237"
           style="fill:#ffffff;fill-opacity:1;fill-rule:nonzero;stroke:none"
           d="M 202.621,0.566 H 0.141 v 308.41 H 405.098 V 0.566 Z" />
        <g
           transform="matrix(1,0,0,-1,0,308.97638)"
           id="g2239">
          <path
             inkscape:connector-curvature="0"
             id="path2241"
             style="fill:none;stroke:#000000;stroke-width:0.79999399;stroke-linecap:butt;stroke-linejoin:round;stroke-miterlimit:4;stroke-dasharray:none;stroke-opacity:1"
             d="M 227.082,236.465 H 66.641 V 12.414 h 320.914 v 224.051 z" />
        </g>
        <g
           transform="matrix(1,0,0,-1,0,308.97638)"
           id="g2243">
          <path
             inkscape:connector-curvature="0"
             id="path2245"
             style="fill:none;stroke:#000000;stroke-width:0.79999399;stroke-linecap:butt;stroke-linejoin:round;stroke-miterlimit:4;stroke-dasharray:none;stroke-opacity:1"
             d="m 66.641,240.691 v -4.253" />
        </g>
        <g
           transform="matrix(1,0,0,-1,0,308.97638)"
           id="g2247">
          <path
             inkscape:connector-curvature="0"
             id="path2249"
             style="fill:none;stroke:#000000;stroke-width:0.79999399;stroke-linecap:butt;stroke-linejoin:round;stroke-miterlimit:4;stroke-dasharray:none;stroke-opacity:1"
             d="m 66.641,240.691 v -4.253" />
        </g>
        <g
           transform="matrix(1,0,0,-1,0,308.97638)"
           id="g2251">
          <path
             inkscape:connector-curvature="0"
             id="path2253"
             style="fill:none;stroke:#000000;stroke-width:0.79999399;stroke-linecap:butt;stroke-linejoin:round;stroke-miterlimit:4;stroke-dasharray:none;stroke-opacity:1"
             d="m 102.301,240.691 v -4.253" />
        </g>
        <g
           transform="matrix(1,0,0,-1,0,308.97638)"
           id="g2255">
          <path
             inkscape:connector-curvature="0"
             id="path2257"
             style="fill:none;stroke:#000000;stroke-width:0.79999399;stroke-linecap:butt;stroke-linejoin:round;stroke-miterlimit:4;stroke-dasharray:none;stroke-opacity:1"
             d="m 102.301,240.691 v -4.253" />
        </g>
        <g
           transform="matrix(1,0,0,-1,0,308.97638)"
           id="g2259">
          <path
             inkscape:connector-curvature="0"
             id="path2261"
             style="fill:none;stroke:#000000;stroke-width:0.79999399;stroke-linecap:butt;stroke-linejoin:round;stroke-miterlimit:4;stroke-dasharray:none;stroke-opacity:1"
             d="m 137.961,240.691 v -4.253" />
        </g>
        <g
           transform="matrix(1,0,0,-1,0,308.97638)"
           id="g2263">
          <path
             inkscape:connector-curvature="0"
             id="path2265"
             style="fill:none;stroke:#000000;stroke-width:0.79999399;stroke-linecap:butt;stroke-linejoin:round;stroke-miterlimit:4;stroke-dasharray:none;stroke-opacity:1"
             d="m 137.961,240.691 v -4.253" />
        </g>
        <g
           transform="matrix(1,0,0,-1,0,308.97638)"
           id="g2267">
          <path
             inkscape:connector-curvature="0"
             id="path2269"
             style="fill:none;stroke:#000000;stroke-width:0.79999399;stroke-linecap:butt;stroke-linejoin:round;stroke-miterlimit:4;stroke-dasharray:none;stroke-opacity:1"
             d="m 173.621,240.691 v -4.253" />
        </g>
        <g
           transform="matrix(1,0,0,-1,0,308.97638)"
           id="g2271">
          <path
             inkscape:connector-curvature="0"
             id="path2273"
             style="fill:none;stroke:#000000;stroke-width:0.79999399;stroke-linecap:butt;stroke-linejoin:round;stroke-miterlimit:4;stroke-dasharray:none;stroke-opacity:1"
             d="m 173.621,240.691 v -4.253" />
        </g>
        <g
           transform="matrix(1,0,0,-1,0,308.97638)"
           id="g2275">
          <path
             inkscape:connector-curvature="0"
             id="path2277"
             style="fill:none;stroke:#000000;stroke-width:0.79999399;stroke-linecap:butt;stroke-linejoin:round;stroke-miterlimit:4;stroke-dasharray:none;stroke-opacity:1"
             d="m 209.254,240.691 v -4.253" />
        </g>
        <g
           transform="matrix(1,0,0,-1,0,308.97638)"
           id="g2279">
          <path
             inkscape:connector-curvature="0"
             id="path2281"
             style="fill:none;stroke:#000000;stroke-width:0.79999399;stroke-linecap:butt;stroke-linejoin:round;stroke-miterlimit:4;stroke-dasharray:none;stroke-opacity:1"
             d="m 209.254,240.691 v -4.253" />
        </g>
        <g
           transform="matrix(1,0,0,-1,0,308.97638)"
           id="g2283">
          <path
             inkscape:connector-curvature="0"
             id="path2285"
             style="fill:none;stroke:#000000;stroke-width:0.79999399;stroke-linecap:butt;stroke-linejoin:round;stroke-miterlimit:4;stroke-dasharray:none;stroke-opacity:1"
             d="m 244.914,240.691 v -4.253" />
        </g>
        <g
           transform="matrix(1,0,0,-1,0,308.97638)"
           id="g2287">
          <path
             inkscape:connector-curvature="0"
             id="path2289"
             style="fill:none;stroke:#000000;stroke-width:0.79999399;stroke-linecap:butt;stroke-linejoin:round;stroke-miterlimit:4;stroke-dasharray:none;stroke-opacity:1"
             d="m 244.914,240.691 v -4.253" />
        </g>
        <g
           transform="matrix(1,0,0,-1,0,308.97638)"
           id="g2291">
          <path
             inkscape:connector-curvature="0"
             id="path2293"
             style="fill:none;stroke:#000000;stroke-width:0.79999399;stroke-linecap:butt;stroke-linejoin:round;stroke-miterlimit:4;stroke-dasharray:none;stroke-opacity:1"
             d="m 280.574,240.691 v -4.253" />
        </g>
        <g
           transform="matrix(1,0,0,-1,0,308.97638)"
           id="g2295">
          <path
             inkscape:connector-curvature="0"
             id="path2297"
             style="fill:none;stroke:#000000;stroke-width:0.79999399;stroke-linecap:butt;stroke-linejoin:round;stroke-miterlimit:4;stroke-dasharray:none;stroke-opacity:1"
             d="m 280.574,240.691 v -4.253" />
        </g>
        <g
           transform="matrix(1,0,0,-1,0,308.97638)"
           id="g2299">
          <path
             inkscape:connector-curvature="0"
             id="path2301"
             style="fill:none;stroke:#000000;stroke-width:0.79999399;stroke-linecap:butt;stroke-linejoin:round;stroke-miterlimit:4;stroke-dasharray:none;stroke-opacity:1"
             d="m 316.234,240.691 v -4.253" />
        </g>
        <g
           transform="matrix(1,0,0,-1,0,308.97638)"
           id="g2303">
          <path
             inkscape:connector-curvature="0"
             id="path2305"
             style="fill:none;stroke:#000000;stroke-width:0.79999399;stroke-linecap:butt;stroke-linejoin:round;stroke-miterlimit:4;stroke-dasharray:none;stroke-opacity:1"
             d="m 316.234,240.691 v -4.253" />
        </g>
        <g
           transform="matrix(1,0,0,-1,0,308.97638)"
           id="g2307">
          <path
             inkscape:connector-curvature="0"
             id="path2309"
             style="fill:none;stroke:#000000;stroke-width:0.79999399;stroke-linecap:butt;stroke-linejoin:round;stroke-miterlimit:4;stroke-dasharray:none;stroke-opacity:1"
             d="m 351.895,240.691 v -4.253" />
        </g>
        <g
           transform="matrix(1,0,0,-1,0,308.97638)"
           id="g2311">
          <path
             inkscape:connector-curvature="0"
             id="path2313"
             style="fill:none;stroke:#000000;stroke-width:0.79999399;stroke-linecap:butt;stroke-linejoin:round;stroke-miterlimit:4;stroke-dasharray:none;stroke-opacity:1"
             d="m 351.895,240.691 v -4.253" />
        </g>
        <g
           transform="matrix(1,0,0,-1,0,308.97638)"
           id="g2315">
          <path
             inkscape:connector-curvature="0"
             id="path2317"
             style="fill:none;stroke:#000000;stroke-width:0.79999399;stroke-linecap:butt;stroke-linejoin:round;stroke-miterlimit:4;stroke-dasharray:none;stroke-opacity:1"
             d="m 387.555,240.691 v -4.253" />
        </g>
        <g
           transform="matrix(1,0,0,-1,0,308.97638)"
           id="g2319">
          <path
             inkscape:connector-curvature="0"
             id="path2321"
             style="fill:none;stroke:#000000;stroke-width:0.79999399;stroke-linecap:butt;stroke-linejoin:round;stroke-miterlimit:4;stroke-dasharray:none;stroke-opacity:1"
             d="m 387.555,240.691 v -4.253" />
        </g>
        <g
           transform="matrix(1,0,0,-1,0,308.97638)"
           id="g2323">
          <path
             inkscape:connector-curvature="0"
             id="path2325"
             style="fill:none;stroke:#000000;stroke-width:0.79999399;stroke-linecap:butt;stroke-linejoin:round;stroke-miterlimit:4;stroke-dasharray:none;stroke-opacity:1"
             d="M 66.641,236.438 H 387.555" />
        </g>
        <g
           transform="matrix(1,0,0,-1,0,308.97638)"
           id="g2327">
          <path
             inkscape:connector-curvature="0"
             id="path2329"
             style="fill:none;stroke:#000000;stroke-width:0.79999399;stroke-linecap:butt;stroke-linejoin:round;stroke-miterlimit:4;stroke-dasharray:none;stroke-opacity:1"
             d="m 62.391,236.438 h 4.25" />
        </g>
        <g
           transform="matrix(1,0,0,-1,0,308.97638)"
           id="g2331">
          <path
             inkscape:connector-curvature="0"
             id="path2333"
             style="fill:none;stroke:#000000;stroke-width:0.79999399;stroke-linecap:butt;stroke-linejoin:round;stroke-miterlimit:4;stroke-dasharray:none;stroke-opacity:1"
             d="m 62.391,236.438 h 4.25" />
        </g>
        <g
           transform="matrix(1,0,0,-1,0,308.97638)"
           id="g2335">
          <path
             inkscape:connector-curvature="0"
             id="path2337"
             style="fill:none;stroke:#000000;stroke-width:0.79999399;stroke-linecap:butt;stroke-linejoin:round;stroke-miterlimit:4;stroke-dasharray:none;stroke-opacity:1"
             d="m 62.391,191.621 h 4.25" />
        </g>
        <g
           transform="matrix(1,0,0,-1,0,308.97638)"
           id="g2339">
          <path
             inkscape:connector-curvature="0"
             id="path2341"
             style="fill:none;stroke:#000000;stroke-width:0.79999399;stroke-linecap:butt;stroke-linejoin:round;stroke-miterlimit:4;stroke-dasharray:none;stroke-opacity:1"
             d="m 62.391,191.621 h 4.25" />
        </g>
        <g
           transform="matrix(1,0,0,-1,0,308.97638)"
           id="g2343">
          <path
             inkscape:connector-curvature="0"
             id="path2345"
             style="fill:none;stroke:#000000;stroke-width:0.79999399;stroke-linecap:butt;stroke-linejoin:round;stroke-miterlimit:4;stroke-dasharray:none;stroke-opacity:1"
             d="m 62.391,146.836 h 4.25" />
        </g>
        <g
           transform="matrix(1,0,0,-1,0,308.97638)"
           id="g2347">
          <path
             inkscape:connector-curvature="0"
             id="path2349"
             style="fill:none;stroke:#000000;stroke-width:0.79999399;stroke-linecap:butt;stroke-linejoin:round;stroke-miterlimit:4;stroke-dasharray:none;stroke-opacity:1"
             d="m 62.391,146.836 h 4.25" />
        </g>
        <g
           transform="matrix(1,0,0,-1,0,308.97638)"
           id="g2351">
          <path
             inkscape:connector-curvature="0"
             id="path2353"
             style="fill:none;stroke:#000000;stroke-width:0.79999399;stroke-linecap:butt;stroke-linejoin:round;stroke-miterlimit:4;stroke-dasharray:none;stroke-opacity:1"
             d="m 62.391,102.02 h 4.25" />
        </g>
        <g
           transform="matrix(1,0,0,-1,0,308.97638)"
           id="g2355">
          <path
             inkscape:connector-curvature="0"
             id="path2357"
             style="fill:none;stroke:#000000;stroke-width:0.79999399;stroke-linecap:butt;stroke-linejoin:round;stroke-miterlimit:4;stroke-dasharray:none;stroke-opacity:1"
             d="m 62.391,102.02 h 4.25" />
        </g>
        <g
           transform="matrix(1,0,0,-1,0,308.97638)"
           id="g2359">
          <path
             inkscape:connector-curvature="0"
             id="path2361"
             style="fill:none;stroke:#000000;stroke-width:0.79999399;stroke-linecap:butt;stroke-linejoin:round;stroke-miterlimit:4;stroke-dasharray:none;stroke-opacity:1"
             d="m 62.391,57.203 h 4.25" />
        </g>
        <g
           transform="matrix(1,0,0,-1,0,308.97638)"
           id="g2363">
          <path
             inkscape:connector-curvature="0"
             id="path2365"
             style="fill:none;stroke:#000000;stroke-width:0.79999399;stroke-linecap:butt;stroke-linejoin:round;stroke-miterlimit:4;stroke-dasharray:none;stroke-opacity:1"
             d="m 62.391,57.203 h 4.25" />
        </g>
        <g
           transform="matrix(1,0,0,-1,0,308.97638)"
           id="g2367">
          <path
             inkscape:connector-curvature="0"
             id="path2369"
             style="fill:none;stroke:#000000;stroke-width:0.79999399;stroke-linecap:butt;stroke-linejoin:round;stroke-miterlimit:4;stroke-dasharray:none;stroke-opacity:1"
             d="m 62.391,12.387 h 4.25" />
        </g>
        <g
           transform="matrix(1,0,0,-1,0,308.97638)"
           id="g2371">
          <path
             inkscape:connector-curvature="0"
             id="path2373"
             style="fill:none;stroke:#000000;stroke-width:0.79999399;stroke-linecap:butt;stroke-linejoin:round;stroke-miterlimit:4;stroke-dasharray:none;stroke-opacity:1"
             d="m 62.391,12.387 h 4.25" />
        </g>
        <g
           transform="matrix(1,0,0,-1,0,308.97638)"
           id="g2375">
          <path
             inkscape:connector-curvature="0"
             id="path2377"
             style="fill:none;stroke:#000000;stroke-width:0.79999399;stroke-linecap:butt;stroke-linejoin:round;stroke-miterlimit:4;stroke-dasharray:none;stroke-opacity:1"
             d="M 66.641,236.438 V 12.387" />
        </g>
        <g
           transform="matrix(1,0,0,-1,0,308.97638)"
           id="g2379">
          <path
             inkscape:connector-curvature="0"
             id="path2381"
             style="fill:none;stroke:#000000;stroke-width:1.13385797;stroke-linecap:butt;stroke-linejoin:round;stroke-miterlimit:4;stroke-dasharray:none;stroke-opacity:1"
             d="m 66.641,210.473 h 0.343 l 0.368,-0.028 0.339,0.028 0.368,-0.086 0.339,-0.086 0.372,-0.055 0.367,-0.199 0.34,-0.399 0.367,-0.535 0.344,-0.625 0.367,-0.793 0.34,-0.879 0.367,-0.937 0.371,-0.992 0.34,-1.106 0.367,-1.16 0.34,-1.191 0.367,-1.246 0.371,-1.391 0.34,-1.305 0.367,-1.386 0.34,-1.391 0.371,-1.418 0.34,-1.445 0.367,-1.418 0.367,-1.36 0.344,-1.386 0.367,-1.336 0.34,-1.36 0.367,-1.246 0.34,-1.332 0.371,-1.277 0.367,-1.274 0.34,-1.191 0.367,-1.133 0.344,-1.219 0.367,-1.105 0.367,-1.137 0.34,-1.133 0.371,-1.132 0.34,-1.133 0.367,-1.192 0.34,-0.937 0.367,-0.961 0.372,-0.965 0.339,-1.019 0.368,-0.965 0.339,-0.965 0.371,-0.906 0.368,-0.965 0.34,-0.934 0.367,-1.023 0.34,-0.821 0.371,-0.82 0.339,-0.91 0.368,-0.906 0.371,-0.766 0.34,-0.793 0.367,-0.738 0.34,-0.766 0.367,-0.761 0.34,-0.797 0.371,-0.621 0.367,-0.625 0.34,-0.68 0.371,-0.738 0.34,-0.653 0.367,-0.652 0.367,-0.68 0.34,-0.734 0.371,-0.766 0.34,-0.57 0.367,-0.535 0.34,-0.653 0.371,-0.484 0.367,-0.621 0.34,-0.539 0.367,-0.453 0.34,-0.625 0.371,-0.539 0.34,-0.567 0.367,-0.566 0.367,-0.367 0.344,-0.598 0.367,-0.566 0.34,-0.539 0.367,-0.508 0.371,-0.512 0.34,-0.512 0.367,-0.48 0.34,-0.539 0.368,-0.512 0.343,-0.422 0.367,-0.57 0.368,-0.367 0.339,-0.594 0.372,-0.371 0.339,-0.481 0.368,-0.593 0.339,-0.399 0.368,-0.539 0.371,-0.367 0.34,-0.484 0.367,-0.309 0.34,-0.539 0.371,-0.399 0.367,-0.425 0.707,-0.707 0.34,-0.426 0.371,-0.34 0.34,-0.426 0.367,-0.254 0.371,-0.453 0.34,-0.312 0.367,-0.453 0.34,-0.372 0.367,-0.281 0.371,-0.48 0.34,-0.258 0.367,-0.453 0.34,-0.313 0.371,-0.34 0.34,-0.425 0.367,-0.282 0.367,-0.453 0.34,-0.257 0.371,-0.227 0.34,-0.426 0.367,-0.254 0.34,-0.367 0.371,-0.34 0.367,-0.226 0.34,-0.399 0.367,-0.281 0.34,-0.285 0.371,-0.367 0.368,-0.258 0.339,-0.227 0.372,-0.394 0.339,-0.285 0.368,-0.227 0.339,-0.34 0.368,-0.226 0.371,-0.254 0.34,-0.399 0.367,-0.226 0.34,-0.2 0.371,-0.253 0.339,-0.313 0.368,-0.254 0.367,-0.285 0.34,-0.312 0.371,-0.168 0.34,-0.227 0.367,-0.398 0.367,-0.2 0.344,-0.168 0.367,-0.312 0.34,-0.285 0.367,-0.367 0.34,-0.141 0.371,-0.258 0.367,-0.195 0.34,-0.145 0.367,-0.308 0.344,-0.286 0.367,-0.14 0.367,-0.199 0.34,-0.313 0.371,-0.281 0.34,-0.145 0.367,-0.254 0.34,-0.285 0.367,-0.226 0.371,-0.227 0.34,-0.226 0.367,-0.282 0.34,-0.144 0.371,-0.195 0.34,-0.372 0.367,-0.226 0.368,-0.113 0.339,-0.2 0.371,-0.339 0.34,-0.227 0.368,-0.113 0.371,-0.141 0.339,-0.285 0.368,-0.254 0.339,-0.172 0.368,-0.141 0.34,-0.281 0.371,-0.285 0.367,-0.113 0.34,-0.227 0.371,-0.172 0.34,-0.281 0.367,-0.172 0.367,-0.14 0.34,-0.254 0.371,-0.227 0.34,-0.172 0.367,-0.113 0.34,-0.199 0.371,-0.34 0.367,-0.168 0.34,-0.113 0.367,-0.114 0.34,-0.171 0.371,-0.313 0.34,-0.227 0.367,-0.085 0.371,-0.141 0.34,-0.254 0.367,-0.254 0.34,-0.144 0.367,-0.114 0.371,-0.14 0.34,-0.313 0.367,-0.199 0.34,-0.113 0.371,-0.082 0.34,-0.172 0.367,-0.34 0.367,-0.172 0.34,-0.113 0.371,-0.082 0.34,-0.2 0.367,-0.312 0.34,-0.172 0.371,-0.113 0.368,-0.113 0.339,-0.196 0.368,-0.34 0.339,-0.117 0.372,-0.14 0.367,-0.055 0.34,-0.227 0.367,-0.312 0.344,-0.141 0.367,-0.086 0.34,-0.144 0.367,-0.196 0.371,-0.339 0.34,-0.114 0.367,-0.086 0.34,-0.113 0.367,-0.258 0.371,-0.281 0.34,-0.141 0.367,-0.058 0.34,-0.141 0.371,-0.226 0.34,-0.313 0.367,-0.113 0.367,-0.086 0.34,-0.113 0.371,-0.2 0.34,-0.281 0.367,-0.144 0.34,-0.114 0.371,-0.082 0.367,-0.285 0.34,-0.199 0.367,-0.168 0.34,-0.145 0.371,-0.168 0.367,-0.312 0.34,-0.227 0.371,-0.086 0.34,-0.054 0.367,-0.028 0.34,-0.113 0.367,-0.312 0.372,-0.2 0.339,-0.113 0.368,-0.086 0.339,-0.14 0.371,-0.286 0.34,-0.168 0.368,-0.144 0.367,-0.082 0.34,-0.059 0.371,-0.226 0.339,-0.227 0.368,-0.199 0.367,-0.113 0.344,-0.055 0.367,-0.172 0.34,-0.113 0.367,-0.227 0.34,-0.168 0.371,-0.117 0.367,-0.141 0.34,-0.085 0.367,-0.168 0.344,-0.2 0.367,-0.14 0.367,-0.172 0.34,-0.082 0.371,-0.145 0.34,-0.14 0.367,-0.254 0.34,-0.172 0.367,-0.055 0.371,-0.086 0.34,-0.113 0.367,-0.172 0.34,-0.34 0.371,-0.086 0.34,-0.082 0.367,-0.058 0.367,-0.086 0.344,-0.196 0.367,-0.199 0.34,-0.144 0.367,-0.114 0.371,-0.054 0.34,-0.141 0.367,-0.144 0.34,-0.196 0.368,-0.199 0.343,-0.113 0.367,-0.086 0.368,-0.059 0.339,-0.113 0.372,-0.195 0.339,-0.227 0.368,-0.172 0.339,-0.054 0.368,-0.086 0.371,-0.145 0.34,-0.227 0.367,-0.226 0.34,-0.113 0.371,-0.082 0.367,-0.059 0.34,-0.113 0.367,-0.199 0.34,-0.168 0.371,-0.145 0.34,-0.113 0.367,-0.082 0.371,-0.032 0.34,-0.082 0.367,-0.226 0.34,-0.145 0.367,-0.168 0.371,-0.172 0.34,-0.054 0.367,-0.086 0.34,-0.141 0.371,-0.113 0.34,-0.285 0.367,-0.113 0.367,-0.086 0.34,-0.055 0.371,-0.059 0.34,-0.168 0.367,-0.257 0.34,-0.168 0.371,-0.114 0.367,-0.086 0.34,-0.058 0.367,-0.028 0.34,-0.199 0.371,-0.226 0.368,-0.227 0.339,-0.055 0.368,-0.027 0.343,-0.086 0.368,-0.113 0.339,-0.227 0.368,-0.199 0.371,-0.113 0.34,-0.086 0.367,-0.055 0.34,-0.113 0.367,-0.113 0.343,-0.059 0.34,-0.254 0.368,-0.113 0.339,-0.172 0.368,-0.055 0.339,-0.031 0.371,-0.113 0.368,-0.082 0.34,-0.286 0.371,-0.171 0.339,-0.082 0.368,-0.059 0.339,-0.027 0.368,-0.141 0.371,-0.086 0.34,-0.172 0.367,-0.14 0.34,-0.141 0.371,-0.145 0.367,-0.054 0.34,-0.028 0.367,-0.144 0.34,-0.168 0.371,-0.227 0.34,-0.113 0.367,-0.086 0.367,-0.027 0.344,-0.086 0.367,-0.199 0.34,-0.2 0.367,-0.082 0.34,-0.113 0.371,-0.113 0.367,-0.145 h 0.34 l 0.371,-0.054 0.34,-0.114 0.367,-0.199 0.367,-0.226 0.34,-0.086 0.371,-0.086 0.34,-0.055 0.367,-0.113 0.34,-0.172 0.371,-0.113 0.367,-0.141 0.34,-0.141 0.367,-0.086 0.34,-0.113 0.371,-0.059 0.34,-0.113 0.367,-0.168 0.368,-0.172 0.343,-0.168 0.368,-0.113 0.339,-0.031 0.368,-0.028 0.371,-0.054 0.34,-0.227 0.367,-0.058 0.34,-0.2 0.367,-0.14 0.344,-0.113 0.367,-0.086 0.367,-0.055 0.34,-0.086 0.371,-0.141 0.34,-0.199 0.367,-0.172 0.367,-0.082 0.34,-0.058 0.371,-0.086 0.34,-0.055 0.367,-0.172 0.34,-0.199 0.371,-0.141 0.367,-0.113 0.34,-0.055 0.367,-0.086 0.34,-0.027 0.371,-0.086 0.34,-0.086 0.367,-0.199 0.371,-0.199 0.34,-0.114 0.367,-0.082 0.34,-0.031 0.367,-0.082 0.371,-0.144 0.34,-0.082 0.367,-0.114 0.34,-0.199 0.371,-0.144 0.34,-0.083 0.367,-0.031 0.368,-0.082 0.339,-0.086 0.372,-0.14 0.339,-0.172 0.368,-0.114 0.339,-0.14 0.371,-0.086 0.368,-0.059 0.34,-0.027 0.367,-0.086 0.34,-0.141 0.371,-0.199 0.367,-0.113 0.34,-0.141 0.367,-0.054 0.344,-0.032 0.367,-0.082 0.34,-0.086 0.367,-0.144 0.371,-0.082 0.34,-0.199 0.367,-0.172 0.34,-0.082 0.367,-0.059 0.371,-0.055 0.34,-0.086 0.367,-0.14 0.34,-0.145 0.371,-0.199 0.34,-0.082 0.367,-0.086 0.367,-0.027 0.34,-0.031 0.371,-0.082 0.34,-0.086 0.367,-0.141 0.34,-0.227 0.371,-0.117 0.367,-0.113 0.34,-0.055 0.367,-0.027 0.344,-0.031 0.367,-0.082 0.368,-0.114 0.339,-0.031 0.371,-0.195 0.34,-0.172 0.367,-0.141 0.34,-0.086 0.368,-0.027 0.371,-0.031 0.339,-0.082 0.368,-0.145 0.339,-0.14 0.372,-0.168 0.339,-0.114 0.368,-0.086 0.367,-0.113 h 0.34 l 0.371,-0.027 0.34,-0.117 0.367,-0.168 0.371,-0.172 0.34,-0.114 0.367,-0.14 0.34,-0.028 0.367,-0.058 0.34,-0.082 0.371,-0.031 0.367,-0.028 0.34,-0.14 0.371,-0.145 0.34,-0.195 0.367,-0.086 0.367,-0.113 0.34,-0.028 0.371,-0.058 0.34,-0.086 0.367,-0.114 0.34,-0.14 0.371,-0.114 0.367,-0.199 0.34,-0.168 h 0.367 l 0.34,-0.086 0.371,-0.086 0.34,-0.14 0.367,-0.141 h 0.367 l 0.344,-0.086 0.367,-0.14 0.34,-0.059 0.367,-0.113 0.372,-0.028 h 0.339 l 0.368,-0.058 0.339,-0.113 0.368,-0.227 0.343,-0.141 0.368,-0.14 0.367,-0.059 0.34,-0.055 0.371,-0.086 0.34,-0.027 0.367,-0.031 0.34,-0.113 0.367,-0.141 0.371,-0.199 0.34,-0.114 0.367,-0.085 0.34,-0.055 0.371,-0.027 0.367,-0.114 0.34,-0.031 0.367,-0.082 0.34,-0.086 0.371,-0.258 0.34,-0.14 0.367,-0.055 0.371,-0.059 0.34,-0.054 0.367,-0.032 0.34,-0.054 h 0.738 l 0.34,-0.028 0.367,0.028 h 0.34 l 0.371,0.027 0.34,0.086 0.367,0.113 0.367,0.313 0.34,0.226 0.371,0.395 0.34,0.34 0.367,0.425 0.34,0.426 0.371,0.539 0.368,0.512 0.339,0.566 0.368,0.622 0.339,0.539 0.371,0.539 0.368,0.652 0.34,0.68 0.371,0.625 0.339,0.652 0.368,0.68 0.339,0.707 0.368,0.711 0.371,0.734 0.34,0.652 0.367,0.711 0.34,0.735 0.371,0.711 0.34,0.765 0.367,0.68 0.367,0.652 0.34,0.707 0.371,0.739 0.34,0.679 0.734,1.36 0.344,0.683 0.707,1.414 0.367,0.684 0.34,0.594 0.371,0.679 0.367,0.653 0.34,0.679 0.367,0.653 0.344,0.625 0.367,0.679 0.367,0.625 0.34,0.649 0.371,0.652 0.34,0.653 0.367,0.511 0.34,0.625 0.367,0.68 0.371,0.594 0.34,0.539 0.367,0.625 0.34,0.594 0.371,0.539 0.34,0.566 0.367,0.48 0.368,0.571 0.339,0.594 0.372,0.511 0.339,0.535 0.368,0.512 0.371,0.512 0.34,0.539 0.367,0.48 0.34,0.539 0.367,0.594 0.34,0.539 0.371,0.539 0.367,0.594 0.34,0.371 0.371,0.539 0.34,0.453 0.367,0.508 0.34,0.426 0.367,0.48 0.371,0.485 0.34,0.508 0.367,0.398 0.34,0.512 0.371,0.34 0.367,0.539 0.34,0.367 0.367,0.453 0.34,0.285 0.371,0.281 0.34,0.485 0.367,0.593 0.367,0.399 0.344,0.48 0.367,0.313 0.34,0.48 0.367,0.368 0.371,0.398 0.34,0.398 0.367,0.34 0.34,0.426 0.367,0.34 0.344,0.422 0.367,0.344 0.368,0.367 0.339,0.367 0.372,0.426 0.339,0.367 0.368,0.285 0.339,0.398 0.371,0.282 0.368,0.398 0.34,0.367 0.367,0.368 0.34,0.312 0.371,0.313 0.367,0.425 0.34,0.34 0.367,0.199 0.344,0.368 0.367,0.312 0.34,0.254 0.367,0.371 0.371,0.281 0.34,0.227 0.367,0.371 0.34,0.254 0.367,0.312 0.344,0.368 0.367,0.199 0.367,0.312 0.34,0.367 0.371,0.227 0.34,0.285 0.367,0.34 0.367,0.227 0.34,0.312 0.371,0.34 0.34,0.195 0.367,0.199 0.34,0.372 0.371,0.253 0.367,0.282 0.34,0.258 0.367,0.226 0.34,0.227 0.371,0.312 0.368,0.313 0.339,0.168 0.371,0.199 0.34,0.34 0.367,0.226 0.34,0.227 0.368,0.312 0.371,0.227 0.339,0.168 0.368,0.23 0.339,0.309 0.372,0.258 0.339,0.082 0.368,0.285 0.367,0.312 0.34,0.227 0.371,0.168 0.34,0.258 0.367,0.254 0.367,0.172 0.344,0.167 0.367,0.286 0.34,0.226 0.367,0.168 0.34,0.172 0.371,0.254 0.367,0.312 0.34,0.114 0.367,0.113 0.344,0.285 0.367,0.254 0.34,0.199 0.367,0.141 0.371,0.199 0.34,0.227 0.367,0.226 0.34,0.141 0.367,0.113 0.371,0.227 0.34,0.258 0.367,0.195 0.34,0.113 0.371,0.113 0.34,0.258 0.367,0.254 0.367,0.172 0.34,0.113 0.371,0.082 0.34,0.285 0.367,0.227 0.34,0.141 0.371,0.144 0.368,0.168 0.339,0.285 0.368,0.196 0.339,0.086 0.372,0.113 0.367,0.172 0.34,0.254 0.371,0.226 0.34,0.113 0.367,0.086 0.34,0.114 0.367,0.199 0.371,0.254 0.34,0.14 0.367,0.086 0.34,0.086 0.371,0.227 0.367,0.226 0.34,0.172 0.367,0.141 0.34,0.086 0.371,0.141 0.34,0.199 0.367,0.254 0.371,0.14 0.34,0.114 0.367,0.058 0.34,0.199 0.367,0.227 0.34,0.141 0.371,0.113 0.367,0.086 0.34,0.113 0.371,0.168 0.34,0.199 0.367,0.172 0.367,0.113 0.34,0.082 0.371,0.086 0.34,0.114 0.367,0.226 0.34,0.199 0.371,0.141 0.368,0.086 0.339,0.027 0.368,0.172 0.339,0.168 0.371,0.258 0.34,0.141 0.368,0.027 0.367,0.144 0.343,0.055 0.368,0.199 0.339,0.168 0.368,0.114 0.371,0.172 0.34,0.058 0.367,0.082 0.34,0.059 0.367,0.113 0.344,0.227 0.367,0.168 0.367,0.144 0.34,0.113 h 0.371 l 0.34,0.141 0.367,0.141 0.367,0.199 0.34,0.14 0.371,0.059 0.34,0.113 0.367,0.055 0.34,0.113 0.371,0.172 0.367,0.141 0.34,0.144 0.367,0.141 0.34,0.086 0.371,0.055 0.34,0.058 0.367,0.082 0.371,0.172 0.34,0.172 0.367,0.141 0.34,0.054 0.367,0.114 0.371,0.085 0.34,0.028 0.367,0.113 0.34,0.086 0.371,0.141 0.34,0.23 0.367,0.113 0.368,0.082 0.339,0.059 0.372,0.055 0.339,0.086 0.368,0.172 0.339,0.168" />
        </g>
        <g
           transform="matrix(1,0,0,-1,0,308.97638)"
           id="g2383">
          <path
             inkscape:connector-curvature="0"
             id="path2385"
             style="fill:none;stroke:#000000;stroke-width:1.13385797;stroke-linecap:butt;stroke-linejoin:round;stroke-miterlimit:4;stroke-dasharray:1.445669, 3.6, 1.445669, 3.6, 7.2, 3.6, 7.2, 3.6, 7.2, 3.6;stroke-dashoffset:0;stroke-opacity:1"
             d="m 66.641,210.586 h 0.343 l 0.368,-0.027 0.339,0.027 0.368,-0.027 0.339,-0.059 0.372,-0.086 0.367,-0.168 0.34,-0.254 0.367,-0.144 0.344,-0.227 0.367,-0.367 0.34,-0.313 0.367,-0.48 0.371,-0.484 0.34,-0.454 0.367,-0.593 0.34,-0.485 0.367,-0.566 0.371,-0.566 0.34,-0.622 0.367,-0.57 0.34,-0.648 0.371,-0.625 0.34,-0.653 0.367,-0.652 0.367,-0.68 0.344,-0.679 0.367,-0.567 0.34,-0.625 0.367,-0.652 0.34,-0.652 0.371,-0.567 0.367,-0.652 0.34,-0.625 0.367,-0.481 0.344,-0.593 0.367,-0.625 0.367,-0.512 0.34,-0.594 0.371,-0.566 0.34,-0.539 0.367,-0.739 0.34,-0.453 0.367,-0.48 0.372,-0.594 0.339,-0.484 0.368,-0.539 0.339,-0.567 0.371,-0.453 0.368,-0.566 0.34,-0.481 0.367,-0.598 0.34,-0.507 0.371,-0.485 0.339,-0.539 0.368,-0.508 0.371,-0.511 0.34,-0.481 0.367,-0.426 0.34,-0.566 0.367,-0.398 0.34,-0.594 0.371,-0.313 0.367,-0.511 0.34,-0.395 0.371,-0.539 0.34,-0.371 0.367,-0.481 0.367,-0.593 0.34,-0.453 0.371,-0.625 0.34,-0.34 0.367,-0.481 0.34,-0.457 0.371,-0.48 0.367,-0.367 0.34,-0.485 0.367,-0.453 0.34,-0.48 0.371,-0.426 0.34,-0.512 0.367,-0.48 0.367,-0.368 0.344,-0.566 0.367,-0.398 0.34,-0.567 0.367,-0.34 0.371,-0.566 0.34,-0.398 0.367,-0.454 0.34,-0.48 0.368,-0.457 0.343,-0.481 0.367,-0.394 0.368,-0.484 0.339,-0.481 0.372,-0.426 0.339,-0.398 0.368,-0.594 0.339,-0.426 0.368,-0.566 0.371,-0.313 0.34,-0.425 0.367,-0.34 0.34,-0.567 0.371,-0.425 0.367,-0.481 0.34,-0.426 0.367,-0.425 0.34,-0.313 0.371,-0.539 0.34,-0.309 0.367,-0.453 0.371,-0.398 0.34,-0.512 0.367,-0.394 0.34,-0.485 0.367,-0.34 0.371,-0.48 0.34,-0.34 0.367,-0.484 0.34,-0.282 0.371,-0.425 0.34,-0.399 0.367,-0.367 0.367,-0.453 0.34,-0.399 0.371,-0.394 0.34,-0.285 0.367,-0.481 0.34,-0.398 0.371,-0.426 0.367,-0.308 0.34,-0.426 0.367,-0.371 0.34,-0.395 0.371,-0.398 0.368,-0.313 0.339,-0.453 0.372,-0.281 0.339,-0.539 0.368,-0.285 0.339,-0.395 0.368,-0.371 0.371,-0.34 0.34,-0.453 0.367,-0.281 0.34,-0.399 0.371,-0.285 0.339,-0.394 0.368,-0.426 0.367,-0.34 0.34,-0.426 0.371,-0.226 0.34,-0.453 0.367,-0.313 0.367,-0.34 0.344,-0.367 0.367,-0.227 0.34,-0.425 0.367,-0.485 0.34,-0.226 0.371,-0.367 0.367,-0.227 0.34,-0.367 0.367,-0.399 0.344,-0.254 0.367,-0.398 0.367,-0.281 0.34,-0.344 0.371,-0.422 0.34,-0.226 0.367,-0.426 0.34,-0.258 0.367,-0.309 0.371,-0.425 0.34,-0.2 0.367,-0.425 0.34,-0.313 0.371,-0.312 0.34,-0.368 0.367,-0.254 0.368,-0.312 0.339,-0.367 0.371,-0.227 0.34,-0.426 0.368,-0.285 0.371,-0.226 0.339,-0.367 0.368,-0.313 0.339,-0.312 0.368,-0.34 0.34,-0.227 0.371,-0.312 0.367,-0.34 0.34,-0.281 0.371,-0.286 0.34,-0.367 0.367,-0.172 0.367,-0.281 0.34,-0.371 0.371,-0.227 0.34,-0.281 0.367,-0.344 0.34,-0.195 0.371,-0.312 0.367,-0.34 0.34,-0.199 0.367,-0.227 0.34,-0.367 0.371,-0.285 0.34,-0.172 0.367,-0.34 0.371,-0.254 0.34,-0.312 0.367,-0.313 0.34,-0.227 0.367,-0.168 0.371,-0.339 0.34,-0.34 0.367,-0.199 0.34,-0.254 0.371,-0.313 0.34,-0.199 0.367,-0.313 0.367,-0.339 0.34,-0.2 0.371,-0.199 0.34,-0.308 0.367,-0.313 0.34,-0.172 0.371,-0.281 0.368,-0.313 0.339,-0.171 0.368,-0.282 0.339,-0.312 0.372,-0.227 0.367,-0.172 0.34,-0.308 0.367,-0.344 0.344,-0.113 0.367,-0.196 0.34,-0.339 0.367,-0.227 0.371,-0.312 0.34,-0.227 0.367,-0.227 0.34,-0.199 0.367,-0.258 0.371,-0.367 0.34,-0.168 0.367,-0.144 0.34,-0.227 0.371,-0.312 0.34,-0.227 0.367,-0.141 0.367,-0.253 0.34,-0.286 0.371,-0.14 0.34,-0.254 0.367,-0.285 0.34,-0.227 0.371,-0.14 0.367,-0.172 0.34,-0.368 0.367,-0.226 0.34,-0.199 0.371,-0.285 0.367,-0.282 0.34,-0.199 0.371,-0.113 0.34,-0.199 0.367,-0.227 0.34,-0.199 0.367,-0.227 0.372,-0.14 0.339,-0.254 0.368,-0.227 0.339,-0.144 0.371,-0.227 0.34,-0.281 0.368,-0.199 0.367,-0.114 0.34,-0.14 0.371,-0.34 0.339,-0.258 0.368,-0.141 0.367,-0.113 0.344,-0.285 0.367,-0.309 0.34,-0.113 0.367,-0.144 0.34,-0.227 0.371,-0.281 0.367,-0.227 0.34,-0.113 0.367,-0.285 0.344,-0.227 0.367,-0.14 0.367,-0.172 0.34,-0.2 0.371,-0.253 0.34,-0.227 0.367,-0.113 0.34,-0.2 0.367,-0.168 0.371,-0.285 0.34,-0.168 0.367,-0.086 0.34,-0.398 0.371,-0.141 0.34,-0.172 0.367,-0.082 0.367,-0.144 0.344,-0.313 0.367,-0.226 0.34,-0.168 0.367,-0.113 0.371,-0.172 0.34,-0.254 0.367,-0.227 0.34,-0.113 0.368,-0.113 0.343,-0.2 0.367,-0.285 0.368,-0.168 0.339,-0.113 0.372,-0.113 0.339,-0.285 0.368,-0.254 0.339,-0.172 0.368,-0.055 0.371,-0.14 0.34,-0.227 0.367,-0.313 0.34,-0.14 0.371,-0.059 0.367,-0.199 0.34,-0.227 0.367,-0.226 0.34,-0.141 0.371,-0.113 0.34,-0.199 0.367,-0.227 0.371,-0.199 0.34,-0.113 0.367,-0.168 0.34,-0.114 0.367,-0.257 0.371,-0.227 0.34,-0.086 0.367,-0.168 0.34,-0.254 0.371,-0.144 0.34,-0.254 0.367,-0.059 0.367,-0.113 0.34,-0.281 0.371,-0.227 0.34,-0.172 0.367,-0.168 0.34,-0.172 0.371,-0.312 0.367,-0.168 0.34,-0.113 0.367,-0.141 0.34,-0.172 0.371,-0.254 0.368,-0.226 0.339,-0.086 0.368,-0.086 0.343,-0.168 0.368,-0.258 0.339,-0.281 0.368,-0.059 0.371,-0.113 0.34,-0.168 0.367,-0.199 0.34,-0.258 0.367,-0.082 0.343,-0.113 0.34,-0.145 0.368,-0.141 0.339,-0.339 0.368,-0.114 0.339,-0.113 0.371,-0.141 0.368,-0.257 0.34,-0.254 0.371,-0.114 0.339,-0.054 0.368,-0.145 0.339,-0.254 0.368,-0.254 0.371,-0.113 0.34,-0.113 0.367,-0.059 0.34,-0.226 0.371,-0.254 0.367,-0.145 0.34,-0.082 0.367,-0.086 0.34,-0.086 0.371,-0.312 0.34,-0.168 0.367,-0.145 0.367,-0.113 0.344,-0.055 0.367,-0.254 0.34,-0.199 0.367,-0.172 0.34,-0.14 0.371,-0.059 0.367,-0.195 0.34,-0.172 0.371,-0.141 0.34,-0.199 0.367,-0.113 0.367,-0.086 0.34,-0.113 0.371,-0.168 0.34,-0.227 0.367,-0.172 0.34,-0.14 0.371,-0.059 0.367,-0.168 0.34,-0.199 0.367,-0.199 0.34,-0.168 0.371,-0.086 0.34,-0.059 0.367,-0.168 0.368,-0.172 0.343,-0.254 0.368,-0.113 0.339,-0.059 0.368,-0.082 0.371,-0.144 0.34,-0.254 0.367,-0.168 0.34,-0.117 0.367,-0.082 0.344,-0.113 0.367,-0.172 0.367,-0.2 0.34,-0.168 0.371,-0.14 0.34,-0.086 0.367,-0.113 0.367,-0.145 0.34,-0.168 0.371,-0.199 0.34,-0.141 0.367,-0.113 0.34,-0.059 0.371,-0.113 0.367,-0.199 0.34,-0.227 0.367,-0.168 0.34,-0.058 0.371,-0.028 0.34,-0.14 0.367,-0.172 0.371,-0.227 0.34,-0.199 0.367,-0.055 0.34,-0.058 0.367,-0.082 0.371,-0.227 0.34,-0.172 0.367,-0.171 0.34,-0.114 0.371,-0.054 0.34,-0.114 0.367,-0.058 0.368,-0.196 0.339,-0.226 0.372,-0.145 0.339,-0.113 0.368,-0.055 0.339,-0.058 0.371,-0.114 0.368,-0.168 0.34,-0.257 0.367,-0.114 0.34,-0.113 0.371,-0.055 0.367,-0.113 0.34,-0.199 0.367,-0.199 0.344,-0.168 0.367,-0.086 0.34,-0.059 0.367,-0.082 0.371,-0.113 0.34,-0.145 0.367,-0.199 0.34,-0.14 0.367,-0.141 0.371,-0.027 0.34,-0.059 0.367,-0.055 0.34,-0.144 0.371,-0.196 0.34,-0.171 0.367,-0.141 0.367,-0.086 0.34,-0.059 0.371,-0.14 0.34,-0.114 0.367,-0.14 0.34,-0.172 0.371,-0.141 0.367,-0.086 0.34,-0.054 0.367,-0.032 0.344,-0.113 0.367,-0.254 0.368,-0.168 0.339,-0.058 0.371,-0.141 0.34,-0.058 0.367,-0.083 0.34,-0.144 0.368,-0.086 0.371,-0.141 0.339,-0.168 0.368,-0.171 0.339,-0.086 0.372,-0.028 0.339,-0.054 0.368,-0.145 0.367,-0.199 0.34,-0.168 0.371,-0.113 0.34,-0.086 0.367,-0.055 0.371,-0.113 0.34,-0.114 0.367,-0.113 0.34,-0.144 0.367,-0.141 0.34,-0.172 0.371,-0.055 0.367,-0.027 0.34,-0.086 0.371,-0.086 0.34,-0.226 0.367,-0.141 0.367,-0.113 0.34,-0.114 0.371,-0.058 0.34,-0.055 0.367,-0.144 0.34,-0.055 0.371,-0.172 0.367,-0.254 0.34,-0.168 0.367,-0.058 0.34,-0.059 0.371,-0.082 0.34,-0.172 0.367,-0.141 0.367,-0.027 0.344,-0.144 0.367,-0.082 0.34,-0.059 0.367,-0.113 0.372,-0.028 0.339,-0.086 0.368,-0.14 0.339,-0.114 0.368,-0.199 0.343,-0.113 0.368,-0.086 0.367,-0.055 0.34,-0.031 0.371,-0.113 0.34,-0.113 0.367,-0.114 0.34,-0.14 0.367,-0.172 0.371,-0.141 0.34,-0.027 0.367,-0.028 0.34,-0.085 0.371,-0.028 0.367,-0.258 0.34,-0.082 0.367,-0.144 0.34,-0.113 0.371,-0.086 0.34,-0.055 0.367,-0.059 0.371,-0.14 0.34,-0.055 0.367,-0.059 0.34,-0.14 0.367,-0.028 0.371,-0.031 h 1.047 l 0.371,0.059 0.34,0.054 0.367,0.114 0.367,0.144 0.34,0.055 0.371,0.141 0.34,0.257 0.367,0.282 0.34,0.199 0.371,0.226 0.368,0.34 0.339,0.258 0.368,0.395 0.339,0.339 0.371,0.313 0.368,0.453 0.34,0.399 0.371,0.394 0.339,0.34 0.368,0.457 0.339,0.394 0.368,0.512 0.371,0.395 0.34,0.484 0.367,0.453 0.34,0.453 0.371,0.453 0.34,0.454 0.367,0.484 0.367,0.422 0.34,0.453 0.371,0.457 0.34,0.508 0.367,0.426 0.367,0.48 0.344,0.426 0.367,0.512 0.34,0.394 0.367,0.484 0.34,0.481 0.371,0.453 0.367,0.484 0.34,0.426 0.367,0.535 0.344,0.371 0.367,0.54 0.367,0.453 0.34,0.507 0.371,0.372 0.34,0.453 0.367,0.453 0.34,0.48 0.367,0.453 0.371,0.454 0.34,0.398 0.367,0.426 0.34,0.453 0.371,0.453 0.34,0.426 0.367,0.453 0.368,0.398 0.339,0.426 0.372,0.395 0.339,0.398 0.368,0.313 0.371,0.453 0.34,0.34 0.367,0.453 0.34,0.34 0.367,0.566 0.34,0.398 0.371,0.453 0.367,0.395 0.34,0.313 0.371,0.425 0.34,0.481 0.367,0.398 0.707,0.707 0.371,0.399 0.34,0.425 0.367,0.34 0.34,0.426 0.371,0.313 0.367,0.367 0.34,0.398 0.367,0.254 0.34,0.227 0.371,0.281 0.34,0.598 0.367,0.367 0.367,0.34 0.344,0.425 0.367,0.227 0.34,0.453 0.367,0.34 0.371,0.312 0.34,0.372 0.367,0.253 0.34,0.368 0.367,0.339 0.344,0.258 0.367,0.395 0.368,0.285 0.339,0.312 0.372,0.395 0.339,0.285 0.368,0.34 0.339,0.312 0.371,0.254 0.368,0.368 0.34,0.312 0.367,0.254 0.34,0.34 0.371,0.285 0.367,0.285 0.34,0.395 0.367,0.257 0.344,0.227 0.367,0.422 0.34,0.226 0.367,0.286 0.371,0.339 0.34,0.172 0.367,0.34 0.34,0.34 0.367,0.227 0.344,0.281 0.367,0.258 0.367,0.281 0.34,0.226 0.371,0.426 0.34,0.227 0.367,0.199 0.367,0.34 0.34,0.285 0.371,0.168 0.34,0.34 0.367,0.258 0.34,0.195 0.371,0.227 0.367,0.343 0.34,0.227 0.367,0.195 0.34,0.371 0.371,0.254 0.368,0.141 0.339,0.226 0.371,0.258 0.34,0.254 0.367,0.141 0.34,0.285 0.368,0.312 0.371,0.141 0.339,0.227 0.368,0.312 0.339,0.254 0.372,0.172 0.339,0.226 0.368,0.313 0.367,0.226 0.34,0.196 0.371,0.312 0.34,0.172 0.367,0.199 0.367,0.168 0.344,0.285 0.367,0.282 0.34,0.113 0.367,0.199 0.34,0.254 0.371,0.285 0.367,0.172 0.34,0.141 0.367,0.312 0.344,0.227 0.367,0.168 0.34,0.113 0.367,0.227 0.371,0.312 0.34,0.172 0.367,0.141 0.34,0.285 0.367,0.195 0.371,0.199 0.34,0.114 0.367,0.172 0.34,0.253 0.371,0.2 0.34,0.199 0.367,0.14 0.367,0.254 0.34,0.227 0.371,0.172 0.34,0.086 0.367,0.195 0.34,0.227 0.371,0.226 0.368,0.172 0.339,0.086 0.368,0.168 0.339,0.285 0.372,0.199 0.367,0.114 0.34,0.113 0.371,0.226 0.34,0.254 0.367,0.2 0.34,0.086 0.367,0.113 0.371,0.14 0.34,0.227 0.367,0.254 0.34,0.086 0.371,0.113 0.367,0.113 0.34,0.254 0.367,0.227 0.34,0.117 0.371,0.113 0.34,0.082 0.367,0.145 0.371,0.254 0.34,0.199 0.367,0.113 0.34,0.086 0.367,0.141 0.34,0.141 0.371,0.285 0.367,0.168 0.34,0.113 0.371,0.086 0.34,0.113 0.367,0.172 0.367,0.254 0.34,0.168 0.371,0.086 0.34,0.058 0.367,0.168 0.34,0.227 0.371,0.199 0.368,0.113 0.339,0.086 0.368,0.055 0.339,0.172 0.371,0.227 0.34,0.226 0.735,0.172 0.343,0.055 0.368,0.172 0.339,0.195 0.368,0.144 0.371,0.168 0.34,0.114 0.367,0.086 0.34,0.058 0.367,0.113 0.344,0.227 0.367,0.227 0.367,0.113 0.34,0.055 0.371,0.058 0.34,0.113 0.367,0.282 0.367,0.199 0.34,0.113 0.371,0.027 0.34,0.086 0.367,0.086 0.34,0.168 0.371,0.2 0.367,0.144 0.34,0.141 0.367,0.086 0.34,0.054 0.371,0.059 0.34,0.113 0.367,0.227 0.371,0.199 0.34,0.113 0.367,0.082 0.34,0.032 0.367,0.082 0.371,0.144 0.34,0.141 0.367,0.199 0.34,0.113 0.371,0.141 0.34,0.027 0.367,0.086 0.368,0.141 0.339,0.086 0.372,0.226 0.339,0.141 0.368,0.113 0.339,0.059" />
        </g>
        <text
           id="text2401"
           style="font-variant:normal;font-weight:normal;font-size:11.99055099px;font-family:'Times New Roman';-inkscape-font-specification:TimesNewRomanPSMT;writing-mode:lr-tb;fill:#000000;fill-opacity:1;fill-rule:nonzero;stroke:none"
           transform="matrix(1,0,0,-1,63.496061,55.275598)">
          <tspan
             id="tspan2387"
             sodipodi:role="line"
             y="0"
             x="0 32.542355 38.537632 68.202255 74.197533 103.86215 109.85743 139.52205 145.51733 172.04042 178.03571 184.03098 207.69449 213.68976 219.68504 243.35439 249.34966 255.34494 279.01428 285.00955 291.00482 314.67419 320.66946 326.66473">020406080100120140160180</tspan>
          <tspan
             id="tspan2389"
             y="-13.322833"
             x="-10.204726">0</tspan>
          <tspan
             id="tspan2391"
             sodipodi:role="line"
             y="-58.138584"
             x="-16.469297 -10.474022">50</tspan>
          <tspan
             id="tspan2393"
             sodipodi:role="line"
             y="-102.95434"
             x="-22.73387 -16.738594 -10.743318">100</tspan>
          <tspan
             id="tspan2395"
             sodipodi:role="line"
             y="-147.7701"
             x="-22.73387 -16.738594 -10.743318">150</tspan>
          <tspan
             id="tspan2397"
             sodipodi:role="line"
             y="-192.58585"
             x="-22.73387 -16.738594 -10.743318">200</tspan>
          <tspan
             id="tspan2399"
             sodipodi:role="line"
             y="-237.4016"
             x="-22.73387 -16.738594 -10.743318">250</tspan>
        </text>
        <g
           transform="matrix(1,0,0,-1,0,308.97638)"
           id="g2403">
          <path
             inkscape:connector-curvature="0"
             id="path2405"
             style="fill:none;stroke:#000000;stroke-width:0.79999399;stroke-linecap:butt;stroke-linejoin:round;stroke-miterlimit:4;stroke-dasharray:none;stroke-opacity:1"
             d="M 202.594,302.711 H 59.586 v -18.227 h 286.016 v 18.227 z" />
        </g>
        <g
           transform="matrix(1,0,0,-1,0,308.97638)"
           id="g2407">
          <path
             inkscape:connector-curvature="0"
             id="path2409"
             style="fill:none;stroke:#000000;stroke-width:1.13385797;stroke-linecap:butt;stroke-linejoin:round;stroke-miterlimit:4;stroke-dasharray:1.445669, 3.6, 1.445669, 3.6, 7.2, 3.6, 7.2, 3.6, 7.2, 3.6;stroke-dashoffset:0;stroke-opacity:1"
             d="m 63.523,293.586 h 45.356" />
        </g>
        <g
           transform="matrix(1,0,0,-1,0,308.97638)"
           id="g2411">
          <path
             inkscape:connector-curvature="0"
             id="path2413"
             style="fill:none;stroke:#000000;stroke-width:1.13385797;stroke-linecap:butt;stroke-linejoin:round;stroke-miterlimit:4;stroke-dasharray:none;stroke-opacity:1"
             d="m 206.531,293.586 h 45.356" />
        </g>
        <text
           id="text2419"
           style="font-variant:normal;font-weight:normal;font-size:11.99055099px;font-family:'Times New Roman';-inkscape-font-specification:TimesNewRomanPSMT;writing-mode:lr-tb;fill:#000000;fill-opacity:1;fill-rule:nonzero;stroke:none"
           transform="matrix(1,0,0,-1,111.71338,11.480324)">
          <tspan
             id="tspan2415"
             sodipodi:role="line"
             y="0"
             x="0 7.3142362 13.309511 18.621326 22.61418 31.930838 37.926113 43.237926 49.233204 55.228477 61.223755 64.545135 69.856949 72.854591 78.849861 142.95135 150.26558 156.26086 161.57268 165.56552 174.88219 180.87746 186.18927 192.18456 198.17982 204.17511 207.49649 212.8083 215.80594 221.80121">Thermocouple #1Thermocouple #2</tspan>
          <tspan
             id="tspan2417"
             sodipodi:role="line"
             y="-21.458265"
             x="86.796852 93.691422 97.012802 106.32946 111.64127 114.63892 118.63177 123.29609">Time [s]</tspan>
        </text>
        <text
           id="text2423"
           style="font-variant:normal;font-weight:normal;font-size:11.99055099px;font-family:'Times New Roman';-inkscape-font-specification:TimesNewRomanPSMT;writing-mode:lr-tb;fill:#000000;fill-opacity:1;fill-rule:nonzero;stroke:none"
           transform="matrix(0,1,1,0,26.702362,135.24095)">
          <tspan
             id="tspan2421"
             sodipodi:role="line"
             y="0"
             x="0 6.4748974 11.786712 21.103371 27.098646 32.410458 36.403313 41.715126 45.03651 51.031784 55.024639 60.336452 63.334091 67.326942 72.111176 80.096878">Temperature [C]</tspan>
        </text>
      </g>
    </g>
    <text
       xml:space="preserve"
       style="font-style:normal;font-weight:normal;font-size:10.58333302px;line-height:125%;font-family:sans-serif;letter-spacing:0px;word-spacing:0px;fill:#000000;fill-opacity:1;stroke:none;stroke-width:0.26458332px;stroke-linecap:butt;stroke-linejoin:miter;stroke-opacity:1"
       x="1.7488098"
       y="246.00354"
       id="text1274"><tspan
         sodipodi:role="line"
         id="tspan1272"
         x="1.7488098"
         y="246.00354"
         style="font-style:normal;font-variant:normal;font-weight:normal;font-stretch:normal;font-size:3.88055563px;font-family:'Latin Modern Roman';-inkscape-font-specification:'Latin Modern Roman, Normal';font-variant-ligatures:normal;font-variant-caps:normal;font-variant-numeric:normal;font-feature-settings:normal;text-align:start;writing-mode:lr-tb;text-anchor:start;stroke-width:0.26458332px">a)</tspan></text>
    <text
       xml:space="preserve"
       style="font-style:normal;font-weight:normal;font-size:10.58333302px;line-height:125%;font-family:sans-serif;letter-spacing:0px;word-spacing:0px;fill:#000000;fill-opacity:1;stroke:none;stroke-width:0.26458332px;stroke-linecap:butt;stroke-linejoin:miter;stroke-opacity:1"
       x="70.94072"
       y="246.00354"
       id="text1274-3"><tspan
         sodipodi:role="line"
         id="tspan1272-8"
         x="70.94072"
         y="246.00354"
         style="font-style:normal;font-variant:normal;font-weight:normal;font-stretch:normal;font-size:3.88055563px;font-family:'Latin Modern Roman';-inkscape-font-specification:'Latin Modern Roman, Normal';font-variant-ligatures:normal;font-variant-caps:normal;font-variant-numeric:normal;font-feature-settings:normal;text-align:start;writing-mode:lr-tb;text-anchor:start;stroke-width:0.26458332px">b)</tspan></text>
  </g>
</svg>
